<?xml version="1.0" encoding="utf-8"?>
<!-- Generator: Adobe Illustrator 18.1.0, SVG Export Plug-In . SVG Version: 6.00 Build 0)  -->
<!DOCTYPE svg PUBLIC "-//W3C//DTD SVG 1.1//EN" "http://www.w3.org/Graphics/SVG/1.1/DTD/svg11.dtd">
<svg version="1.1" id="Layer_1" xmlns="http://www.w3.org/2000/svg" xmlns:xlink="http://www.w3.org/1999/xlink" x="0px" y="0px"
	 viewBox="-0.4 457.5 800 200" enable-background="new -0.4 457.5 800 200" xml:space="preserve">
<g>
	<g>
		<path fill="#FFFFFF" d="M27.6,575.4h-7.4v-29.1h-5.9v-6.8h19.3v6.8h-6.1V575.4z"/>
		<path fill="#FFFFFF" d="M49.4,553.7v-14.1h7.4v35.8h-7.4V560H44v15.4h-7.4v-35.8H44v14.1H49.4z"/>
		<path fill="#FFFFFF" d="M69.6,554.2h8.7v6h-8.7v9h11.3v6.3H62.2v-35.8h18.7v6.3H69.6V554.2z"/>
		<path fill="#FFFFFF" d="M97,539.6h9c4.7,0,6.2,0.4,8.1,2.1c2.1,1.8,3.3,5.3,3.3,9.2c0,4.5-1.5,8-4,9.7c-1.8,1.2-3.4,1.6-7,1.6
			h-2.1v13.2H97V539.6z M106,555.9c2.8,0,3.8-1.4,3.8-5.4c0-3.7-1.2-5.3-3.8-5.3h-1.8v10.7H106z"/>
		<path fill="#FFFFFF" d="M120.7,539.6h9.2c4.8,0,6.6,0.5,8.3,2.3c2,2.1,3,4.8,3,8.3c0,4.8-1.3,7.6-4.7,9.7l5.4,15.5h-7.7l-4.1-14.1
			h-2.3v14.1h-7.2V539.6z M130,555.4c2.7,0,4-1.7,4-5.2c0-3.3-1.3-5-4-5h-2v10.2H130z"/>
		<path fill="#FFFFFF" d="M166.6,557.8c0,12.5-3.5,18.2-11.3,18.2c-7.6,0-11.1-6-11.1-18.6c0-12.5,3.6-18.3,11.4-18.3
			C163.1,539.1,166.6,545.1,166.6,557.8z M152,557.6c0,9.5,0.8,12,3.4,12c2.8,0,3.4-2,3.4-12.5c0-9-0.8-11.6-3.3-11.6
			C152.7,545.4,152,548,152,557.6z"/>
		<path fill="#FFFFFF" d="M192.3,557.8c0,12.5-3.5,18.2-11.3,18.2c-7.6,0-11.1-6-11.1-18.6c0-12.5,3.6-18.3,11.4-18.3
			C188.7,539.1,192.3,545.1,192.3,557.8z M177.6,557.6c0,9.5,0.8,12,3.4,12c2.8,0,3.4-2,3.4-12.5c0-9-0.8-11.6-3.3-11.6
			C178.3,545.4,177.6,548,177.6,557.6z"/>
		<path fill="#FFFFFF" d="M204,555.2h7.9v6H204v14.3h-7.4v-35.8h17.6v6.3H204V555.2z"/>
		<path fill="#FFFFFF" d="M229.6,539.6h7.4v35.8h-7.4V539.6z"/>
		<path fill="#FFFFFF" d="M255,549.7c-0.7-2.8-2-4.2-4-4.2c-1.9,0-3.1,1.3-3.1,3.5c0,1.3,0.4,2.3,1.3,3s0.9,0.7,5,2.6
			c4.9,2.3,6.9,5.2,6.9,10c0,6.9-4.2,11.3-10.8,11.3c-5.9,0-9.3-3.1-10.5-9.7l5.9-2c0.9,3.9,2.1,5.3,4.7,5.3c2.2,0,3.6-1.5,3.6-3.8
			c0-1.1-0.4-2.2-1.1-2.8s-0.7-0.6-4.9-2.7c-4.7-2.3-6.8-5.5-6.8-10.2c0-6.2,4.2-10.9,9.8-10.9c4.9,0,8.1,2.7,9.8,8.3L255,549.7z"/>
		<path fill="#FFFFFF" d="M277.2,539.6h7.4v35.8h-7.4V539.6z"/>
		<path fill="#FFFFFF" d="M290.1,539.6h7.2l5.9,16.4c0.5,1.5,0.9,3.2,1.7,7c-0.3-3.9-0.5-8.8-0.5-10.8v-12.6h6v35.8h-6l-6.8-18.3
			c-0.8-2-1.3-4.1-2.1-7.4c0.3,4.1,0.6,9,0.6,10.6v15.1h-6V539.6z"/>
	</g>
	<g>
		<path fill="#FFFFFF" d="M331.4,522.8H371l-2.9,16.4h-39.7L331.4,522.8z M338.9,541.1h18.2l-8.9,49.9H330L338.9,541.1z"/>
		<path fill="#FFFFFF" d="M375.2,522.8h18.2L381.4,591h-18.2L375.2,522.8z M390.8,548.7h4.3l4.6-25.9h18.2L405.9,591h-18.2l4.1-23.5
			h-4.4L390.8,548.7z"/>
		<path fill="#FFFFFF" d="M424,522.8h18.2L430.2,591H412L424,522.8z M434.8,575.2h14.9L447,591H432L434.8,575.2z M439.6,548h12.6
			l-2.9,15.9h-12.6L439.6,548z M444.1,522.8h14.4l-2.8,15.8h-14.4L444.1,522.8z"/>
		<path fill="#FFFFFF" d="M481.5,522.8h18.2L487.7,591h-18.2L481.5,522.8z M493.9,566.3l2.7-15.1h4l2.6-14.4h-4l2.5-13.9h11.8
			l8.8,8.8l-4.1,23.1l-8.4,8.4l3.2,13.2h3.3l-2.6,14.6h-14.9L493.9,566.3z"/>
		<path fill="#FFFFFF" d="M529.6,522.8h18.2L535.8,591h-18.2L529.6,522.8z M540.4,575.2h14.9l-2.8,15.8h-14.9L540.4,575.2z
			 M545.2,548h12.6l-2.9,15.9h-12.6L545.2,548z M549.7,522.8h14.4l-2.8,15.8h-14.4L549.7,522.8z"/>
		<path fill="#FFFFFF" d="M557.9,582.2l2.6-14.7h18.2l-1.5,8.3h1.2l-2.7,15.2h-9L557.9,582.2z M580.2,575.8h1.1l1.6-9.3l-13.5-4
			l-6.8-6.8l4.3-24.1l8.8-8.8h11.9l-2.7,15.2h-1l-1.7,9.4l13.6,4l6.8,6.8l-4.2,24l-8.8,8.8h-12.1L580.2,575.8z M587.7,538h-1
			l2.7-15.2h8.8l8.8,8.8l-2.6,14.7h-18.2L587.7,538z"/>
		<path fill="#FFFFFF" d="M620.5,591h-9.2l-8.8-8.8l10.5-59.4h18.2l-9.3,52.4h1.4L620.5,591z M625.2,575.2h1.3l9.3-52.4h18.2
			l-10.6,59.4l-8.8,8.8h-12.2L625.2,575.2z"/>
		<path fill="#FFFFFF" d="M659.4,522.8h18.2L665.6,591h-18.2L659.4,522.8z M670.3,575.2h12l-2.9,15.8h-12L670.3,575.2z"/>
		<path fill="#FFFFFF" d="M689.4,522.8H729l-2.9,16.4h-39.7L689.4,522.8z M696.9,541.1H715l-8.9,49.9H688L696.9,541.1z"/>
		<path fill="#FFFFFF" d="M721.3,582.2l2.6-14.7H742l-1.5,8.3h1.2L739,591h-9L721.3,582.2z M743.6,575.8h1.1l1.6-9.3l-13.5-4
			l-6.8-6.8l4.3-24.1l8.8-8.8h11.9l-2.7,15.2h-1l-1.7,9.4l13.6,4l6.8,6.8l-4.2,24L753,591h-12.1L743.6,575.8z M751.1,538h-1
			l2.7-15.2h8.8l8.8,8.8l-2.6,14.7h-18.2L751.1,538z"/>
		<path fill="#FFFFFF" d="M764.2,591l2.3-13.4h14.3l-2.3,13.4H764.2z"/>
	</g>
</g>
</svg>
