<?xml version="1.0" encoding="utf-8"?>
<!-- Generator: Adobe Illustrator 18.1.0, SVG Export Plug-In . SVG Version: 6.00 Build 0)  -->
<!DOCTYPE svg PUBLIC "-//W3C//DTD SVG 1.1//EN" "http://www.w3.org/Graphics/SVG/1.1/DTD/svg11.dtd">
<svg version="1.1" id="Layer_1" xmlns="http://www.w3.org/2000/svg" xmlns:xlink="http://www.w3.org/1999/xlink" x="0px" y="0px"
	 viewBox="-3.9 722.5 800 200" enable-background="new -3.9 722.5 800 200" xml:space="preserve">
<g>
	<g>
		<path fill="#FFFFFF" d="M37.8,822.8c0,12.5-3.5,18.2-11.3,18.2c-7.6,0-11.1-6-11.1-18.6c0-12.5,3.6-18.3,11.4-18.3
			C34.3,804.1,37.8,810.1,37.8,822.8z M23.2,822.6c0,9.5,0.8,12,3.4,12c2.8,0,3.4-2,3.4-12.5c0-9-0.8-11.6-3.3-11.6
			C23.9,810.4,23.2,813,23.2,822.6z"/>
		<path fill="#FFFFFF" d="M42.2,804.6h9c4.7,0,6.2,0.4,8.1,2.1c2.1,1.8,3.3,5.3,3.3,9.2c0,4.5-1.5,8-4,9.7c-1.8,1.2-3.4,1.6-7,1.6
			h-2.1v13.2h-7.2V804.6z M51.2,820.9c2.8,0,3.8-1.4,3.8-5.4c0-3.7-1.2-5.3-3.8-5.3h-1.8v10.7H51.2z"/>
		<path fill="#FFFFFF" d="M65.9,804.6h9c4.7,0,6.2,0.4,8.1,2.1c2.1,1.8,3.3,5.3,3.3,9.2c0,4.5-1.5,8-4,9.7c-1.8,1.2-3.4,1.6-7,1.6
			h-2.1v13.2h-7.2V804.6z M74.8,820.9c2.8,0,3.8-1.4,3.8-5.4c0-3.7-1.2-5.3-3.8-5.3h-1.8v10.7H74.8z"/>
		<path fill="#FFFFFF" d="M111.3,822.8c0,12.5-3.5,18.2-11.3,18.2c-7.6,0-11.1-6-11.1-18.6c0-12.5,3.6-18.3,11.4-18.3
			C107.7,804.1,111.3,810.1,111.3,822.8z M96.7,822.6c0,9.5,0.8,12,3.4,12c2.8,0,3.4-2,3.4-12.5c0-9-0.8-11.6-3.3-11.6
			C97.4,810.4,96.7,813,96.7,822.6z"/>
		<path fill="#FFFFFF" d="M115.6,804.6h9.2c4.8,0,6.6,0.5,8.3,2.3c2,2.1,3,4.8,3,8.3c0,4.8-1.3,7.6-4.7,9.7l5.4,15.5h-7.7l-4.1-14.1
			h-2.3v14.1h-7.2V804.6z M124.8,820.4c2.7,0,4-1.7,4-5.2c0-3.3-1.3-5-4-5h-2v10.2H124.8z"/>
		<path fill="#FFFFFF" d="M151.4,840.4h-7.4v-29.1h-5.9v-6.8h19.3v6.8h-6.1V840.4z"/>
		<path fill="#FFFFFF" d="M167.6,804.6v22.8c0,5.5,0.8,7,3.9,7c1.2,0,2.1-0.5,2.6-1.6c0.5-1,0.7-2.4,0.7-5.8v-22.4h6.2V827
			c0,6.3-0.9,9.6-3.1,11.7c-1.7,1.6-4,2.3-7.3,2.3c-7.6,0-10.4-3.5-10.4-13.3v-23H167.6z"/>
		<path fill="#FFFFFF" d="M186.2,804.6h7.2l5.9,16.4c0.5,1.5,0.9,3.2,1.7,7c-0.3-3.9-0.5-8.8-0.5-10.8v-12.6h6v35.8h-6l-6.8-18.3
			c-0.8-2-1.3-4.1-2.1-7.4c0.3,4.1,0.6,9,0.6,10.6v15.1h-6V804.6z"/>
		<path fill="#FFFFFF" d="M211.8,804.6h7.4v35.8h-7.4V804.6z"/>
		<path fill="#FFFFFF" d="M235.3,840.4H228v-29.1h-5.9v-6.8h19.3v6.8h-6.1V840.4z"/>
		<path fill="#FFFFFF" d="M249.9,825.7l-7.1-21.1h7.7l3.1,11.4c0.4,1.6,0.6,3.2,0.6,5.7c0.2-2.5,0.4-4,0.9-5.7l3.4-11.4h6.6
			l-7.9,21.1v14.7h-7.4V825.7z"/>
		<path fill="#FFFFFF" d="M280.6,804.6h7.4v35.8h-7.4V804.6z"/>
		<path fill="#FFFFFF" d="M306.1,814.7c-0.7-2.8-2-4.2-4-4.2c-1.9,0-3.1,1.3-3.1,3.5c0,1.3,0.4,2.3,1.3,3s0.9,0.7,5,2.6
			c4.9,2.3,6.9,5.2,6.9,10c0,6.9-4.2,11.3-10.8,11.3c-5.9,0-9.3-3.1-10.5-9.7l5.9-2c0.9,3.9,2.1,5.3,4.7,5.3c2.2,0,3.6-1.5,3.6-3.8
			c0-1.1-0.4-2.2-1.1-2.8s-0.7-0.6-4.9-2.7c-4.7-2.3-6.8-5.5-6.8-10.2c0-6.2,4.2-10.9,9.8-10.9c4.9,0,8.1,2.7,9.8,8.3L306.1,814.7z"
			/>
	</g>
	<g>
		<path fill="#FFFFFF" d="M338.2,787.8h18.2L344.3,856h-18.2L338.2,787.8z M348.9,840.2h14.9l-2.8,15.8h-14.9L348.9,840.2z
			 M353.8,813h12.6l-2.9,15.9h-12.6L353.8,813z M358.2,787.8h14.4l-2.8,15.8h-14.4L358.2,787.8z"/>
		<path fill="#FFFFFF" d="M372.8,856l2.5-68.2h18.5l-6.1,68.2H372.8z M392,828.3l10.1-40.5H420L399.3,856h-9.8L392,828.3z"/>
		<path fill="#FFFFFF" d="M423.5,787.8h18.2L429.6,856h-18.2L423.5,787.8z M434.3,840.2h14.9l-2.8,15.8h-14.9L434.3,840.2z
			 M439.1,813h12.6l-2.9,15.9h-12.6L439.1,813z M443.6,787.8H458l-2.8,15.8h-14.4L443.6,787.8z"/>
		<path fill="#FFFFFF" d="M463.7,787.8h18.2L469.8,856h-18.2L463.7,787.8z M476.1,831.3l2.7-15.1h4l2.6-14.4h-4l2.5-13.9h11.8
			l8.8,8.8l-4.1,23.1l-8.4,8.4l3.2,13.2h3.3l-2.6,14.6h-14.9L476.1,831.3z"/>
		<path fill="#FFFFFF" d="M528.4,856h-18.2l3.4-18.9l-6.3-49.3h18.3l1.4,27.6l4.8,21.7L528.4,856z M528,812.7l10.2-24.9h17.5
			L533,834.7L528,812.7z"/>
		<path fill="#FFFFFF" d="M557.4,787.8H597l-2.9,16.4h-39.7L557.4,787.8z M564.9,806.1H583l-8.9,49.9H556L564.9,806.1z"/>
		<path fill="#FFFFFF" d="M601.2,787.8h18.2L607.3,856h-18.2L601.2,787.8z M616.7,813.7h4.3l4.6-25.9h18.2L631.8,856h-18.2l4.1-23.5
			h-4.4L616.7,813.7z"/>
		<path fill="#FFFFFF" d="M650.3,787.8h18.2L656.4,856h-18.2L650.3,787.8z"/>
		<path fill="#FFFFFF" d="M673.4,796.5l9.7,35.3l-4.3,24.2h-15.9L673.4,796.5z M674.1,793.1l0.9-5.2h15.9l16.7,62.9l-0.9,5.2h-15.4
			L674.1,793.1z M698.6,810.9l4.3-23.1h15.8l-10.4,58.9L698.6,810.9z"/>
		<path fill="#FFFFFF" d="M713.7,847.2l8.9-50.6l8.8-8.8h12.2L741,803h-1.3l-6.7,37.7h1.3l-2.7,15.2h-9.1L713.7,847.2z M736.1,840.8
			h1.7l1.6-8.9h-2.6l2.7-15.1h20.7l-5.3,30.4l-8.8,8.8h-12.6L736.1,840.8z M744.5,803h-1.7l2.7-15.2h9.5l8.8,8.8l-2.7,15H743
			L744.5,803z"/>
		<path fill="#FFFFFF" d="M757.8,856l2.3-13.4h14.3l-2.3,13.4H757.8z"/>
	</g>
</g>
</svg>
