<?xml version="1.0" encoding="utf-8"?>
<!-- Generator: Adobe Illustrator 18.1.0, SVG Export Plug-In . SVG Version: 6.00 Build 0)  -->
<!DOCTYPE svg PUBLIC "-//W3C//DTD SVG 1.1//EN" "http://www.w3.org/Graphics/SVG/1.1/DTD/svg11.dtd">
<svg version="1.1" id="Layer_1" xmlns="http://www.w3.org/2000/svg" xmlns:xlink="http://www.w3.org/1999/xlink" x="0px" y="0px"
	 viewBox="0 229 800 200" enable-background="new 0 229 800 200" xml:space="preserve">
<g>
	<g>
		<path fill="#FFFFFF" d="M192.1,311.1h7.4v29.2h9.1v6.6h-16.5V311.1z"/>
		<path fill="#FFFFFF" d="M218.6,325.7h8.7v6h-8.7v9H230v6.3h-18.7v-35.8H230v6.3h-11.3V325.7z"/>
		<path fill="#FFFFFF" d="M247.4,311.1l8.1,35.8h-7.4l-1.5-7.7h-7.1l-1.5,7.7h-6.6l8.2-35.8H247.4z M243.8,323.8
			c-0.5-2.1-0.6-3.3-0.8-6c-0.3,2.4-0.5,4-0.9,5.7l-1.9,9.9h5.5L243.8,323.8z"/>
		<path fill="#FFFFFF" d="M257.7,311.1h9.2c4.8,0,6.6,0.5,8.3,2.3c2,2.1,3,4.8,3,8.3c0,4.8-1.3,7.6-4.7,9.7l5.4,15.5h-7.7l-4.1-14.1
			h-2.3v14.1h-7.2V311.1z M266.9,326.9c2.7,0,4-1.7,4-5.2c0-3.3-1.3-5-4-5h-2v10.2H266.9z"/>
		<path fill="#FFFFFF" d="M282.4,311.1h7.2l5.9,16.4c0.5,1.5,0.9,3.2,1.7,7c-0.3-3.9-0.5-8.8-0.5-10.8v-12.6h6v35.8h-6l-6.8-18.3
			c-0.8-2-1.3-4.1-2.1-7.4c0.3,4.1,0.6,9,0.6,10.6v15.1h-6V311.1z"/>
		<path fill="#FFFFFF" d="M320.8,311.1h7.4v29.2h9.1v6.6h-16.5V311.1z"/>
		<path fill="#FFFFFF" d="M340.1,311.1h7.4v35.8h-7.4V311.1z"/>
		<path fill="#FFFFFF" d="M352.9,311.1h7.4v11.7c0,0.9,0,0.9-0.2,2.9c0,0.2-0.1,0.8-0.1,1.3c0.5-1.8,1.1-3.5,1.3-4.1l5.4-11.9h7.2
			l-7.3,13.3l8.3,22.6h-7.6l-5-16.2l-2.1,4.8v11.4h-7.4V311.1z"/>
		<path fill="#FFFFFF" d="M385.2,325.7h8.7v6h-8.7v9h11.3v6.3h-18.7v-35.8h18.7v6.3h-11.3V325.7z"/>
		<path fill="#FFFFFF" d="M425.2,311.1l8.1,35.8h-7.4l-1.5-7.7h-7.1l-1.4,7.7h-6.6l8.2-35.8H425.2z M421.6,323.8
			c-0.5-2.1-0.6-3.3-0.8-6c-0.3,2.4-0.5,4-0.9,5.7l-1.9,9.9h5.5L421.6,323.8z"/>
	</g>
	<g>
		<path fill="#FFFFFF" d="M461.8,294.3H480L468,362.5h-18.2L461.8,294.3z M481.9,294.3h11.7l8.8,8.8l-5.1,28.5l-8.8,8.8h-14.7
			l2.5-13.9h4l3.2-18.3h-3.9L481.9,294.3z"/>
		<path fill="#FFFFFF" d="M508.8,294.3H527L515,362.5h-18.2L508.8,294.3z M521.2,337.8l2.7-15.1h4l2.6-14.4h-4l2.5-13.9h11.8
			l8.8,8.8l-4.1,23.1l-8.4,8.4l3.2,13.2h3.3l-2.6,14.6h-14.9L521.2,337.8z"/>
		<path fill="#FFFFFF" d="M545.8,353.7l8.9-50.6l8.8-8.8H576l-2.7,15.2h-1.6l-6.7,37.7h1.6l-2.7,15.2h-9.4L545.8,353.7z
			 M568.5,347.3h1.5l6.7-37.7h-1.5l2.7-15.2h9.3l8.8,8.8l-8.9,50.6l-8.8,8.8h-12.4L568.5,347.3z"/>
		<path fill="#FFFFFF" d="M590.1,362.5l2.3-13.4h14.3l-2.3,13.4H590.1z"/>
	</g>
</g>
</svg>
