<?xml version="1.0" encoding="utf-8"?>
<!-- Generator: Adobe Illustrator 18.1.0, SVG Export Plug-In . SVG Version: 6.00 Build 0)  -->
<!DOCTYPE svg PUBLIC "-//W3C//DTD SVG 1.1//EN" "http://www.w3.org/Graphics/SVG/1.1/DTD/svg11.dtd">
<svg version="1.1" id="Layer_1" xmlns="http://www.w3.org/2000/svg" xmlns:xlink="http://www.w3.org/1999/xlink" x="0px" y="0px"
	 viewBox="0 229 800 200" enable-background="new 0 229 800 200" xml:space="preserve">
<g>
	<path fill="#3F2727" d="M1.8,82.4h9.8c5.1,0,6.2,0.2,7.9,1.6c2.1,1.7,3.2,4.3,3.2,7.8c0,4.3-1.3,6.5-4.4,7.8
		c1.8,0.7,2.7,1.2,3.6,2.4c1.2,1.7,2,4.1,2,6.7c0,3-1,5.7-2.8,7.6c-1.6,1.6-3.9,2.2-8,2.2H1.8V82.4z M11.6,97c2.7,0,4-1.2,4-4.1
		c0-3-1.4-4.7-4-4.7H8.9v8.7L11.6,97L11.6,97z M11.8,112.4c3.1,0,4.4-1.3,4.4-4.8c0-1.9-0.6-3.4-1.4-4.3c-0.7-0.5-1.3-0.7-3.2-0.7
		H8.9v9.7H11.8z"/>
	<path fill="#3F2727" d="M34.4,82.4v22.9c0,5.5,0.9,7,3.9,7c1.2,0,2.1-0.6,2.6-1.6c0.6-0.9,0.7-2.4,0.7-5.9V82.4h6.2v22.5
		c0,6.3-0.9,9.6-3,11.7c-1.7,1.6-4.1,2.4-7.4,2.4c-7.7,0-10.5-3.6-10.5-13.3V82.4H34.4z"/>
	<path fill="#3F2727" d="M52.9,82.4h7.4v35.9h-7.4V82.4z"/>
	<path fill="#3F2727" d="M65.6,82.4H73v29.3h9.2v6.6H65.6V82.4z"/>
	<path fill="#3F2727" d="M84.7,82.4h6.9c5.5,0,7.9,0.6,10.3,2.5c3.3,2.7,5.1,7.9,5.1,15c0,7.8-1.8,13.2-5.5,16.2
		c-2,1.6-4.1,2.3-7.2,2.3h-9.6V82.4z M94.1,112.1c1.8,0,3-0.5,3.7-1.4c0.9-1.6,1.4-4.8,1.4-10.1c0-4.8-0.5-8.3-1.3-9.9
		c-0.7-1.2-1.9-1.8-3.8-1.8h-2.2v23.4L94.1,112.1L94.1,112.1z"/>
	<path fill="#3F2727" d="M128.1,103.6l-7.2-21.2h7.8l3.1,11.4c0.5,1.6,0.6,3.2,0.7,5.7c0.2-2.5,0.5-4,0.9-5.7l3.4-11.4h6.6
		l-7.9,21.2v14.8h-7.4L128.1,103.6L128.1,103.6z"/>
	<path fill="#3F2727" d="M166.2,100.8c0,12.5-3.6,18.3-11.3,18.3c-7.6,0-11.2-6.1-11.2-18.7c0-12.6,3.6-18.3,11.4-18.3
		C162.6,81.9,166.2,88,166.2,100.8z M151.6,100.5c0,9.5,0.8,12,3.4,12c2.8,0,3.4-2.1,3.4-12.6c0-9.1-0.8-11.6-3.3-11.6
		C152.2,88.4,151.6,90.8,151.6,100.5z"/>
	<path fill="#3F2727" d="M177.5,82.4v22.9c0,5.5,0.9,7,3.9,7c1.2,0,2.1-0.6,2.6-1.6c0.6-0.9,0.7-2.4,0.7-5.9V82.4h6.2v22.5
		c0,6.3-0.9,9.6-3,11.7c-1.7,1.6-4.1,2.4-7.4,2.4c-7.7,0-10.5-3.6-10.5-13.3V82.4H177.5z"/>
	<path fill="#3F2727" d="M195.9,82.4h9.3c4.8,0,6.6,0.5,8.3,2.4c2,2.1,2.9,4.8,2.9,8.3c0,4.8-1.3,7.6-4.7,9.7l5.5,15.6h-7.8
		l-4.1-14.1h-2.3v14.1h-7.2L195.9,82.4L195.9,82.4z M205.2,98.4c2.7,0,4-1.7,4-5.2c0-3.3-1.3-5-4-5h-2.1v10.2H205.2z"/>
	<path fill="#3F2727" d="M230.5,82.4h7.8l2,17c0.3,2.9,0.6,5.2,0.7,9.4c0.2-3.2,0.6-6.6,1.2-10.3l2.6-16h6.6l2.8,16.8
		c0.3,2,0.5,3,0.9,9.6c0.3-5.1,0.5-8,0.9-10.3l2.2-16h6.3l-6.5,35.9h-6.5l-3-17.6c-0.6-3.6-0.9-5.6-0.9-8.1
		c-0.3,2.8-0.7,6.1-0.9,8.1l-3,17.6h-6.4L230.5,82.4z"/>
	<path fill="#3F2727" d="M279.1,82.4l8.1,35.9h-7.5l-1.4-7.8h-7.1l-1.4,7.8h-6.6l8.2-35.9C271.4,82.4,279.1,82.4,279.1,82.4z
		 M275.6,95.3c-0.5-2.2-0.6-3.3-0.8-6.1c-0.3,2.4-0.6,4-0.9,5.7l-2,9.9h5.6L275.6,95.3z"/>
	<path fill="#3F2727" d="M291.9,103.6l-7.2-21.2h7.8l3.1,11.4c0.5,1.6,0.6,3.2,0.7,5.7c0.2-2.5,0.5-4,0.9-5.7l3.4-11.4h6.6
		l-7.9,21.2v14.8h-7.4L291.9,103.6L291.9,103.6z"/>
	<path fill="#3F2727" d="M332.9,118.4h-7.4V89.2h-5.9v-6.8H339v6.8h-6.1V118.4z"/>
	<path fill="#3F2727" d="M363,100.8c0,12.5-3.6,18.3-11.3,18.3c-7.6,0-11.2-6.1-11.2-18.7c0-12.6,3.6-18.3,11.4-18.3
		C359.4,81.9,363,88,363,100.8z M348.4,100.5c0,9.5,0.8,12,3.4,12c2.8,0,3.4-2.1,3.4-12.6c0-9.1-0.8-11.6-3.3-11.6
		C349,88.4,348.4,90.8,348.4,100.5z"/>
</g>
<g>
	<path fill="#3F2727" d="M385.5,125.2l8.9-50.9l8.8-8.8h12.3l-2.6,15.3h-1.3l-6.7,37.9h1.3l-2.6,15.2h-9.2L385.5,125.2z M408,118.7
		h1.7l1.6-9h-2.6l2.6-15.2h20.8l-5.4,30.5l-8.8,8.8h-12.7L408,118.7z M416.5,80.8h-1.7l2.6-15.3h9.6l8.8,8.8l-2.6,15.1h-18.3
		L416.5,80.8z"/>
	<path fill="#3F2727" d="M442.9,65.6h18.3L449.1,134h-18.3L442.9,65.6z M455.3,109.3L458,94h4l2.6-14.5h-4l2.5-14h11.8l8.8,8.8
		l-4.1,23.3l-8.4,8.4l3.2,13.3h3.3l-2.6,14.7h-15L455.3,109.3z"/>
	<path fill="#3F2727" d="M491.2,65.6h18.3L497.3,134h-18.3L491.2,65.6z M502,118.2h15l-2.8,15.9h-15L502,118.2z M506.9,90.8h12.7
		l-2.8,16H504L506.9,90.8z M511.3,65.6h14.5L523,81.5h-14.5L511.3,65.6z"/>
	<path fill="#3F2727" d="M538,65.6h10.4l-1.8,21.9L534,134h-17.5L538,65.6z M543.2,107h3.7l3.4-41.5h14.8L563,134h-18.3l0.9-11.5
		H539L543.2,107z"/>
	<path fill="#3F2727" d="M572.7,65.6h39.8L609.6,82h-39.9L572.7,65.6z M580.2,83.9h18.3l-8.9,50.1h-18.3L580.2,83.9z"/>
	<path fill="#3F2727" d="M615.2,74.3l9.7,35.5l-4.4,24.3h-16L615.2,74.3z M615.9,70.8l0.9-5.3h16l16.7,63.3l-0.9,5.3h-15.5
		L615.9,70.8z M640.5,88.7l4.4-23.2h15.9l-10.4,59.2L640.5,88.7z"/>
	<path fill="#3F2727" d="M666.9,65.6h18.3L673,134h-18.3L666.9,65.6z M677.6,118.2h15l-2.8,15.9h-15L677.6,118.2z M682.5,90.8h12.7
		l-2.8,16h-12.7L682.5,90.8z M687,65.6h14.5l-2.7,15.9h-14.5L687,65.6z"/>
	<path fill="#3F2727" d="M695.1,125.2l2.6-14.8h18.3l-1.5,8.3h1.2L713,134h-9.1L695.1,125.2z M717.5,118.7h1.1l1.6-9.4l-13.6-4
		l-6.8-6.8l4.3-24.2l8.8-8.8h11.9l-2.6,15.3h-1l-1.7,9.5l13.7,4l6.8,6.8l-4.3,24.1L727,134h-12.1L717.5,118.7z M725.1,80.8h-1
		l2.6-15.3h8.8l8.8,8.8L741.7,89h-18.3L725.1,80.8z"/>
	<path fill="#3F2727" d="M739.4,125.2l2.6-14.8h18.3l-1.5,8.3h1.2l-2.7,15.2h-9.1L739.4,125.2z M761.8,118.7h1.1l1.6-9.4l-13.6-4
		l-6.8-6.8l4.3-24.2l8.8-8.8h11.9l-2.6,15.3h-1l-1.7,9.5l13.7,4l6.8,6.8l-4.2,24.1l-8.8,8.8h-12.1L761.8,118.7z M769.4,80.8h-1
		l2.6-15.3h8.8l8.8,8.8L786,89h-18.2L769.4,80.8z"/>
	<path fill="#3F2727" d="M782.5,134l2.3-13.5h14.4l-2.3,13.5H782.5z"/>
</g>
<g>
	<text transform="matrix(1 0 0 1 189.3145 346.9141)" font-family="'FranklinGothicURWCom-Dem'" font-size="53.7074">LEARN LIKE A</text>
	
		<text transform="matrix(1 0 0 1 450.8643 362.4795)" fill="#3F2727" font-family="'UnitedItalicCond-Stencil'" font-size="98.7783">PRO.</text>
</g>
<g>
	<text transform="matrix(1 0 0 1 14.4298 575.4141)" font-family="'FranklinGothicURWCom-Dem'" font-size="53.7074">THE PROOF IS IN</text>
	
		<text transform="matrix(1 0 0 1 322.7943 590.9795)" fill="#3F2727" font-family="'UnitedItalicCond-Stencil'" font-size="98.7783">THE RESULTS.</text>
</g>
<g>
	<text transform="matrix(1 0 0 1 13.8358 840.4141)" font-family="'FranklinGothicURWCom-Dem'" font-size="53.7074">OPPORTUNITY IS</text>
	
		<text transform="matrix(1 0 0 1 327.2003 855.9795)" fill="#3F2727" font-family="'UnitedItalicCond-Stencil'" font-size="98.7783">EVERYTHING.</text>
</g>
</svg>
