<?xml version="1.0" encoding="utf-8"?>
<!-- Generator: Adobe Illustrator 18.1.0, SVG Export Plug-In . SVG Version: 6.00 Build 0)  -->
<!DOCTYPE svg PUBLIC "-//W3C//DTD SVG 1.1//EN" "http://www.w3.org/Graphics/SVG/1.1/DTD/svg11.dtd">
<svg version="1.1" id="Layer_1" xmlns="http://www.w3.org/2000/svg" xmlns:xlink="http://www.w3.org/1999/xlink" x="0px" y="0px"
	 viewBox="0 0 215 62.1" enable-background="new 0 0 215 62.1" xml:space="preserve">
<g>
	<path fill="#C60101" d="M0,53.3l2-11H22l-0.9,5.6h7.1l-2.5,14.2H8.8L0,53.3z M3.9,31.6l4-22.5L16.9,0h19.8l-2.5,14.2h-7.1l-2,11
		h14.4l-1.8,10.3l-3.9,3.8H11.5L3.9,31.6z M30.1,47.9h7.2l5.9-33.7h-7.2L38.6,0h16.7l9,8.9l-7.8,44.2l-8.9,9h-20L30.1,47.9z"/>
	<path fill="#C60101" d="M65.8,48.7h14.9l-2.3,13.4H63.4L65.8,48.7z M70.6,21.2h15l-2.4,13.5H68.2L70.6,21.2z"/>
	<path fill="#C60101" d="M88.4,52.8L96,9.3l9.3-9.3h19.5l-2.7,14.8h-6.9l-5.8,32.4h7l-2.6,14.8H97.7L88.4,52.8z M118.3,47.2h6.9
		l5.8-32.4H124L126.6,0h16l9.4,9.3l-7.6,43.6l-9.4,9.3h-19.3L118.3,47.2z"/>
	<path fill="#C60101" d="M151.4,52.8L159,9.3l9.3-9.3h19.5l-2.7,14.8h-6.9l-5.8,32.4h7l-2.6,14.8h-16.1L151.4,52.8z M181.3,47.2h6.9
		l5.8-32.4H187L189.6,0h16l9.4,9.3l-7.6,43.6l-9.4,9.3h-19.3L181.3,47.2z"/>
</g>
</svg>
