<?xml version="1.0" encoding="utf-8"?>
<!-- Generator: Adobe Illustrator 18.1.0, SVG Export Plug-In . SVG Version: 6.00 Build 0)  -->
<!DOCTYPE svg PUBLIC "-//W3C//DTD SVG 1.1//EN" "http://www.w3.org/Graphics/SVG/1.1/DTD/svg11.dtd">
<svg version="1.1" id="Layer_1" xmlns="http://www.w3.org/2000/svg" xmlns:xlink="http://www.w3.org/1999/xlink" x="0px" y="0px"
	 viewBox="0 0 85.8 89" enable-background="new 0 0 85.8 89" xml:space="preserve">
<g>
	<path fill="#FFFFFF" d="M1,26.9h17.5V89H1V26.9z M20.3,50.3H24V26.9h17.5V89H24V67.9h-3.7V50.3z"/>
	<path fill="#FFFFFF" d="M46,80.5V67.3h17.5v7.3h1.2V89H54.6L46,80.5z M66.7,74.6h1.2v-8.9H53.3l-7-7V35.5l8.5-8.5H65v14.4h-1.2v8.5
		h14.6l7,7v23.7L76.9,89H66.7V74.6z M67.9,41.3h-1.2V26.9h10.2l8.5,8.5v12.6H67.9V41.3z"/>
</g>
<g>
	<path fill="#FFFFFF" d="M6,10.6h1.7v2.1H1.6v-2.1h1.9V3.7c-0.7,0.8-1,1.1-1.9,1.6V2.9c0.9-0.6,1.6-1.2,2.5-2.3H6V10.6z"/>
	<path fill="#FFFFFF" d="M9.8,9.9v-2l3.6-7.2h2.3v7.2h1.2v2h-1.2v2.9h-2.3V9.9H9.8z M13.5,5.4c0-0.8,0.1-1.7,0.2-2.8
		c-0.3,0.9-0.5,1.4-0.8,2.2l-1.5,3.1h2V5.4z"/>
	<path fill="#FFFFFF" d="M28.4,7.3v1.9h-8.9V7.3H28.4z"/>
	<path fill="#FFFFFF" d="M35.1,10.6h1.7v2.1h-6.1v-2.1h1.9V3.7c-0.7,0.8-1,1.1-1.9,1.6V2.9c0.9-0.6,1.6-1.2,2.5-2.3h1.9V10.6z"/>
	<path fill="#FFFFFF" d="M46.2,9.4c0,2.2-1.4,3.5-3.6,3.5c-2.1,0-3.3-1.2-3.3-3.1c0-1.3,0.5-2.2,1.8-3c-1-0.7-1.4-1.6-1.4-2.9
		c0-2,1.2-3.3,3.2-3.3c1.9,0,3.2,1.2,3.2,2.9c0,1.2-0.5,2-1.5,2.6C45.5,6.7,46.2,7.9,46.2,9.4z M41.4,9.5c0,1,0.5,1.6,1.2,1.6
		c0.8,0,1.2-0.5,1.2-1.5c0-1-0.4-1.5-1.5-1.9C41.6,8.3,41.4,8.7,41.4,9.5z M43.7,3.6c0-0.8-0.3-1.4-0.9-1.4c-0.6,0-1,0.5-1,1.3
		c0,0.8,0.4,1.4,1.1,1.7C43.5,4.8,43.7,4.4,43.7,3.6z"/>
</g>
</svg>
