<?xml version="1.0" encoding="utf-8"?>
<!-- Generator: Adobe Illustrator 18.0.0, SVG Export Plug-In . SVG Version: 6.00 Build 0)  -->
<!DOCTYPE svg PUBLIC "-//W3C//DTD SVG 1.1//EN" "http://www.w3.org/Graphics/SVG/1.1/DTD/svg11.dtd">
<svg version="1.1" id="Layer_1" xmlns="http://www.w3.org/2000/svg" xmlns:xlink="http://www.w3.org/1999/xlink" x="0px" y="0px"
	 viewBox="0 0 161.2 45.4" enable-background="new 0 0 161.2 45.4" xml:space="preserve">
<g>
	<g>
		<path fill="#38A6CF" d="M29.6,38.7l5.6-31.4L41.5,1h14.2l-1.8,10.1h-5.2L44.6,35h5.1l-1.8,10.2H36L29.6,38.7z M51,35h5.1l1.3-7.7
			H47.3l1.3-7.2l2.7-2.8h15.9l5.4,5.4l-2.8,16l-6.5,6.5h-14L51,35z M60.3,11.1h-5.1L57,1h12.1l6.3,6.3L74,14.6H59.8L60.3,11.1z"/>
		<path fill="#38A6CF" d="M71.9,38.9l1.4-7.8h14.3L87,35H92l-1.8,10.1h-12L71.9,38.9z M74.7,23.4l2.8-16L84,1H98l-1.8,10.1h-5.1
			l-1.4,7.8H100l-1.3,7.3L96,28.9H80.1L74.7,23.4z M93.4,35h5.1l4.2-23.9h-5.1L99.4,1h11.9l6.4,6.3l-5.6,31.4l-6.3,6.4H91.6L93.4,35
			z"/>
		<path fill="#38A6CF" d="M114.7,38.9l1.4-7.8h14.3l-0.6,4h5.1L133,45.1h-12L114.7,38.9z M117.5,23.4l2.8-16l6.5-6.5h14.1L139,11.1
			H134l-1.4,7.8h10.2l-1.3,7.3l-2.8,2.7h-15.9L117.5,23.4z M136.2,35h5.1l4.2-23.9h-5.1L142.2,1h11.9l6.4,6.3l-5.6,31.4l-6.3,6.4
			h-14.2L136.2,35z"/>
	</g>
	<g>
		<path fill="#38A6CF" d="M0.7,28.9l0.7-4.5h9.8l-0.4,2h3l-1.3,7.1H5.2L0.7,28.9z M14.9,26.3h2.9l0.5-3L6.7,21.9l-4-4l1.4-7.7
			l4.7-4.7h8.9l-1.2,7h-2.9L13,15.5l11.7,1.4l4,3.9l-1.4,7.9l-4.6,4.7h-9L14.9,26.3z M8.6,34.3h9.1l-0.8,4.4H7.8L8.6,34.3z
			 M14.6,0.3h9l-0.7,4.4h-9.1L14.6,0.3z M20.2,12.7h-2.9l1.2-7h7.4l4.5,4.5l-0.7,4.4h-9.8L20.2,12.7z"/>
	</g>
</g>
</svg>
