<?xml version="1.0" encoding="utf-8"?>
<!-- Generator: Adobe Illustrator 18.1.0, SVG Export Plug-In . SVG Version: 6.00 Build 0)  -->
<!DOCTYPE svg PUBLIC "-//W3C//DTD SVG 1.1//EN" "http://www.w3.org/Graphics/SVG/1.1/DTD/svg11.dtd">
<svg version="1.1" id="Layer_1" xmlns="http://www.w3.org/2000/svg" xmlns:xlink="http://www.w3.org/1999/xlink" x="0px" y="0px"
	 viewBox="0 0 245 198" enable-background="new 0 0 245 198" xml:space="preserve">
<g>
	<rect x="16.7" y="102.6" fill="#FFFFFF" width="22.6" height="40.8"/>
	<polygon fill="#FFFFFF" points="39.2,57.3 0.2,57.3 0.2,75.8 16.7,75.8 16.7,98.3 39.2,98.3 	"/>
	<path fill="#FFFFFF" d="M96.9,75.6c12,0,21.4,8.5,22.2,22.7h23.6c-1-25.2-22.4-42.4-45.7-42.4c-23.1,0-44.6,17.3-45.6,42.4h23.6
		C75.7,84.1,85.1,75.6,96.9,75.6z"/>
	<path fill="#FFFFFF" d="M96.9,125c-11.7,0-21-8.6-22-22.5H51.3c1.3,24.8,22.6,42.2,45.6,42.2c23.1,0,44.4-17.5,45.7-42.2H119
		C118.1,116.5,108.7,125,96.9,125z"/>
	<path fill="#FFFFFF" d="M198.2,125c-11.7,0-21-8.6-22-22.5h-23.6c1.3,24.8,22.6,42.2,45.6,42.2c23.1,0,44.4-17.5,45.7-42.2h-23.6
		C219.4,116.5,210.1,125,198.2,125z"/>
	<path fill="#FFFFFF" d="M198.2,75.6c12,0,21.4,8.5,22.2,22.7H244c-1-25.2-22.4-42.4-45.7-42.4c-23.1,0-44.6,17.3-45.6,42.4h23.6
		C177,84.1,186.4,75.6,198.2,75.6z"/>
</g>
<g>
	<g>
		<path fill="#FFFFFF" d="M71.2,27.9c-2.1,0.2-3.1,0.3-5.2,0.5c-0.8-8.2-1.3-12.3-2.1-20.5c-1.7,0.2-2.6,0.3-4.3,0.5
			c-0.2-1.9-0.3-2.9-0.5-4.8c5.7-0.6,8.5-0.9,14.2-1.4c0.2,1.9,0.2,2.9,0.4,4.8c-1.8,0.2-2.7,0.2-4.4,0.4
			C70.1,15.6,70.5,19.7,71.2,27.9z"/>
		<path fill="#FFFFFF" d="M90.2,11c-0.2-4-0.4-6-0.6-10c2.2-0.1,3.3-0.2,5.5-0.3c0.5,10.2,0.8,15.2,1.3,25.4
			c-2.1,0.1-3.1,0.2-5.2,0.3c-0.3-4.4-0.4-6.6-0.7-10.9c-1.6,0.1-2.4,0.1-3.9,0.2c0.3,4.4,0.4,6.6,0.7,10.9
			c-2.1,0.1-3.1,0.2-5.2,0.4c-0.8-10.1-1.1-15.2-1.9-25.4c2.2-0.2,3.3-0.2,5.5-0.4c0.3,4,0.4,6,0.7,10C87.8,11.2,88.6,11.1,90.2,11z
			"/>
		<path fill="#FFFFFF" d="M109.6,10.5c2.5-0.1,3.8-0.1,6.3-0.1c0,1.7,0,2.5,0.1,4.2c-2.5,0-3.8,0.1-6.3,0.1c0.1,2.5,0.1,3.8,0.2,6.4
			c3.2-0.1,4.8-0.1,8.1-0.2c0,1.8,0,2.7,0.1,4.5c-5.3,0.1-8,0.1-13.3,0.3c-0.4-10.2-0.6-15.2-0.9-25.4c5.5-0.2,8.3-0.3,13.8-0.3
			c0,1.8,0,2.7,0.1,4.5c-3.3,0-5,0.1-8.3,0.2C109.5,7,109.6,8.2,109.6,10.5z"/>
		<path fill="#FFFFFF" d="M143.2,25.6c-2.1-0.1-3.1-0.1-5.2-0.1c0.2-8.2,0.3-12.4,0.4-20.6c-1.7,0-2.6-0.1-4.3-0.1
			c0-1.9,0-2.9,0.1-4.8c5.7,0.1,8.6,0.2,14.3,0.4c-0.1,1.9-0.1,2.9-0.2,4.8c-1.8-0.1-2.7-0.1-4.4-0.1
			C143.6,13.3,143.5,17.4,143.2,25.6z"/>
		<path fill="#FFFFFF" d="M170.1,14.5c-0.6,7.5-2.7,12.7-9,12.3c-4-0.2-5.3-2.7-5.6-3.2c-1.5-2.7-1.8-6.5-1.7-10.6
			c0.4-7.8,2.7-12.7,9-12.3C169.2,1.1,170.6,6.8,170.1,14.5z M160.4,6.7c-0.5,1.2-0.8,4-1,7.2c-0.1,2.2-0.3,4.6,0.1,6.5
			c0.2,1,0.6,1.9,1.9,2c1.4,0.1,1.9-0.8,2.2-2.1c0.4-1.7,0.7-6.2,0.7-6.5c0.1-1.6,0.3-5.1-0.1-6.7c-0.4-1.3-0.9-1.7-2-1.8
			C161.6,5.2,160.9,5.6,160.4,6.7z"/>
		<path fill="#FFFFFF" d="M177.4,2.1c2.7,0.2,4,0.3,6.6,0.6c2.5,0.2,5.1,0.5,6.6,3.1c1,1.8,1.2,3.8,1,5.8c-0.3,2.8-1.5,5.3-3.4,6.4
			c-1.8,1-4.1,0.8-5.4,0.7c-0.6-0.1-0.9-0.1-1.5-0.1c-0.4,3.7-0.5,5.6-0.9,9.3c-2-0.2-3.1-0.3-5.1-0.5
			C176.1,17.3,176.6,12.3,177.4,2.1z M181.7,14.2c0.5,0,0.8,0.1,1.3,0.1c1.8,0.2,2.8-0.3,3.2-3.6c0.2-2-0.2-3.7-2.4-3.9
			c-0.5-0.1-0.8-0.1-1.3-0.1C182.1,9.6,182,11.1,181.7,14.2z"/>
	</g>
</g>
<g>
	<g>
		<path fill="#FFFFFF" d="M60.4,171.7c2.5,0,3.7,0,6.2,0c2.3,0,4.8,0,6.4,2.3c1.1,1.6,1.5,3.5,1.5,5.5c0,2.7-0.9,5.3-2.6,6.5
			c-1.6,1.2-3.8,1.2-5.1,1.2c-0.6,0-0.9,0-1.5,0c0,3.6,0,5.5,0,9.1c-2,0-3,0-5,0C60.4,186.5,60.4,181.6,60.4,171.7z M65.3,182.9
			c0.5,0,0.7,0,1.2,0c1.7,0,2.6-0.6,2.6-3.8c0-2-0.5-3.5-2.6-3.5c-0.5,0-0.7,0-1.2,0C65.3,178.5,65.3,180,65.3,182.9z"/>
		<path fill="#FFFFFF" d="M81.2,171.7c2,0,3,0,5.1,0c0,8,0,12.1,0,20.1c2.5,0,3.7,0,6.2,0c0,1.8,0,2.7,0,4.5c-4.5,0-6.8,0-11.3,0
			C81.2,186.5,81.2,181.6,81.2,171.7z"/>
		<path fill="#FFFFFF" d="M107.5,171.7c2.2,9.9,3.3,14.8,5.6,24.7c-2,0-3.1,0-5.1,0c-0.4-2.1-0.6-3.2-1-5.3c-2,0-2.9,0-4.9,0
			c-0.4,2.1-0.6,3.2-1,5.3c-1.8,0-2.7,0-4.5,0c2.3-9.9,3.4-14.8,5.7-24.7C104.3,171.7,105.4,171.7,107.5,171.7z M106.4,187
			c-0.5-2.6-0.8-3.9-1.4-6.6c-0.2-1-0.4-1.9-0.5-4.1c-0.1,1-0.3,2.4-0.6,3.9c-0.5,2.7-0.8,4.1-1.3,6.8
			C104.1,187,104.9,187,106.4,187z"/>
		<path fill="#FFFFFF" d="M120.5,186.2c-2-5.8-2.9-8.7-4.9-14.5c2.1,0,3.2,0,5.3,0c0.9,3.1,1.3,4.7,2.1,7.8c0.4,1.4,0.4,2.9,0.4,3.9
			c0.1-1.3,0.3-2.7,0.6-3.9c0.9-3.1,1.4-4.7,2.4-7.8c1.8,0,2.7,0,4.5,0c-2.2,5.8-3.3,8.7-5.5,14.5c0,4.1,0,6.1,0,10.1
			c-2,0-3,0-5.1,0C120.5,192.3,120.5,190.3,120.5,186.2z"/>
		<path fill="#FFFFFF" d="M142.3,181.8c2.4,0,3.6,0,6,0c0,1.6,0,2.5,0,4.1c-2.4,0-3.6,0-6,0c0,2.5,0,3.7,0,6.2c3.1,0,4.7,0,7.8,0
			c0,1.7,0,2.6,0,4.3c-5.1,0-7.7,0-12.8,0c0-9.9,0-14.8,0-24.7c5.1,0,7.7,0,12.8,0c0,1.7,0,2.6,0,4.3c-3.1,0-4.7,0-7.8,0
			C142.3,178.3,142.3,179.5,142.3,181.8z"/>
		<path fill="#FFFFFF" d="M156.8,171.7c2.5,0,3.8,0,6.4,0c2.7,0,4.2,0.1,5.5,1.3c2.3,2.1,2.3,5.1,2.3,6c0,4.7-2.1,6-3.2,6.7
			c1.5,4.3,2.2,6.4,3.7,10.7c-2.1,0-3.2,0-5.3,0c-1.1-3.9-1.7-5.8-2.8-9.7c-0.6,0-1,0-1.6,0c0,3.9,0,5.8,0,9.7c-2,0-3,0-5,0
			C156.8,186.5,156.8,181.6,156.8,171.7z M161.8,182.6c0.6,0,0.8,0,1.4,0c2,0,2.7-1.3,2.7-3.6c0-2.6-1.1-3.4-2.7-3.4
			c-0.6,0-0.8,0-1.4,0C161.8,178.4,161.8,179.8,161.8,182.6z"/>
		<path fill="#FFFFFF" d="M187,178.7c-0.6-2.4-1.7-2.9-2.8-2.9c-2,0-2.1,2-2.1,2.4c0,1.8,0.8,2.2,4.4,3.8c1.5,0.7,4.7,2.2,4.7,6.9
			c0,4.6-2.7,7.8-7.5,7.8c-5.6,0-6.8-4.3-7.2-6.7c1.6-0.6,2.4-0.8,4-1.4c0.6,2.6,1.4,3.6,3.2,3.6c2.3,0,2.5-2,2.5-2.6
			c0-1.7-1.1-2.4-2.1-2.8c-3.1-1.6-4.6-2.3-5.7-4c-0.7-1-1.1-2.6-1.1-4.1c0-3.7,2.4-7.5,6.7-7.5c5.1,0,6.3,4.3,6.7,5.7
			C189.2,177.7,188.5,178,187,178.7z"/>
	</g>
</g>
</svg>
