<?xml version="1.0" encoding="utf-8"?>
<!-- Generator: Adobe Illustrator 18.1.0, SVG Export Plug-In . SVG Version: 6.00 Build 0)  -->
<!DOCTYPE svg PUBLIC "-//W3C//DTD SVG 1.1//EN" "http://www.w3.org/Graphics/SVG/1.1/DTD/svg11.dtd">
<svg version="1.1" id="Layer_1" xmlns="http://www.w3.org/2000/svg" xmlns:xlink="http://www.w3.org/1999/xlink" x="0px" y="0px"
	 viewBox="0 0 36.5 36" enable-background="new 0 0 36.5 36" xml:space="preserve">
<g>
	<path fill="#ED1C24" d="M0,31l1.4-7.9l5.1-5.1l-3.6-3.6l1.5-8.7l5-5h11.3l-1.3,7.8h-4l-1,5.7h4L17,22.2h-4L12,28.1H16L14.6,36H4.9
		L0,31z M17.1,28.1h4l1.1-5.9h-4.1l1.4-8.1h3.9l1-5.7h-4l1.4-7.8h9.6l4.9,4.9l-1.4,7.9L30,18.6l3.6,3.6l-1.5,8.9L27.1,36H15.7
		L17.1,28.1z"/>
</g>
</svg>
