<?xml version="1.0" encoding="utf-8"?>
<!-- Generator: Adobe Illustrator 18.1.0, SVG Export Plug-In . SVG Version: 6.00 Build 0)  -->
<!DOCTYPE svg PUBLIC "-//W3C//DTD SVG 1.1//EN" "http://www.w3.org/Graphics/SVG/1.1/DTD/svg11.dtd">
<svg version="1.1" id="bftv" xmlns="http://www.w3.org/2000/svg" xmlns:xlink="http://www.w3.org/1999/xlink" x="0px" y="0px"
	 viewBox="0 256.9 700 186.3" enable-background="new 0 256.9 700 186.3" xml:space="preserve">
<g id="red">
	<path fill="#DE2122" d="M33,256.9h60.1L60.6,443.1H0L33,256.9z M73.2,401.6h39.9l5.6-31.4H78.8l7.6-42.2h39.5l5.4-30.3H91.8l7-40.8
		h69.1l26,26l-7.2,41.5L160,351.3l19.1,19.1l-8.1,46.7l-26.3,26H66L73.2,401.6z"/>
	<path fill="#DE2122" d="M222,256.9h60.1l-32.8,186.3h-60.6L222,256.9z M267.1,375.6l7.6-43.8h60.1l-7.6,43.8H267.1z M287.9,256.9
		h68.9l-8.1,44.2h-68.2L287.9,256.9z"/>
	<path fill="#DE2122" d="M365.6,256.9h156.7l-8.3,47.6H357.3L365.6,256.9z M404.6,309.8h60.1l-23.6,133.3h-60.6L404.6,309.8z"/>
	<path fill="#DE2122" d="M537.3,443.1l-10.1-186.3h61.9l2.5,186.3H537.3z M597.4,372.4l42.4-115.6H700l-74.1,186.3h-29L597.4,372.4z
		"/>
</g>
<g id="blue">
	<path fill="#292AE6" d="M33,256.9h60.1L60.6,443.1H0L33,256.9z M73.2,401.6h39.9l5.6-31.4H78.8l7.6-42.2h39.5l5.4-30.3H91.8l7-40.8
		h69.1l26,26l-7.2,41.5L160,351.3l19.1,19.1l-8.1,46.7l-26.3,26H66L73.2,401.6z"/>
	<path fill="#292AE6" d="M222,256.9h60.1l-32.8,186.3h-60.6L222,256.9z M267.1,375.6l7.6-43.8h60.1l-7.6,43.8H267.1z M287.9,256.9
		h68.9l-8.1,44.2h-68.2L287.9,256.9z"/>
	<path fill="#292AE6" d="M365.6,256.9h156.7l-8.3,47.6H357.3L365.6,256.9z M404.6,309.8h60.1l-23.6,133.3h-60.6L404.6,309.8z"/>
	<path fill="#292AE6" d="M537.3,443.1l-10.1-186.3h61.9l2.5,186.3H537.3z M597.4,372.4l42.4-115.6H700l-74.1,186.3h-29L597.4,372.4z
		"/>
</g>
<g id="white">
	<path fill="#FFFDFD" d="M33,256.9h60.1L60.6,443.1H0L33,256.9z M73.2,401.6h39.9l5.6-31.4H78.8l7.6-42.2h39.5l5.4-30.3H91.8l7-40.8
		h69.1l26,26l-7.2,41.5L160,351.3l19.1,19.1l-8.1,46.7l-26.3,26H66L73.2,401.6z"/>
	<path fill="#FFFDFD" d="M222,256.9h60.1l-32.8,186.3h-60.6L222,256.9z M267.1,375.6l7.6-43.8h60.1l-7.6,43.8H267.1z M287.9,256.9
		h68.9l-8.1,44.2h-68.2L287.9,256.9z"/>
	<path fill="#FFFDFD" d="M365.6,256.9h156.7l-8.3,47.6H357.3L365.6,256.9z M404.6,309.8h60.1l-23.6,133.3h-60.6L404.6,309.8z"/>
	<path fill="#FFFDFD" d="M537.3,443.1l-10.1-186.3h61.9l2.5,186.3H537.3z M597.4,372.4l42.4-115.6H700l-74.1,186.3h-29L597.4,372.4z
		"/>
</g>
</svg>
