<?xml version="1.0" encoding="utf-8"?>
<!-- Generator: Adobe Illustrator 18.1.0, SVG Export Plug-In . SVG Version: 6.00 Build 0)  -->
<!DOCTYPE svg PUBLIC "-//W3C//DTD SVG 1.1//EN" "http://www.w3.org/Graphics/SVG/1.1/DTD/svg11.dtd">
<svg version="1.1" id="Layer_1" xmlns="http://www.w3.org/2000/svg" xmlns:xlink="http://www.w3.org/1999/xlink" x="0px" y="0px"
	 viewBox="0 0 213 62.1" enable-background="new 0 0 213 62.1" xml:space="preserve">
<g>
	<path fill="#C60101" d="M0,53.3l2-11H22l-0.9,5.6h7.1l-2.5,14.2H8.8L0,53.3z M3.9,31.6l4-22.5L16.9,0h19.8l-2.5,14.2h-7.1l-2,11
		h14.4l-1.8,10.3l-3.9,3.8H11.5L3.9,31.6z M30.1,47.9h7.2l5.9-33.7h-7.2L38.6,0h16.7l9,8.9l-7.8,44.2l-8.9,9h-20L30.1,47.9z"/>
	<path fill="#C60101" d="M65.8,48.7h14.9l-2.3,13.4H63.4L65.8,48.7z M70.6,21.2h15l-2.4,13.5H68.2L70.6,21.2z"/>
	<path fill="#C60101" d="M88.9,35.1L106.1,0h18.4l-13.3,31.7h10.3l-2.7,15.6H86.8L88.9,35.1z M128.9,0H149l-5.7,31.7h5.8l-2.7,15.6
		h-5.8l-2.6,14.8H118L128.9,0z"/>
	<path fill="#C60101" d="M150.7,53.3l2-11.3h20.2l-1.1,5.8h6l-2.5,14.3h-15.8L150.7,53.3z M160,0h53l-2.7,15h-32.8l-3.5,19.7
		l-2.3,2.3h-18.2L160,0z M179.6,47.8h6l2.5-13.5h-12.2l2-10.8l3.8-3.8h20.7l7.1,7.1L204.8,53l-9.1,9.1h-18.6L179.6,47.8z"/>
</g>
</svg>
