<?xml version="1.0" encoding="utf-8"?>
<!-- Generator: Adobe Illustrator 18.1.0, SVG Export Plug-In . SVG Version: 6.00 Build 0)  -->
<!DOCTYPE svg PUBLIC "-//W3C//DTD SVG 1.1//EN" "http://www.w3.org/Graphics/SVG/1.1/DTD/svg11.dtd">
<svg version="1.1" id="Layer_1" xmlns="http://www.w3.org/2000/svg" xmlns:xlink="http://www.w3.org/1999/xlink" x="0px" y="0px"
	 viewBox="0 0 62.4 36" enable-background="new 0 0 62.4 36" xml:space="preserve">
<g>
	<path fill="#ED1C24" d="M1.5,27.6h6.1L10.8,9H4.8l1.5-8.4h17.5l-4.8,27h6.2L23.7,36H0L1.5,27.6z"/>
	<path fill="#ED1C24" d="M29.9,19.6l4.6-4.6h14.8l1.1-6.4h-3.1l1.4-8.1h8.5l5.2,5.2l-2.4,13.6L55.4,24H40.6l-2.1,12H27L29.9,19.6z
		 M32.1,5.6l5-5h10.5l-1.4,8.1H43l-0.7,3.7H30.9L32.1,5.6z M41.1,27.5h17.5L57,36H39.6L41.1,27.5z"/>
</g>
</svg>
