<?xml version="1.0" encoding="utf-8"?>
<!-- Generator: Adobe Illustrator 18.1.0, SVG Export Plug-In . SVG Version: 6.00 Build 0)  -->
<!DOCTYPE svg PUBLIC "-//W3C//DTD SVG 1.1//EN" "http://www.w3.org/Graphics/SVG/1.1/DTD/svg11.dtd">
<svg version="1.1" id="Layer_1" xmlns="http://www.w3.org/2000/svg" xmlns:xlink="http://www.w3.org/1999/xlink" x="0px" y="0px"
	 viewBox="0 0 356.4 46.9" enable-background="new 0 0 356.4 46.9" xml:space="preserve">
<g>
	<path fill="#C6191A" d="M8.2,0h18.2l-8.3,46.9H0L8.2,0z M36,32H22.2l2.2-11.8h18.2l1.6-9.2H26L27.9,0h27.2l7.8,7.8l-2.2,12.5
		l-8.3,8.4l2,6.3h5.3l-2.1,12H40.6L36,32z"/>
	<path fill="#C6191A" d="M64.1,38.8l5.4-30.7L77.6,0H99l-2.2,12h-9.9l-4,22.8h9.9l-2.1,12.1H72.2L64.1,38.8z M94.4,34.8h9.9l4-22.8
		h-9.9l2.2-12h18.4l8.1,8.1l-5.4,30.7l-8.1,8.1H92.2L94.4,34.8z"/>
	<path fill="#C6191A" d="M127.3,39.6l1.4-8h18.2l-0.7,3.7h8.8l-2.1,11.7h-18.3L127.3,39.6z M156.5,35.2h8.8l0.8-4.8l-28.6-2.4
		l-6.8-6.8l2.4-13.4l7.8-7.8h20.3l-2,11.6h-8.5l-0.9,4.7l28.6,2.5l6.7,6.7l-2.3,13.7l-7.8,7.8h-20.5L156.5,35.2z M169.4,11.6h-8.6
		l2-11.6h18.1l7.3,7.3l-1.3,7.5h-18.1L169.4,11.6z"/>
	<path fill="#C6191A" d="M191.8,0h52.8l-2.2,12.6h-52.8L191.8,0z M206.6,14.2h18.2L219,46.9h-18.2L206.6,14.2z"/>
	<path fill="#C6191A" d="M247.6,0h18.2l-8.3,46.9h-18.1L247.6,0z M261,35.5h27.5l-2,11.4h-27.5L261,35.5z M264.2,17.3h24.2l-2,11.4
		h-24.1L264.2,17.3z M267.3,0h27.2l-2,11.4h-27.1L267.3,0z"/>
	<path fill="#C6191A" d="M301.8,0h18.2l-8.3,46.9h-18.1L301.8,0z M329.6,32h-13.8l2.2-11.8h18.2l1.6-9.2h-18.2L321.4,0h27.2l7.8,7.8
		l-2.2,12.5l-8.3,8.4l2,6.3h5.3l-2.1,12h-16.9L329.6,32z"/>
</g>
</svg>
