<?xml version="1.0" encoding="utf-8"?>
<!-- Generator: Adobe Illustrator 18.1.0, SVG Export Plug-In . SVG Version: 6.00 Build 0)  -->
<!DOCTYPE svg PUBLIC "-//W3C//DTD SVG 1.1//EN" "http://www.w3.org/Graphics/SVG/1.1/DTD/svg11.dtd">
<svg version="1.1" id="Layer_1" xmlns="http://www.w3.org/2000/svg" xmlns:xlink="http://www.w3.org/1999/xlink" x="0px" y="0px"
	 viewBox="0 0 559.1 62.1" enable-background="new 0 0 559.1 62.1" xml:space="preserve">
<g>
	<path fill="#FFFFFF" d="M11,0H31L20.2,62.1H0L11,0z M24.6,47.3H49l-2.5,14.8H22L24.6,47.3z M28.9,22.9h21.2l-2.6,14.8H26.3
		L28.9,22.9z M32.9,0h24l-2.6,14.8H30.4L32.9,0z"/>
	<path fill="#FFFFFF" d="M49.1,62.1l20.2-31.7l12.3,11.5l-10,20.2H49.1z M87.6,62.1l-4.7-21.3L70.3,29.1L62.4,0h21.8l3.1,20.2
		l12.5,10.2l9.2,31.8H87.6z M88.6,19.2L98,0h21.9l-19.2,29L88.6,19.2z"/>
	<path fill="#FFFFFF" d="M124.7,0h20.1l-10.9,62.1h-20.2L124.7,0z M146.7,0h22.9l9.1,9.1l-4.4,25l-9.1,9.1H139l2.4-13.9h13.6
		l2.7-15.7h-13.4L146.7,0z"/>
	<path fill="#FFFFFF" d="M187,0h20.1l-10.9,62.1H176L187,0z M200.6,47.3H225l-2.5,14.8H198L200.6,47.3z M204.9,22.9h21.2l-2.6,14.8
		h-21.2L204.9,22.9z M209,0h24l-2.6,14.8h-23.9L209,0z"/>
	<path fill="#FFFFFF" d="M241,0h20.1l-10.9,62.1H230L241,0z M264.4,40.9h-8.6l2.6-14.7h13.3l2.2-12.6h-13.4L263,0h22.8l9.1,9.1
		L291.5,28l-9.3,9.3l2.8,10.3h4.9l-2.6,14.5h-17.8L264.4,40.9z"/>
	<path fill="#FFFFFF" d="M304.9,0H325l-11,62.1h-20.1L304.9,0z"/>
	<path fill="#FFFFFF" d="M334,0h20.1l-10.9,62.1H323L334,0z M347.6,47.3H372l-2.5,14.8H345L347.6,47.3z M351.9,22.9h21.2l-2.6,14.8
		h-21.2L351.9,22.9z M355.9,0h24l-2.6,14.8h-23.9L355.9,0z"/>
	<path fill="#FFFFFF" d="M388.1,0h1.3l10.3,34.8l-4.9,27.3H377L388.1,0z M391.1,0h19.3l18.4,62.1h-19.2L391.1,0z M420.3,26.5
		L425.2,0h17.6l-10.9,62.1h-1.2L420.3,26.5z"/>
	<path fill="#FFFFFF" d="M441.4,52.8L449,9.3l9.3-9.3h19.1l-2.6,14.8h-6.6l-5.8,32.4h6.6l-2.6,14.8h-15.7L441.4,52.8z M470.9,47.2
		h6.6l1.7-9.7h20.2l-2.8,15.3l-9.3,9.3h-19L470.9,47.2z M483.2,14.8h-6.6L479.2,0h15.7l9.3,9.3l-2.5,15.1h-20.2L483.2,14.8z"/>
	<path fill="#FFFFFF" d="M513.1,0h20.1l-10.9,62.1h-20.2L513.1,0z M526.7,47.3h24.4l-2.5,14.8h-24.5L526.7,47.3z M531,22.9h21.2
		l-2.6,14.8h-21.2L531,22.9z M535,0h24l-2.6,14.8h-23.9L535,0z"/>
</g>
</svg>
