<?xml version="1.0" encoding="utf-8"?>
<!-- Generator: Adobe Illustrator 18.0.0, SVG Export Plug-In . SVG Version: 6.00 Build 0)  -->
<!DOCTYPE svg PUBLIC "-//W3C//DTD SVG 1.1//EN" "http://www.w3.org/Graphics/SVG/1.1/DTD/svg11.dtd">
<svg version="1.1" id="Layer_1" xmlns="http://www.w3.org/2000/svg" xmlns:xlink="http://www.w3.org/1999/xlink" x="0px" y="0px"
	 viewBox="0 0 159.3 45.7" enable-background="new 0 0 159.3 45.7" xml:space="preserve">
<g>
	<g>
		<path fill="#38A6CF" d="M29.5,26.1l12.2-25h13.1l-9.5,22.5h7.3l-1.9,11.1H28L29.5,26.1z M57.9,1.1h14.3l-4,22.5h4.1l-1.9,11.1
			h-4.1l-1.9,10.6H50.2L57.9,1.1z"/>
		<path fill="#38A6CF" d="M70.6,39l1.4-7.8h14.3l-0.6,4h5.1l-1.8,10.1h-12L70.6,39z M73.4,23.6l2.8-16l6.5-6.5h14.1l-1.8,10.1h-5.1
			l-1.4,7.8h10.2l-1.3,7.3L94.7,29H78.8L73.4,23.6z M92.1,35.2h5.1l4.2-23.9h-5.1l1.8-10.1H110l6.4,6.3l-5.6,31.4l-6.3,6.4H90.3
			L92.1,35.2z"/>
		<path fill="#38A6CF" d="M113.4,39l1.4-7.8h14.3l-0.6,4h5.1l-1.8,10.1h-12L113.4,39z M116.1,23.6l2.8-16l6.5-6.5h14.1l-1.8,10.1
			h-5.1l-1.4,7.8h10.2l-1.3,7.3l-2.8,2.7h-15.9L116.1,23.6z M134.8,35.2h5.1l4.2-23.9h-5.1l1.8-10.1h11.9l6.4,6.3l-5.6,31.4
			l-6.3,6.4H133L134.8,35.2z"/>
	</g>
	<g>
		<path fill="#38A6CF" d="M0.2,29l0.7-4.5h9.8l-0.4,2h3l-1.3,7.1H4.7L0.2,29z M14.4,26.5h2.9l0.5-3L6.2,22.1l-4-4l1.4-7.7l4.7-4.7
			h8.9l-1.2,7H13l-0.5,2.8L24.1,17l4,3.9l-1.4,7.9l-4.6,4.7h-9L14.4,26.5z M8.1,34.5h9.1l-0.8,4.4H7.3L8.1,34.5z M14.1,0.4h9
			l-0.7,4.4h-9.1L14.1,0.4z M19.7,12.9h-2.9l1.2-7h7.4l4.5,4.5l-0.7,4.4h-9.8L19.7,12.9z"/>
	</g>
</g>
</svg>
