<?xml version="1.0" encoding="utf-8"?>
<!-- Generator: Adobe Illustrator 18.1.0, SVG Export Plug-In . SVG Version: 6.00 Build 0)  -->
<!DOCTYPE svg PUBLIC "-//W3C//DTD SVG 1.1//EN" "http://www.w3.org/Graphics/SVG/1.1/DTD/svg11.dtd">
<svg version="1.1" id="Layer_1" xmlns="http://www.w3.org/2000/svg" xmlns:xlink="http://www.w3.org/1999/xlink" x="0px" y="0px"
	 viewBox="0 0 215.3 62" enable-background="new 0 0 215.3 62" xml:space="preserve">
<g>
	<path fill="#C60101" d="M0,53.2l2-11H22l-0.9,5.6h7.1L25.7,62H8.8L0,53.2z M3.9,31.5L7.8,9L16.9,0h19.8l-2.5,14.2h-7.1l-2,11h14.4
		l-1.8,10.3l-3.9,3.8H11.5L3.9,31.5z M30.1,47.8h7.2l5.9-33.7h-7.2L38.6,0h16.7l9,8.9L56.5,53l-8.9,9h-20L30.1,47.8z"/>
	<path fill="#C60101" d="M65.8,48.6h14.9L78.4,62H63.4L65.8,48.6z M70.6,21.2h15l-2.4,13.5H68.2L70.6,21.2z"/>
	<path fill="#C60101" d="M87.4,53.4l2.2-12.2h20.1l-1.2,6.8h7.7l-2.5,14H96L87.4,53.4z M95.3,8.6L104,0h20.5l-2.4,13.9h-7.6
		l-1.2,6.6H93.2L95.3,8.6z M118.1,48h7.7l1.8-10.3h-24.7l2.5-14.1H130l1.7-9.8H124L126.4,0H144l8.6,8.6l-2.4,13.9l-9,9l6.4,6.4
		l-2.7,15.6l-8.6,8.6h-20.7L118.1,48z"/>
	<path fill="#C60101" d="M151.6,52.8l7.6-43.6l9.3-9.3h19.5l-2.7,14.8h-6.9l-5.8,32.4h7L177.1,62H161L151.6,52.8z M181.5,47.2h6.9
		l5.8-32.4h-6.9L189.9,0h16l9.4,9.3l-7.6,43.6l-9.4,9.3h-19.3L181.5,47.2z"/>
</g>
</svg>
