<?xml version="1.0" encoding="utf-8"?>
<!-- Generator: Adobe Illustrator 18.1.0, SVG Export Plug-In . SVG Version: 6.00 Build 0)  -->
<!DOCTYPE svg PUBLIC "-//W3C//DTD SVG 1.1//EN" "http://www.w3.org/Graphics/SVG/1.1/DTD/svg11.dtd">
<svg version="1.1" id="Layer_1" xmlns="http://www.w3.org/2000/svg" xmlns:xlink="http://www.w3.org/1999/xlink" x="0px" y="0px"
	 viewBox="0 0 214.3 62.1" enable-background="new 0 0 214.3 62.1" xml:space="preserve">
<g>
	<path fill="#C60101" d="M0,53.4l2.4-13.9l9-9l-6.3-6.3L7.8,8.8L16.6,0h19.9l-2.3,13.7h-7l-1.8,10h7l-2.5,14.1h-7L21,48.2h7.1
		l-2.4,13.9h-17L0,53.4z M30,48.2h7l1.9-10.4h-7.1l2.5-14.1h6.9l1.8-10h-7L38.4,0h16.9L64,8.6l-2.4,13.9l-9,9l6.4,6.4l-2.7,15.6
		l-8.6,8.6H27.5L30,48.2z"/>
	<path fill="#C60101" d="M65.1,48.7H80l-2.3,13.4H62.7L65.1,48.7z M69.8,21.2h15l-2.4,13.5H67.5L69.8,21.2z"/>
	<path fill="#C60101" d="M87.7,52.8l7.6-43.6l9.3-9.3h19.5l-2.7,14.8h-6.9l-5.8,32.4h7l-2.6,14.8H97L87.7,52.8z M117.5,47.2h6.9
		l5.8-32.4h-6.9L125.9,0h16l9.4,9.3l-7.6,43.6l-9.4,9.3h-19.3L117.5,47.2z"/>
	<path fill="#C60101" d="M150.7,52.8l7.6-43.6l9.3-9.3h19.5l-2.7,14.8h-6.9l-5.8,32.4h7l-2.6,14.8H160L150.7,52.8z M180.5,47.2h6.9
		l5.8-32.4h-6.9L188.9,0h16l9.4,9.3l-7.6,43.6l-9.4,9.3h-19.3L180.5,47.2z"/>
</g>
</svg>
