<?xml version="1.0" encoding="utf-8"?>
<!-- Generator: Adobe Illustrator 18.1.0, SVG Export Plug-In . SVG Version: 6.00 Build 0)  -->
<!DOCTYPE svg PUBLIC "-//W3C//DTD SVG 1.1//EN" "http://www.w3.org/Graphics/SVG/1.1/DTD/svg11.dtd">
<svg version="1.1" id="Layer_1" xmlns="http://www.w3.org/2000/svg" xmlns:xlink="http://www.w3.org/1999/xlink" x="0px" y="0px"
	 viewBox="0 0 263 62.1" enable-background="new 0 0 263 62.1" xml:space="preserve">
<g>
	<path fill="#C60101" d="M2.6,47.4h10.6L19,14.7H8.4L11,0h30.7l-8.4,47.4h10.9l-2.6,14.7H0L2.6,47.4z"/>
	<path fill="#C60101" d="M48.7,52.8l7.6-43.6L65.6,0h19.5l-2.7,14.8h-6.9l-5.8,32.4h7l-2.6,14.8H58L48.7,52.8z M78.6,47.2h6.9
		l5.8-32.4h-6.9L86.9,0h16l9.4,9.3l-7.6,43.6l-9.4,9.3H76L78.6,47.2z"/>
	<path fill="#C60101" d="M113.8,48.7h14.9l-2.3,13.4h-14.9L113.8,48.7z M118.5,21.2h15l-2.4,13.5h-14.9L118.5,21.2z"/>
	<path fill="#C60101" d="M136.3,52.8L144,9.3l9.3-9.3h19.5l-2.7,14.8h-6.9l-5.8,32.4h7l-2.6,14.8h-16.1L136.3,52.8z M166.2,47.2h6.9
		l5.8-32.4H172L174.6,0h16l9.4,9.3l-7.6,43.6l-9.4,9.3h-19.3L166.2,47.2z"/>
	<path fill="#C60101" d="M199.3,52.8L207,9.3l9.3-9.3h19.5l-2.7,14.8h-6.9l-5.8,32.4h7l-2.6,14.8h-16.1L199.3,52.8z M229.2,47.2h6.9
		l5.8-32.4H235L237.6,0h16l9.4,9.3l-7.6,43.6l-9.4,9.3h-19.3L229.2,47.2z"/>
</g>
</svg>
