<?xml version="1.0" encoding="utf-8"?>
<!-- Generator: Adobe Illustrator 18.1.0, SVG Export Plug-In . SVG Version: 6.00 Build 0)  -->
<!DOCTYPE svg PUBLIC "-//W3C//DTD SVG 1.1//EN" "http://www.w3.org/Graphics/SVG/1.1/DTD/svg11.dtd">
<svg version="1.1" id="Layer_1" xmlns="http://www.w3.org/2000/svg" xmlns:xlink="http://www.w3.org/1999/xlink" x="0px" y="0px"
	 viewBox="0 0 237 89" enable-background="new 0 0 237 89" xml:space="preserve">
<g>
	<path fill="#FFFFFF" d="M0.2,26.9h17.5V89H0.2V26.9z M19.4,55.6h3.1V40.2h-3.1V26.9h12.1l8.5,8.5v24.9l-8.5,8.5H19.4V55.6z"/>
	<path fill="#FFFFFF" d="M45.9,26.9h17.5V89H45.9V26.9z M65.2,67.7V52.7h4V40.2h-4V26.9h13l8.5,8.5v22l-6.4,6.4L87.7,89H69.8
		L65.2,67.7z"/>
	<path fill="#FFFFFF" d="M90.8,26.9h17.5V89H90.8V26.9z M110.1,26.9h13.5v15.6h-13.5V26.9z M110.1,49.2h11.7v15.6h-11.7V49.2z
		 M110.1,73.4h13.7V89h-13.7V73.4z"/>
	<path fill="#FFFFFF" d="M130.5,51.3h13v12.2h-13V51.3z"/>
	<path fill="#FFFFFF" d="M151.7,26.9h17.5V89h-17.5V26.9z M170.9,50.3h3.7V26.9h17.5V89h-17.5V67.9h-3.7V50.3z"/>
	<path fill="#FFFFFF" d="M196.7,80.5V67.3h17.5v7.3h1.2V89h-10.2L196.7,80.5z M217.4,74.6h1.2v-8.9h-14.6l-7-7V35.5l8.5-8.5h10.2
		v14.4h-1.2v8.5h14.6l7,7v23.7l-8.5,8.5h-10.2V74.6z M218.5,41.3h-1.2V26.9h10.2l8.5,8.5v12.6h-17.5V41.3z"/>
</g>
<g>
	<path fill="#FFFFFF" d="M6.4,10.6h1.7v2.1H2v-2.1h1.9V3.7C3.1,4.5,2.9,4.8,2,5.3V2.9c0.9-0.6,1.6-1.2,2.5-2.3h1.9V10.6z"/>
	<path fill="#FFFFFF" d="M17.3,10.5l-0.2,2.3h-6.6v-2.3c1.8-1.9,2.5-2.6,3.1-3.6c0.6-0.9,1-2,1-3c0-0.7-0.3-1.2-0.8-1.2
		c-0.7,0-1.1,0.7-1.1,2.3l-2.1-0.5C10.8,1.8,12,0.6,14,0.6c2,0,3.2,1.3,3.2,3.4c0,1.2-0.4,2.3-1.3,3.5c-0.6,0.8-1.2,1.4-2.9,3H17.3z
		"/>
	<path fill="#FFFFFF" d="M28.3,7.3v1.9h-8.9V7.3H28.3z"/>
	<path fill="#FFFFFF" d="M35,10.6h1.7v2.1h-6.1v-2.1h1.9V3.7c-0.7,0.8-1,1.1-1.9,1.6V2.9c0.9-0.6,1.6-1.2,2.5-2.3H35V10.6z"/>
	<path fill="#FFFFFF" d="M38.8,9.9v-2l3.6-7.2h2.3v7.2h1.2v2h-1.2v2.9h-2.3V9.9H38.8z M42.4,5.4c0-0.8,0.1-1.7,0.2-2.8
		c-0.3,0.9-0.5,1.4-0.8,2.2l-1.5,3.1h2V5.4z"/>
</g>
</svg>
