<?xml version="1.0" encoding="utf-8"?>
<!-- Generator: Adobe Illustrator 18.1.0, SVG Export Plug-In . SVG Version: 6.00 Build 0)  -->
<!DOCTYPE svg PUBLIC "-//W3C//DTD SVG 1.1//EN" "http://www.w3.org/Graphics/SVG/1.1/DTD/svg11.dtd">
<svg version="1.1" id="Layer_1" xmlns="http://www.w3.org/2000/svg" xmlns:xlink="http://www.w3.org/1999/xlink" x="0px" y="0px"
	 viewBox="2.2 257.1 695.9 191" enable-background="new 2.2 257.1 695.9 191" xml:space="preserve">
<g enable-background="new    ">
	<path fill="#FFFFFF" d="M2.2,421.5l6.6-37.6h61.7l-3.6,21h23.8l-7.8,43.2H28.8L2.2,421.5z M26.6,283.7l26.9-26.6h63.1l-7.5,42.6
		H85.6L82,320H20.2L26.6,283.7z M96.6,404.9h23.5l5.5-31.6H49.6l7.8-43.5h75.8l5.3-30.2h-23.5l7.5-42.6h54l26.6,26.6l-7.5,42.6
		L167.8,354l19.7,19.7l-8.3,47.9l-26.6,26.6H88.9L96.6,404.9z"/>
	<path fill="#FFFFFF" d="M200.2,421l6.1-34.9h62l-3.3,18h18.5l-7.8,44h-48.4L200.2,421z M228.9,257.1h163l-8.3,46.2H282.9L272.1,364
		l-7.2,7.2H209L228.9,257.1z M289.3,404.1h18.5l7.8-41.5h-37.6l6.1-33.2l11.6-11.6h63.7l21.9,21.9l-14.4,80.6l-28,28h-57.3
		L289.3,404.1z"/>
	<path fill="#FFFFFF" d="M387.8,419.6l23.5-134l28.5-28.5h60.1l-8.3,45.7h-21.3l-17.7,99.7h21.6l-8,45.7h-49.5L387.8,419.6z
		 M479.7,402.4H501l17.7-99.7h-21.3l8-45.7h49.3l28.8,28.5l-23.5,134l-28.8,28.5h-59.5L479.7,402.4z"/>
	<path fill="#FFFFFF" d="M594.6,332.7h30.7l5.5-31.3h42.1l-5.5,31.3h30.7l-6.9,39.6h-30.7l-5.5,31h-42.1l5.5-31H588L594.6,332.7z"/>
</g>
</svg>
