<?xml version="1.0" encoding="utf-8"?>
<!-- Generator: Adobe Illustrator 18.0.0, SVG Export Plug-In . SVG Version: 6.00 Build 0)  -->
<!DOCTYPE svg PUBLIC "-//W3C//DTD SVG 1.1//EN" "http://www.w3.org/Graphics/SVG/1.1/DTD/svg11.dtd">
<svg version="1.1" id="Layer_1" xmlns="http://www.w3.org/2000/svg" xmlns:xlink="http://www.w3.org/1999/xlink" x="0px" y="0px"
	 viewBox="0 0 117.8 45.7" enable-background="new 0 0 117.8 45.7" xml:space="preserve">
<g>
	<g>
		<path fill="#38A6CF" d="M28.9,39l1.4-7.8h14.3l-0.6,4h5.1l-1.8,10.1h-12L28.9,39z M31.6,23.6l2.8-16l6.5-6.5H55l-1.8,10.1h-5.1
			l-1.4,7.8h10.2l-1.3,7.3L52.9,29H37L31.6,23.6z M50.3,35.2h5.1l4.2-23.9h-5.1l1.8-10.1h11.9l6.4,6.3L69,38.9l-6.3,6.4H48.5
			L50.3,35.2z"/>
		<path fill="#38A6CF" d="M71.6,39l1.4-7.8h14.3l-0.6,4h5.1l-1.8,10.1h-12L71.6,39z M74.4,23.6l2.8-16l6.5-6.5h14.1l-1.8,10.1h-5.1
			l-1.4,7.8h10.2l-1.3,7.3L95.7,29H79.8L74.4,23.6z M93.1,35.2h5.1l4.2-23.9h-5.1l1.8-10.1H111l6.4,6.3l-5.6,31.4l-6.3,6.4H91.3
			L93.1,35.2z"/>
	</g>
	<g>
		<path fill="#38A6CF" d="M0.4,29l0.7-4.5H11l-0.4,2h3l-1.3,7.1H5L0.4,29z M14.6,26.5h2.9l0.5-3L6.4,22.1l-4-4l1.4-7.7l4.7-4.7h8.9
			l-1.2,7h-2.9l-0.5,2.8L24.4,17l4,3.9L27,28.9l-4.6,4.7h-9L14.6,26.5z M8.4,34.5h9.1l-0.8,4.4H7.6L8.4,34.5z M14.4,0.4h9l-0.7,4.4
			h-9.1L14.4,0.4z M19.9,12.9h-2.9l1.2-7h7.4l4.5,4.5l-0.7,4.4h-9.8L19.9,12.9z"/>
	</g>
</g>
</svg>
