<?xml version="1.0" encoding="utf-8"?>
<!-- Generator: Adobe Illustrator 18.1.0, SVG Export Plug-In . SVG Version: 6.00 Build 0)  -->
<!DOCTYPE svg PUBLIC "-//W3C//DTD SVG 1.1//EN" "http://www.w3.org/Graphics/SVG/1.1/DTD/svg11.dtd">
<svg version="1.1" id="Layer_1" xmlns="http://www.w3.org/2000/svg" xmlns:xlink="http://www.w3.org/1999/xlink" x="0px" y="0px"
	 viewBox="0 0 216 55" enable-background="new 0 0 216 55" xml:space="preserve">
<g>
	<path fill="#C6191A" d="M0.8,47.1l1.3-7.5h18.5L20,43.1h8.7l-2,11.4H8.3L0.8,47.1z M7.9,6.8h54.7l-2,11.5H24.3l-2.8,16l-1.7,1.7
		H2.8L7.9,6.8z M30.3,43.1h8.8l1.6-8.8H23.1l1.4-8.2l3.5-3.5h25.3l6.6,6.6l-3.1,17.4L49,54.5H28.3L30.3,43.1z"/>
	<path fill="#C6191A" d="M62.3,46.3l5.5-31.2L76,6.8h21.7l-2.2,12.2h-10l-4.1,23.2h10l-2.1,12.3H70.5L62.3,46.3z M93,42.2h10
		l4.1-23.2h-10l2.2-12.2H118l8.2,8.2l-5.5,31.2l-8.2,8.2H90.9L93,42.2z"/>
	<path fill="#C6191A" d="M134.1,6.8h18.5l-8.4,47.7h-18.4L134.1,6.8z M151,24L170,6.8h21.9l-44.7,39.5L151,24z M156.3,41.2
		l14.5-14.2l13.9,27.6h-20.7L156.3,41.2z"/>
</g>
<g>
	<path fill="#C6191A" d="M196.1,5.5h5.8l0.9-5.3h7.1L209,5.5h5.8l-1.1,6.4h-5.8l-0.9,5.3h-7.1l0.9-5.3H195L196.1,5.5z"/>
</g>
</svg>
