<?xml version="1.0" encoding="utf-8"?>
<!-- Generator: Adobe Illustrator 18.1.0, SVG Export Plug-In . SVG Version: 6.00 Build 0)  -->
<!DOCTYPE svg PUBLIC "-//W3C//DTD SVG 1.1//EN" "http://www.w3.org/Graphics/SVG/1.1/DTD/svg11.dtd">
<svg version="1.1" id="Layer_1" xmlns="http://www.w3.org/2000/svg" xmlns:xlink="http://www.w3.org/1999/xlink" x="0px" y="0px"
	 viewBox="5.6 257.1 587.4 191" enable-background="new 5.6 257.1 587.4 191" xml:space="preserve">
<g enable-background="new    ">
	<path fill="#FFFFFF" d="M5.6,421l6.1-34.9h62l-3.3,18h18.5l-7.8,44H32.7L5.6,421z M34.3,257.1h163l-8.3,46.2H88.3L77.5,364
		l-7.2,7.2H14.4L34.3,257.1z M94.7,404.1h18.5l7.8-41.5H83.3l6.1-33.2l11.6-11.6h63.7l21.9,21.9l-14.4,80.6l-28,28H86.9L94.7,404.1z
		"/>
	<path fill="#FFFFFF" d="M193.2,419.6l23.5-134l28.5-28.5h60.1l-8.3,45.7h-21.3L258,402.4h21.6l-8,45.7H222L193.2,419.6z
		 M285.1,402.4h21.3l17.7-99.7h-21.3l8-45.7h49.3l28.8,28.5l-23.5,134l-28.8,28.5h-59.5L285.1,402.4z"/>
	<path fill="#FFFFFF" d="M418.6,257.1h61.7l-33.5,191h-62L418.6,257.1z M475,320.2l47.6-63.1h70.3L458.1,416.6L475,320.2z
		 M480.8,403l51.8-67.8L563,448.1h-66.7L480.8,403z"/>
</g>
</svg>
