<?xml version="1.0" encoding="utf-8"?>
<!-- Generator: Adobe Illustrator 18.1.0, SVG Export Plug-In . SVG Version: 6.00 Build 0)  -->
<!DOCTYPE svg PUBLIC "-//W3C//DTD SVG 1.1//EN" "http://www.w3.org/Graphics/SVG/1.1/DTD/svg11.dtd">
<svg version="1.1" id="Layer_1" xmlns="http://www.w3.org/2000/svg" xmlns:xlink="http://www.w3.org/1999/xlink" x="0px" y="0px"
	 viewBox="0 0 211.5 62" enable-background="new 0 0 211.5 62" xml:space="preserve">
<g>
	<path fill="#C60101" d="M0,53.2l2-11H22l-0.9,5.6h7.1L25.7,62H8.8L0,53.2z M3.9,31.5L7.8,9L16.9,0h19.8l-2.5,14.2h-7.1l-2,11h14.4
		l-1.8,10.3l-3.9,3.8H11.5L3.9,31.5z M30.1,47.8h7.2l5.9-33.7h-7.2L38.6,0h16.7l9,8.9L56.5,53l-8.9,9h-20L30.1,47.8z"/>
	<path fill="#C60101" d="M65.8,48.6h14.9L78.4,62H63.4L65.8,48.6z M70.6,21.2h15l-2.4,13.5H68.2L70.6,21.2z"/>
	<path fill="#C60101" d="M91.7,33.3l8-8h26l2-11.2h-5.5L124.6,0h14.9l9.1,9.1L144.4,33l-8,8h-25.9L106.8,62H86.7L91.7,33.3z
		 M95.6,8.8l8.8-8.8h18.4l-2.4,14.2h-5.6l-1.2,6.5H93.5L95.6,8.8z M111.3,47.1H142L139.3,62h-30.6L111.3,47.1z"/>
	<path fill="#C60101" d="M147.9,52.8l7.6-43.6l9.3-9.3h19.5l-2.7,14.8h-6.9l-5.8,32.4h7L173.3,62h-16.1L147.9,52.8z M177.7,47.2h6.9
		l5.8-32.4h-6.9L186.1,0h16l9.4,9.3l-7.6,43.6l-9.4,9.3h-19.3L177.7,47.2z"/>
</g>
</svg>
