<?xml version="1.0" encoding="utf-8"?>
<!-- Generator: Adobe Illustrator 17.0.2, SVG Export Plug-In . SVG Version: 6.00 Build 0)  -->
<!DOCTYPE svg PUBLIC "-//W3C//DTD SVG 1.1//EN" "http://www.w3.org/Graphics/SVG/1.1/DTD/svg11.dtd">
<svg version="1.1" id="Layer_1" xmlns="http://www.w3.org/2000/svg" xmlns:xlink="http://www.w3.org/1999/xlink" x="0px" y="0px"
	 width="80px" height="80px" viewBox="0 0 80 80" enable-background="new 0 0 80 80" xml:space="preserve">
<g>
	<path fill="#D9D9D9" d="M0,68.097l2.574-15.013h24.45l-1.287,8.365h9.437l-3.003,17.158H10.509L0,68.097z M9.651,13.19
		L20.375,2.681h25.094l-3.003,16.944h-9.437l-1.501,7.936H7.078L9.651,13.19z M37.534,61.448h9.437l2.145-12.44H18.874l3.003-17.373
		h30.241l2.145-12.011h-9.437l3.003-16.944h21.448L79.786,13.19l-3.003,16.944L65.845,41.072l7.721,7.721l-3.217,19.088
		L59.625,78.606H34.531L37.534,61.448z"/>
</g>
</svg>
