<?xml version="1.0" encoding="utf-8"?>
<!-- Generator: Adobe Illustrator 18.1.0, SVG Export Plug-In . SVG Version: 6.00 Build 0)  -->
<!DOCTYPE svg PUBLIC "-//W3C//DTD SVG 1.1//EN" "http://www.w3.org/Graphics/SVG/1.1/DTD/svg11.dtd">
<svg version="1.1" id="Layer_1" xmlns="http://www.w3.org/2000/svg" xmlns:xlink="http://www.w3.org/1999/xlink" x="0px" y="0px"
	 viewBox="1.7 277.7 692.4 148.6" enable-background="new 1.7 277.7 692.4 148.6" xml:space="preserve">
<g enable-background="new    ">
	<path fill="#FFFFFF" d="M1.7,405.7l5.2-29.3h48l-2.8,16.4h18.5l-6,33.6H22.4L1.7,405.7z M20.7,298.4l20.9-20.7h49.1l-5.8,33.2H66.6
		l-2.8,15.7h-48L20.7,298.4z M75.2,392.8h18.3l4.3-24.6H38.6l6-33.8h59l4.1-23.5H89.4l5.8-33.2h42l20.7,20.7l-5.8,33.2l-21.5,21.5
		l15.3,15.3l-6.5,37.3l-20.7,20.7H69.2L75.2,392.8z"/>
	<path fill="#FFFFFF" d="M155.8,405.2l4.7-27.1h48.3l-2.6,14h14.4l-6,34.3h-37.7L155.8,405.2z M178.2,277.7h126.9l-6.5,36h-78.4
		l-8.4,47.2l-5.6,5.6h-43.5L178.2,277.7z M225.1,392.1h14.4l6-32.3h-29.3l4.7-25.9l9-9h49.5l17,17l-11.2,62.7l-21.8,21.8h-44.6
		L225.1,392.1z"/>
	<path fill="#FFFFFF" d="M301.8,404.2l18.3-104.3l22.2-22.2h46.7l-6.5,35.5H366l-13.8,77.6H369l-6.2,35.5h-38.6L301.8,404.2z
		 M373.3,390.8h16.6l13.8-77.6h-16.6l6.2-35.5h38.3l22.4,22.2l-18.3,104.3l-22.4,22.2h-46.3L373.3,390.8z"/>
	<path fill="#FFFFFF" d="M452.6,404.2l18.3-104.3l22.2-22.2h46.7l-6.5,35.5h-16.6L503,390.8h16.8l-6.2,35.5H475L452.6,404.2z
		 M524.1,390.8h16.6l13.8-77.6h-16.6l6.2-35.5h38.3l22.4,22.2l-18.3,104.3l-22.4,22.2h-46.3L524.1,390.8z"/>
	<path fill="#FFFFFF" d="M613.5,336.5h23.9l4.3-24.3h32.7l-4.3,24.3h23.9l-5.4,30.8h-23.9l-4.3,24.1h-32.7l4.3-24.1h-23.7
		L613.5,336.5z"/>
</g>
</svg>
