<?xml version="1.0" encoding="utf-8"?>
<!-- Generator: Adobe Illustrator 18.0.0, SVG Export Plug-In . SVG Version: 6.00 Build 0)  -->
<!DOCTYPE svg PUBLIC "-//W3C//DTD SVG 1.1//EN" "http://www.w3.org/Graphics/SVG/1.1/DTD/svg11.dtd">
<svg version="1.1" id="Isolation_Mode" xmlns="http://www.w3.org/2000/svg" xmlns:xlink="http://www.w3.org/1999/xlink" x="0px"
	 y="0px" viewBox="0 0 208.6 125.9" enable-background="new 0 0 208.6 125.9" xml:space="preserve">
<path fill="#FFFFFF" d="M156,119c0-1.2-0.3-3.2,2.1-3.2h4.1c2.4,0,2.2,1.9,2.2,3.2c0,1.4,0.1,3.4-1.8,3.4h-4.9
	C155.9,122.5,156,120.4,156,119 M151.7,119c0,2.7-0.2,6.9,3.5,6.9h9.8c3.7,0,3.6-4.2,3.6-6.9c0-2.5,0.3-6.4-4.3-6.4H156
	C151.4,112.6,151.7,116.5,151.7,119z M129.9,113.6v11.3c0,0.4-0.1,0.9,0.8,0.9h2.2c0.8,0,0.7-0.6,0.7-0.9v-8.3
	c1.6,3,3.8,7.5,4.7,9.2h3.5c0.9-1.6,3.1-6.2,4.7-9.2v8.3c0,0.4-0.1,0.9,0.8,0.9h2.3c0.8,0,0.7-0.6,0.7-0.9v-11.3c0-0.4,0.1-1-0.7-1
	h-3.9c-0.6,0-1.5-0.1-2.4,1.8c-0.7,1.6-2.2,4.8-3.2,6.6c-1-1.7-2.5-5-3.2-6.6c-0.9-2-1.8-1.8-2.3-1.8h-3.9
	C129.8,112.6,129.9,113.2,129.9,113.6z M117,116.7c0-0.3,0-0.6,0.8-0.6c0.9,0,4.9,0,4.9,0c1.7,0,1.8,0.2,1.8,1.6
	c0,0.7,0,1.3-2.5,1.3c-2,0-5.1,0-5.1,0V116.7z M112.9,113.7v11.7c0,0.5,0.5,0.4,0.3,0.4h3.3c0.2,0,0.6-0.1,0.6-0.5v-5.5
	c0,0,0.9,1.9,1.4,2.7c0,0,4.4,0,4.8,0c0.3,0,1.2-0.1,1.2,1.6c0,0.6-0.2,1.7,0.5,1.7h3.3c0.2,0,0.4,0,0.4-0.7c0-1.4,0.3-4.1-1.7-4.5
	c1.2-0.9,1.8-1,1.8-3.8c0-4.3-2.2-4.2-3.7-4.2h-11.1C113.4,112.6,112.9,112.9,112.9,113.7z M100.4,120.3c0.1-0.3,1.9-3.6,2-4l0.2,0
	c0.2,0.4,1.8,3.7,2,4l-0.2,0.2h-3.8L100.4,120.3z M100,112.7c0,0-5.9,11.2-6.7,12.9v0.3h4.2c0.6-1,2.3-4.4,2.6-5
	c0.2,0.6,1.1,2.7,1.1,2.7h5.1l1.2,2.3h4.2v-0.4c-0.8-1.6-4.9-9.4-5.5-10.6c-0.9-1.8-1.6-2.2-2.5-2.2H100z M73,116.7
	c0-0.3,0-0.6,0.8-0.6c0.9,0,4.9,0,4.9,0c1.7,0,1.8,0.2,1.8,1.6c0,0.7,0,1.3-2.5,1.3c-2,0-5.1,0-5.1,0V116.7z M68.9,113.7v11.7
	c0,0.5,0.5,0.4,0.3,0.4h3.3c0.2,0,0.6-0.1,0.6-0.5v-5.5c0,0,0.9,1.9,1.4,2.7c0,0,4.4,0,4.8,0c0.3,0,1.2-0.1,1.2,1.6
	c0,0.6-0.2,1.7,0.5,1.7h3.3c0.2,0,0.4,0,0.4-0.7c0-1.4,0.3-4.1-1.7-4.5c1.2-0.9,1.8-1,1.8-3.8c0-4.3-2.2-4.2-3.6-4.2H69.9
	C69.4,112.6,68.9,112.9,68.9,113.7z M53.5,115.4c0,0,0,5.9,0,7.3c0,2.9,1.7,3.2,2.6,3.2c0.3,0,10.5,0,10.5,0c0.8,0,0.8-0.6,0.8-1.7
	c0-1,0.1-1.6-0.8-1.6c0,0-8,0-8.3,0c-0.2,0-0.9,0.2-0.9-0.7c0-0.6,0-3.5,0-3.5l1.1,2.4c0,0,6.7,0,7.3,0c0.6,0,0.6-0.3,0.5-0.6
	c-0.1-0.4-1.1-2.4-1.1-2.4h-7.1c-0.8,0-0.7-0.3-0.7-1.1s0.7-0.7,0.9-0.7c0.3,0,8,0,8,0c0.9,0,0.7-0.6,0.7-1.6c0-1.1,0.1-1.7-0.7-1.7
	c0,0-9.9,0-10.1,0C53.9,112.7,53.5,114.7,53.5,115.4z M45.9,116.1c1.3,0,2.1,0.1,2.1,3.2c0,0.9,0.2,3-1.9,3c-2,0-6.6,0-6.6,0v-6.2
	H45.9z M46.8,112.6h-11v13.2h3.9v-2.8l1.3,2.8c0,0,4.7,0,5.9,0c5.6,0,5.1-3.1,5.1-8.3C52,112.5,47.5,112.6,46.8,112.6z M15.7,120.5
	v-7c0-0.4,0.1-1-0.8-1h-2.5c-0.8,0-0.7,0.6-0.7,1c0,0,0,6.5,0,7c0,0.5-0.1,1.8-1.8,1.8H5.8c-1.7,0-1.8-1.3-1.8-1.8c0-0.5,0-7,0-7
	c0-0.4,0.1-1-0.7-1H0.8c-0.8,0-0.8,0.6-0.8,1v7c0,1.5,0.1,5.3,4.8,5.3h6.1C15.6,125.8,15.7,122,15.7,120.5z M26.6,117
	c-1.2-1.8-3-4.5-4.2-4.5h-4.4c-0.8,0-0.7,0.6-0.7,1v11.3c0,0.4-0.1,0.9,0.7,0.9h2.3c0.8,0,0.7-0.6,0.7-0.9v-8.5
	c2.4,3.2,4.8,6.2,6.5,8.6c0.9,0.9,1.3,0.8,2.3,0.8c0.9,0,4,0,4.6,0v-12.3c0-0.4,0-1-0.7-1h-2.5c-0.8,0-0.8,0.6-0.8,1v8.4
	C29.2,120.4,27.5,118.4,26.6,117z M125.4,47.1c-5.8,3.9-13.8,6.4-23.6,6.4l-0.3,0h0l-0.3,0c-9.8,0-17.7-2.5-23.5-6.4
	c5.8-3.9,13.8-6.4,23.6-6.4l0.3,0h0l0.3,0C111.7,40.7,119.6,43.2,125.4,47.1z M148.9,47.1c16.5-7.7,27.2-19.3,27.8-32.1
	c0,0-4.3-3.6-18.4-9.1C146,1.1,136.6,0,136.6,0l0,28.6c0,4.3-1.6,8.6-4.7,12.5c-9.3-2.4-19.6-3.7-30.4-3.7h0
	c-10.8,0-21.1,1.4-30.4,3.8c-3.1-3.9-4.7-8.2-4.7-12.5l0-28.6c0,0-9.4,1.1-21.7,5.9c-14,5.5-18.4,9.1-18.4,9.1
	C27,27.8,37.7,39.4,54.2,47.1C37.7,54.8,27,66.4,26.4,79.2c0,0,4.3,3.6,18.4,9.1c12.3,4.8,21.7,5.9,21.7,5.9l0-28.6
	c0-4.3,1.6-8.6,4.7-12.5c9.3,2.4,19.6,3.7,30.4,3.7h0c10.8,0,21.1-1.4,30.5-3.8c3.1,3.9,4.7,8.2,4.7,12.5l0,28.6
	c0,0,9.4-1.1,21.7-5.9c14-5.5,18.4-9.1,18.4-9.1C176.2,66.3,165.4,54.8,148.9,47.1z M185.6,120.5v-7c0-0.4,0.1-1-0.8-1h-2.5
	c-0.8,0-0.7,0.6-0.7,1c0,0,0,6.5,0,7c0,0.5-0.1,1.8-1.8,1.8h-4.1c-1.7,0-1.8-1.3-1.8-1.8c0-0.5,0-7,0-7c0-0.4,0-1-0.7-1h-2.4
	c-0.8,0-0.8,0.6-0.8,1v7c0,1.5,0.1,5.3,4.8,5.3h6.1C185.5,125.8,185.6,122,185.6,120.5z M198.9,117.7c0,0.7,0,1.3-2.5,1.3
	c-2,0-5.1,0-5.1,0v-2.4c0-0.3,0-0.6,0.8-0.6c0.9,0,4.9,0,4.9,0C198.8,116.1,198.9,116.3,198.9,117.7z M203,116.9
	c0-4.3-2.2-4.2-3.7-4.2h-11.1c-0.5,0-1,0.3-1,1.1v11.7c0,0.5,0.5,0.4,0.3,0.4h3.3c0.2,0,0.6-0.1,0.6-0.5v-5.5c0,0,0.9,1.9,1.4,2.7
	c0,0,4.4,0,4.8,0c0.3,0,1.2-0.1,1.2,1.6c0,0.6-0.2,1.7,0.5,1.7h3.3c0.2,0,0.4,0,0.4-0.7c0-1.4,0.3-4.1-1.7-4.5
	C202.4,119.8,203,119.6,203,116.9z M206.9,122.8c0,0.2-0.1,0.3-0.4,0.3c-0.3,0-0.6,0-0.6,0v-0.6c0,0,0.3,0,0.6,0
	C206.9,122.5,206.9,122.6,206.9,122.8L206.9,122.8z M207.5,122.9c0-0.4-0.3-0.8-0.7-0.8h-1c-0.3,0-0.3,0.1-0.3,0.4v2.1l0.2,0.4
	c0.1,0,0.3,0,0.3-0.3v-0.9h0.3c0.2,0.3,0.4,0.7,0.7,1.1c0.1,0.1,0.6,0,0.4-0.4c-0.1-0.2-0.3-0.6-0.4-0.9
	C207.3,123.6,207.5,123.3,207.5,122.9z M208.1,123.4c0,1.1-0.7,1.9-1.8,1.9c-1,0-1.8-0.8-1.8-1.9c0-1,0.8-1.8,1.7-1.8
	C207.3,121.6,208.1,122.3,208.1,123.4z M208.6,123.4c0-1.3-1-2.4-2.3-2.4c-1.2,0-2.3,1.1-2.3,2.4c0,1.3,1,2.5,2.2,2.5
	C207.6,125.9,208.6,124.7,208.6,123.4z"/>
</svg>
