<?xml version="1.0" encoding="utf-8"?>
<!-- Generator: Adobe Illustrator 17.0.2, SVG Export Plug-In . SVG Version: 6.00 Build 0)  -->
<!DOCTYPE svg PUBLIC "-//W3C//DTD SVG 1.1//EN" "http://www.w3.org/Graphics/SVG/1.1/DTD/svg11.dtd">
<svg version="1.1" id="Isolation_Mode" xmlns="http://www.w3.org/2000/svg" xmlns:xlink="http://www.w3.org/1999/xlink" x="0px"
	 y="0px" width="80px" height="80px" viewBox="0 0 80 80" enable-background="new 0 0 80 80" xml:space="preserve">
<path d="M59.827,61.496c0-0.46-0.115-1.227,0.805-1.227h1.572c0.92,0,0.844,0.729,0.844,1.227c0,0.537,0.038,1.304-0.69,1.304
	h-1.879C59.789,62.838,59.827,62.033,59.827,61.496 M58.178,61.496c0,1.035-0.077,2.646,1.342,2.646h3.758
	c1.419,0,1.381-1.611,1.381-2.646c0-0.959,0.115-2.454-1.649-2.454h-3.183C58.063,59.041,58.178,60.537,58.178,61.496z
	 M49.818,59.425v4.334c0,0.153-0.038,0.345,0.307,0.345h0.844c0.307,0,0.268-0.23,0.268-0.345v-3.183
	c0.614,1.151,1.457,2.876,1.802,3.528h1.342c0.345-0.614,1.189-2.378,1.802-3.528v3.183c0,0.153-0.038,0.345,0.307,0.345h0.882
	c0.307,0,0.268-0.23,0.268-0.345v-4.334c0-0.153,0.038-0.384-0.268-0.384h-1.496c-0.23,0-0.575-0.038-0.92,0.69
	c-0.268,0.614-0.844,1.841-1.227,2.531c-0.384-0.652-0.959-1.918-1.227-2.531c-0.345-0.767-0.69-0.69-0.882-0.69h-1.496
	C49.779,59.041,49.818,59.271,49.818,59.425z M44.871,60.614c0-0.115,0-0.23,0.307-0.23c0.345,0,1.879,0,1.879,0
	c0.652,0,0.69,0.077,0.69,0.614c0,0.268,0,0.499-0.959,0.499c-0.767,0-1.956,0-1.956,0v-0.882H44.871z M43.298,59.463v4.487
	c0,0.192,0.192,0.153,0.115,0.153h1.266c0.077,0,0.23-0.038,0.23-0.192v-2.109c0,0,0.345,0.729,0.537,1.035c0,0,1.687,0,1.841,0
	c0.115,0,0.46-0.038,0.46,0.614c0,0.23-0.077,0.652,0.192,0.652h1.266c0.077,0,0.153,0,0.153-0.268c0-0.537,0.115-1.572-0.652-1.726
	c0.46-0.345,0.69-0.384,0.69-1.457c0-1.649-0.844-1.611-1.419-1.611H43.72C43.49,59.041,43.298,59.156,43.298,59.463z
	 M38.504,61.994c0.038-0.115,0.729-1.381,0.767-1.534h0.077c0.077,0.153,0.69,1.419,0.767,1.534l-0.077,0.077h-1.457L38.504,61.994z
	 M38.351,59.08c0,0-2.263,4.295-2.57,4.947v0.115h1.611c0.23-0.384,0.882-1.687,0.997-1.918c0.077,0.23,0.422,1.035,0.422,1.035
	h1.956l0.46,0.882h1.611v-0.153c-0.307-0.614-1.879-3.605-2.109-4.065c-0.345-0.69-0.614-0.844-0.959-0.844
	C39.77,59.08,38.351,59.08,38.351,59.08z M27.996,60.614c0-0.115,0-0.23,0.307-0.23c0.345,0,1.879,0,1.879,0
	c0.652,0,0.69,0.077,0.69,0.614c0,0.268,0,0.499-0.959,0.499c-0.767,0-1.956,0-1.956,0v-0.882H27.996z M26.424,59.463v4.487
	c0,0.192,0.192,0.153,0.115,0.153h1.266c0.077,0,0.23-0.038,0.23-0.192v-2.109c0,0,0.345,0.729,0.537,1.035c0,0,1.687,0,1.841,0
	c0.115,0,0.46-0.038,0.46,0.614c0,0.23-0.077,0.652,0.192,0.652h1.266c0.077,0,0.153,0,0.153-0.268c0-0.537,0.115-1.572-0.652-1.726
	c0.46-0.345,0.69-0.384,0.69-1.457c0-1.649-0.844-1.611-1.381-1.611h-4.334C26.616,59.041,26.424,59.156,26.424,59.463z
	 M20.518,60.115c0,0,0,2.263,0,2.8c0,1.112,0.652,1.227,0.997,1.227c0.115,0,4.027,0,4.027,0c0.307,0,0.307-0.23,0.307-0.652
	c0-0.384,0.038-0.614-0.307-0.614c0,0-3.068,0-3.183,0c-0.077,0-0.345,0.077-0.345-0.268c0-0.23,0-1.342,0-1.342l0.422,0.92
	c0,0,2.57,0,2.8,0c0.23,0,0.23-0.115,0.192-0.23c-0.038-0.153-0.422-0.92-0.422-0.92h-2.723c-0.307,0-0.268-0.115-0.268-0.422
	c0-0.307,0.268-0.268,0.345-0.268c0.115,0,3.068,0,3.068,0c0.345,0,0.268-0.23,0.268-0.614c0-0.422,0.038-0.652-0.268-0.652
	c0,0-3.797,0-3.873,0C20.671,59.08,20.518,59.847,20.518,60.115z M17.603,60.384c0.499,0,0.805,0.038,0.805,1.227
	c0,0.345,0.077,1.151-0.729,1.151c-0.767,0-2.531,0-2.531,0v-2.378H17.603z M17.948,59.041H13.73v5.062h1.496V63.03l0.499,1.074
	c0,0,1.802,0,2.263,0c2.148,0,1.956-1.189,1.956-3.183C19.942,59.003,18.217,59.041,17.948,59.041z M6.021,62.071v-2.685
	c0-0.153,0.038-0.384-0.307-0.384H4.756c-0.307,0-0.268,0.23-0.268,0.384c0,0,0,2.493,0,2.685s-0.038,0.69-0.69,0.69H2.224
	c-0.652,0-0.69-0.499-0.69-0.69s0-2.685,0-2.685c0-0.153,0.038-0.384-0.268-0.384H0.307C0,59.003,0,59.233,0,59.386v2.685
	c0,0.575,0.038,2.033,1.841,2.033H4.18C5.983,64.104,6.021,62.646,6.021,62.071z M10.201,60.729c-0.46-0.69-1.151-1.726-1.611-1.726
	H6.903c-0.307,0-0.268,0.23-0.268,0.384v4.334c0,0.153-0.038,0.345,0.268,0.345h0.882c0.307,0,0.268-0.23,0.268-0.345v-3.26
	c0.92,1.227,1.841,2.378,2.493,3.298c0.345,0.345,0.499,0.307,0.882,0.307c0.345,0,1.534,0,1.764,0v-4.717
	c0-0.153,0-0.384-0.268-0.384h-0.959c-0.307,0-0.307,0.23-0.307,0.384v3.221C11.198,62.033,10.547,61.266,10.201,60.729z
	 M48.092,33.921c-2.224,1.496-5.292,2.454-9.051,2.454h-0.115l0,0h-0.115c-3.758,0-6.788-0.959-9.012-2.454
	c2.224-1.496,5.292-2.454,9.051-2.454h0.115l0,0h0.115C42.838,31.467,45.868,32.426,48.092,33.921z M57.105,33.921
	c6.328-2.953,10.431-7.402,10.662-12.311c0,0-1.649-1.381-7.057-3.49c-4.717-1.841-8.322-2.263-8.322-2.263v10.968
	c0,1.649-0.614,3.298-1.802,4.794c-3.567-0.92-7.517-1.419-11.659-1.419l0,0c-4.142,0-8.092,0.537-11.659,1.457
	c-1.189-1.496-1.802-3.145-1.802-4.794V15.896c0,0-3.605,0.422-8.322,2.263c-5.369,2.109-7.057,3.49-7.057,3.49
	c0.268,4.871,4.372,9.319,10.7,12.272c-6.328,2.953-10.431,7.402-10.662,12.311c0,0,1.649,1.381,7.057,3.49
	c4.717,1.841,8.322,2.263,8.322,2.263V41.016c0-1.649,0.614-3.298,1.802-4.794c3.567,0.92,7.517,1.419,11.659,1.419l0,0
	c4.142,0,8.092-0.537,11.697-1.457c1.189,1.496,1.802,3.145,1.802,4.794v10.968c0,0,3.605-0.422,8.322-2.263
	c5.369-2.109,7.057-3.49,7.057-3.49C67.574,41.285,63.432,36.874,57.105,33.921z M71.179,62.071v-2.685
	c0-0.153,0.038-0.384-0.307-0.384h-0.959c-0.307,0-0.268,0.23-0.268,0.384c0,0,0,2.493,0,2.685s-0.038,0.69-0.69,0.69h-1.572
	c-0.652,0-0.69-0.499-0.69-0.69s0-2.685,0-2.685c0-0.153,0-0.384-0.268-0.384h-0.92c-0.307,0-0.307,0.23-0.307,0.384v2.685
	c0,0.575,0.038,2.033,1.841,2.033h2.339C71.141,64.104,71.179,62.646,71.179,62.071z M76.28,60.997c0,0.268,0,0.499-0.959,0.499
	c-0.767,0-1.956,0-1.956,0v-0.92c0-0.115,0-0.23,0.307-0.23c0.345,0,1.879,0,1.879,0C76.242,60.384,76.28,60.46,76.28,60.997z
	 M77.852,60.69c0-1.649-0.844-1.611-1.419-1.611h-4.257c-0.192,0-0.384,0.115-0.384,0.422v4.487c0,0.192,0.192,0.153,0.115,0.153
	h1.266c0.077,0,0.23-0.038,0.23-0.192v-2.109c0,0,0.345,0.729,0.537,1.035c0,0,1.687,0,1.841,0c0.115,0,0.46-0.038,0.46,0.614
	c0,0.23-0.077,0.652,0.192,0.652h1.266c0.077,0,0.153,0,0.153-0.268c0-0.537,0.115-1.572-0.652-1.726
	C77.622,61.802,77.852,61.726,77.852,60.69z M79.348,62.953c0,0.077-0.038,0.115-0.153,0.115s-0.23,0-0.23,0v-0.23
	c0,0,0.115,0,0.23,0C79.348,62.838,79.348,62.876,79.348,62.953L79.348,62.953z M79.578,62.991c0-0.153-0.115-0.307-0.268-0.307
	h-0.384c-0.115,0-0.115,0.038-0.115,0.153v0.805l0.077,0.153c0.038,0,0.115,0,0.115-0.115v-0.345h0.115
	c0.077,0.115,0.153,0.268,0.268,0.422c0.038,0.038,0.23,0,0.153-0.153c-0.038-0.077-0.115-0.23-0.153-0.345
	C79.501,63.26,79.578,63.145,79.578,62.991z M79.808,63.183c0,0.422-0.268,0.729-0.69,0.729c-0.384,0-0.69-0.307-0.69-0.729
	c0-0.384,0.307-0.69,0.652-0.69C79.501,62.493,79.808,62.761,79.808,63.183z M80,63.183c0-0.499-0.384-0.92-0.882-0.92
	c-0.46,0-0.882,0.422-0.882,0.92c0,0.499,0.384,0.959,0.844,0.959C79.616,64.142,80,63.682,80,63.183z"/>
</svg>
