<?xml version="1.0" encoding="utf-8"?>
<!-- Generator: Adobe Illustrator 18.1.0, SVG Export Plug-In . SVG Version: 6.00 Build 0)  -->
<!DOCTYPE svg PUBLIC "-//W3C//DTD SVG 1.1//EN" "http://www.w3.org/Graphics/SVG/1.1/DTD/svg11.dtd">
<svg version="1.1" id="Layer_1" xmlns="http://www.w3.org/2000/svg" xmlns:xlink="http://www.w3.org/1999/xlink" x="0px" y="0px"
	 viewBox="0 0 1053 293.1" enable-background="new 0 0 1053 293.1" xml:space="preserve">
<g>
	<path fill="#FFFFFF" d="M327.9,89.2h9.9l21,49.3h-11.3l-4.5-11h-20.7l-4.5,11h-11L327.9,89.2z M339.2,118l-6.5-15.9l-6.5,15.9
		H339.2z"/>
	<path fill="#FFFFFF" d="M357,114.1V114c0-13.9,10.5-25.3,25.5-25.3c9.2,0,14.8,3.1,19.3,7.6l-6.9,7.9c-3.8-3.4-7.6-5.5-12.5-5.5
		c-8.2,0-14.2,6.9-14.2,15.2v0.1c0,8.4,5.8,15.4,14.2,15.4c5.6,0,9-2.2,12.9-5.7l6.9,6.9c-5,5.4-10.6,8.7-20.1,8.7
		C367.7,139.3,357,128.2,357,114.1z"/>
	<path fill="#FFFFFF" d="M403.2,114.1V114c0-13.9,10.5-25.3,25.5-25.3c9.2,0,14.8,3.1,19.3,7.6l-6.9,7.9c-3.8-3.4-7.6-5.5-12.5-5.5
		c-8.2,0-14.2,6.9-14.2,15.2v0.1c0,8.4,5.8,15.4,14.2,15.4c5.6,0,9-2.2,12.9-5.7l6.9,6.9c-5,5.4-10.6,8.7-20.1,8.7
		C413.9,139.3,403.2,128.2,403.2,114.1z"/>
	<path fill="#FFFFFF" d="M453,89.5h22.4c6.2,0,11,1.7,14.3,5c2.7,2.7,4.2,6.6,4.2,11.2v0.1c0,7.9-4.3,12.9-10.5,15.2l12,17.5h-12.6
		l-10.5-15.7h-8.5v15.7H453V89.5z M474.7,113.3c5.2,0,8.2-2.8,8.2-6.9v-0.1c0-4.6-3.2-7-8.5-7h-10.7v14.1H474.7z"/>
	<path fill="#FFFFFF" d="M499.6,89.5h36.9v9.6h-26.2v9.9h23.1v9.6h-23.1v10.3h26.6v9.6h-37.3V89.5z"/>
	<path fill="#FFFFFF" d="M542.5,89.5h19.1c15.4,0,26,10.6,26,24.3v0.1c0,13.8-10.6,24.5-26,24.5h-19.1V89.5z M561.5,128.7
		c8.8,0,14.8-5.9,14.8-14.6V114c0-8.7-5.9-14.8-14.8-14.8h-8.3v29.5H561.5z"/>
	<path fill="#FFFFFF" d="M593.6,89.5h10.8v48.9h-10.8V89.5z"/>
	<path fill="#FFFFFF" d="M624,99.4h-14.9v-9.9h40.6v9.9h-14.9v39H624V99.4z"/>
	<path fill="#FFFFFF" d="M654,89.5h36.9v9.6h-26.2v9.9h23.1v9.6h-23.1v10.3h26.6v9.6H654V89.5z"/>
	<path fill="#FFFFFF" d="M696.8,89.5h19.1c15.4,0,26,10.6,26,24.3v0.1c0,13.8-10.6,24.5-26,24.5h-19.1V89.5z M715.9,128.7
		c8.8,0,14.8-5.9,14.8-14.6V114c0-8.7-5.9-14.8-14.8-14.8h-8.3v29.5H715.9z"/>
	<path fill="#FFFFFF" d="M311.1,168.7h22.7c5.6,0,10,1.5,12.8,4.3c2.2,2.2,3.4,5,3.4,8.3v0.1c0,5.5-2.9,8.6-6.4,10.6
		c5.7,2.2,9.2,5.5,9.2,12v0.1c0,8.9-7.3,13.4-18.3,13.4h-23.3V168.7z M331.5,188.5c4.8,0,7.8-1.5,7.8-5.2v-0.1c0-3.2-2.5-5-7.1-5
		h-10.6v10.3H331.5z M334.4,208.2c4.8,0,7.6-1.7,7.6-5.3v-0.1c0-3.3-2.4-5.3-8-5.3h-12.4v10.8H334.4z"/>
	<path fill="#FFFFFF" d="M356.8,196.7v-28h10.8v27.7c0,8,4,12.1,10.6,12.1c6.6,0,10.6-4,10.6-11.7v-28h10.8v27.6
		c0,14.8-8.3,22.1-21.5,22.1C364.9,218.4,356.8,211.1,356.8,196.7z"/>
	<path fill="#FFFFFF" d="M403.1,210.5l6.4-7.6c4.4,3.6,9,5.9,14.6,5.9c4.4,0,7.1-1.7,7.1-4.6v-0.1c0-2.7-1.7-4.1-9.9-6.2
		c-9.9-2.5-16.2-5.2-16.2-15v-0.1c0-8.9,7.1-14.8,17.1-14.8c7.1,0,13.2,2.2,18.2,6.2l-5.6,8.1c-4.3-3-8.6-4.8-12.7-4.8
		s-6.3,1.9-6.3,4.3v0.1c0,3.2,2.1,4.3,10.6,6.4c9.9,2.6,15.5,6.2,15.5,14.7v0.1c0,9.7-7.4,15.2-18,15.2
		C416.5,218.4,409,215.8,403.1,210.5z"/>
	<path fill="#FFFFFF" d="M447.7,168.7h10.8v48.9h-10.8V168.7z"/>
	<path fill="#FFFFFF" d="M466.7,168.7h9.9l22.9,30.1v-30.1h10.6v48.9h-9.2l-23.7-31.1v31.1h-10.6V168.7z"/>
	<path fill="#FFFFFF" d="M518,168.7h36.9v9.6h-26.2v9.9h23.1v9.6h-23.1v10.3h26.6v9.6H518V168.7z"/>
	<path fill="#FFFFFF" d="M557.5,210.5l6.4-7.6c4.4,3.6,9,5.9,14.6,5.9c4.4,0,7.1-1.7,7.1-4.6v-0.1c0-2.7-1.7-4.1-9.9-6.2
		c-9.9-2.5-16.2-5.2-16.2-15v-0.1c0-8.9,7.1-14.8,17.1-14.8c7.1,0,13.2,2.2,18.2,6.2l-5.6,8.1c-4.3-3-8.6-4.8-12.7-4.8
		s-6.3,1.9-6.3,4.3v0.1c0,3.2,2.1,4.3,10.6,6.4c9.9,2.6,15.5,6.2,15.5,14.7v0.1c0,9.7-7.4,15.2-18,15.2
		C570.8,218.4,563.4,215.8,557.5,210.5z"/>
	<path fill="#FFFFFF" d="M597.5,210.5l6.4-7.6c4.4,3.6,9,5.9,14.6,5.9c4.4,0,7.1-1.7,7.1-4.6v-0.1c0-2.7-1.7-4.1-9.9-6.2
		c-9.9-2.5-16.2-5.2-16.2-15v-0.1c0-8.9,7.1-14.8,17.1-14.8c7.1,0,13.2,2.2,18.2,6.2l-5.6,8.1c-4.3-3-8.6-4.8-12.7-4.8
		s-6.3,1.9-6.3,4.3v0.1c0,3.2,2.1,4.3,10.6,6.4c9.9,2.6,15.5,6.2,15.5,14.7v0.1c0,9.7-7.4,15.2-18,15.2
		C610.9,218.4,603.4,215.8,597.5,210.5z"/>
</g>
<g>
	<path fill="#FFFFFF" d="M194.7,231.2V231c0-3.7-2.9-5.8-8.1-5.8h-12.2v11.9h11.4C191.3,237.2,194.7,235.4,194.7,231.2z"/>
	<path fill="#FFFFFF" d="M141.5,231.2V231c0-3.7-2.9-5.8-8.1-5.8h-12.2v11.9h11.4C138,237.2,141.5,235.4,141.5,231.2z"/>
	<path fill="#FFFFFF" d="M135.4,247.5h-14.3v12.4h14.7c5.5,0,8.8-1.9,8.8-6.1v-0.2C144.6,249.8,141.8,247.5,135.4,247.5z"/>
	<path fill="#FFFFFF" d="M82.2,247.5H67.9v12.4h14.7c5.5,0,8.8-1.9,8.8-6.1v-0.2C91.4,249.8,88.5,247.5,82.2,247.5z"/>
	<path fill="#FFFFFF" d="M88.2,231.2V231c0-3.7-2.9-5.8-8.1-5.8H67.9v11.9h11.4C84.8,237.2,88.2,235.4,88.2,231.2z"/>
	<path fill="#FFFFFF" d="M212.6,262.1c-1.2,0-2.1,1-2.1,2.1v0c0,1.1,0.9,2.1,2.1,2.1c1.2,0,2.1-1,2.1-2.1v0
		C214.7,263.1,213.8,262.1,212.6,262.1z M213.1,265.4l-0.5-0.7h-0.3v0.7h-0.7v-2.5h1.2c0.6,0,1,0.3,1,0.8c0,0.4-0.2,0.7-0.5,0.8
		l0.6,0.9H213.1z"/>
	<path fill="#FFFFFF" d="M44,0C19.7,0,0,18.9,0,42.2v208.7c0,23.3,19.7,42.2,44,42.2h218.7V0H44z M114.4,46.9l18.3-25.3l2.8,2
		c-1.6,2.2-2.2,4.9-1.8,7.5c0.4,2.7,1.9,5,4,6.6l34.7,25.2c7.1,5.1,11.7,12.7,13.1,21.3c1.4,8.6-0.7,17.3-5.8,24.3l-22.6,31.3
		l-2.7-2c2.2-3,3.3-6.6,3.3-10.3c0-0.9-0.1-1.9-0.2-2.8c-0.7-4.6-3.2-8.7-7-11.4l-28.7-20.8c-7.1-5.1-11.7-12.7-13.1-21.3
		c-0.3-1.7-0.4-3.5-0.4-5.2C108.2,59.2,110.3,52.6,114.4,46.9z M100.7,113.6c0,0,12.1-16.6,12.1-16.7l3.4,2.5v0
		c-0.7,1-1.1,2.1-1.1,3.3c0,0.3,0,0.6,0.1,0.9c0.2,1.5,1,2.8,2.3,3.7l22.8,16.6c4.9,3.5,8.1,8.8,9,14.7c0.2,1.2,0.3,2.4,0.3,3.6
		c0,4.7-1.5,9.3-4.3,13.2l-12.1,16.7l-3.4-2.5c0.9-1.2,1.2-2.7,1-4.2c-0.2-1.5-1-2.8-2.3-3.7l-22.8-16.6c-4.9-3.5-8.1-8.8-9-14.7
		C95.7,124.5,97.1,118.5,100.7,113.6z M103.7,255.3c0,10.3-8.4,15.4-21.1,15.4H55.8v-56.3h26.1c6.4,0,11.5,1.8,14.7,5
		c2.6,2.6,3.9,5.7,3.9,9.6v0.2c0,6.4-3.4,9.9-7.4,12.1c6.5,2.5,10.5,6.3,10.5,13.8V255.3z M156.9,255.3c0,10.3-8.4,15.4-21.1,15.4
		h-26.8v-56.3h26.1c6.4,0,11.5,1.8,14.7,5c2.6,2.6,3.9,5.7,3.9,9.6v0.2c0,6.4-3.4,9.9-7.4,12.1c6.5,2.5,10.5,6.3,10.5,13.8V255.3z
		 M153.7,204.9h-41.8l-4.9-15.7H81.6l3.5-11.4h95.4l3.5,11.4h-25.4L153.7,204.9z M210.2,255.3c0,10.3-8.4,15.4-21.1,15.4h-26.8
		v-56.3h26.1c6.4,0,11.5,1.8,14.7,5c2.6,2.6,3.9,5.7,3.9,9.6v0.2c0,6.4-3.4,9.9-7.4,12.1c6.5,2.5,10.5,6.3,10.5,13.8V255.3z
		 M214.9,264.2c0,1.3-1,2.4-2.3,2.4c-1.3,0-2.3-1.1-2.3-2.3v0c0-1.3,1-2.4,2.3-2.4C213.9,261.9,214.9,262.9,214.9,264.2L214.9,264.2
		z"/>
	<path fill="#FFFFFF" d="M188.7,247.5h-14.3v12.4h14.7c5.5,0,8.8-1.9,8.8-6.1v-0.2C197.9,249.8,195.1,247.5,188.7,247.5z"/>
	<path fill="#FFFFFF" d="M212.7,263.5h-0.4v0.6h0.4c0.2,0,0.4-0.1,0.4-0.3C213.1,263.6,213,263.5,212.7,263.5z"/>
</g>
<g>
	<path fill="#FFFFFF" d="M953.1,203.9h-25.2l-10-26h-45.8l-9.5,26H838l44.6-114.6h24.5L953.1,203.9z M910.4,158.5L894.6,116
		l-15.5,42.5H910.4z"/>
	<path fill="#FFFFFF" d="M1001.9,187.4v-29.8h-30V137h30v-29.8h20V137h30.1v20.6h-30.1v29.8H1001.9z"/>
</g>
</svg>
