<?xml version="1.0" encoding="utf-8"?>
<!-- Generator: Adobe Illustrator 18.1.0, SVG Export Plug-In . SVG Version: 6.00 Build 0)  -->
<!DOCTYPE svg PUBLIC "-//W3C//DTD SVG 1.1//EN" "http://www.w3.org/Graphics/SVG/1.1/DTD/svg11.dtd">
<svg version="1.1" id="Layer_1" xmlns="http://www.w3.org/2000/svg" xmlns:xlink="http://www.w3.org/1999/xlink" x="0px" y="0px"
	 viewBox="0 0 28.5 31.2" enable-background="new 0 0 28.5 31.2" xml:space="preserve">
<path fill-rule="evenodd" clip-rule="evenodd" fill="#FFFFFF" d="M28.4,9.6h-4.2v4.2h-2.1V9.6h-4.2V7.5h4.2V3.4h2.1v4.2h4.2V9.6z
	 M12.5,3.7c1.7,0.7,2.6,2.7,2.6,4.9c0,1.8-0.9,3.3-2.3,4.4c-1.3,1.1-1.5,1.5-1.5,2.4c0,0.8,1.4,2.1,2.1,2.6c2.1,1.6,2.8,3,2.8,5.5
	c0,3-2.8,6.1-7.9,6.1c-4.5,0-8.2-1.9-8.2-4.9c0-3.1,3.4-6.1,7.9-6.1c0.5,0,0.9,0,1.4,0c-0.6-0.6-1.1-1.4-1.1-2.3
	c0-0.6,0.2-1.1,0.4-1.6c-0.2,0-0.5,0-0.7,0c-3.7,0-6.1-2.7-6.1-6.1c0-3.3,3.4-6.2,7-6.2h8l-1.8,1.4H12.5z M8.9,19.3
	c-3.1,0-5.8,2-5.8,4.4c0,2.5,2.2,4.5,5.3,4.5c4.3,0,5.8-1.9,5.8-4.4c0-0.3,0-0.6-0.1-0.9c-0.3-1.4-1.5-2.1-3.2-3.3
	C10.2,19.4,9.6,19.3,8.9,19.3z M12.2,8.7c-0.4-2.8-2.3-5.1-4.4-5.2c-2.1-0.1-3.5,2.1-3.1,5c0.4,2.8,2.3,5.2,4.4,5.3
	C11.2,13.8,12.6,11.6,12.2,8.7z"/>
</svg>
