<?xml version="1.0" encoding="utf-8"?>
<!-- Generator: Adobe Illustrator 18.1.0, SVG Export Plug-In . SVG Version: 6.00 Build 0)  -->
<!DOCTYPE svg PUBLIC "-//W3C//DTD SVG 1.1//EN" "http://www.w3.org/Graphics/SVG/1.1/DTD/svg11.dtd">
<svg version="1.1" id="Layer_1" xmlns="http://www.w3.org/2000/svg" xmlns:xlink="http://www.w3.org/1999/xlink" x="0px" y="0px"
	 viewBox="0 0 92 92" enable-background="new 0 0 92 92" xml:space="preserve">
<g>
	<path fill="#313131" d="M45.4,0C20,0.3-0.3,21.2,0,46.6C0.3,72,21.2,92.3,46.6,92C72,91.7,92.3,70.8,92,45.4
		C91.7,20,70.8-0.3,45.4,0z M50.5,15.3c4.7,0,6.1,2.7,6.1,5.8c0,3.9-3.1,7.5-8.4,7.5c-4.4,0-6.5-2.2-6.4-5.9
		C41.7,19.6,44.3,15.3,50.5,15.3z M38.5,74.8c-3.2,0-5.5-1.9-3.3-10.5l3.7-15.1c0.6-2.4,0.7-3.4,0-3.4c-1,0-5.1,1.7-7.6,3.3
		l-1.6-2.6c7.8-6.5,16.7-10.3,20.5-10.3c3.2,0,3.7,3.8,2.1,9.6l-4.2,15.9c-0.7,2.8-0.4,3.8,0.3,3.8c1,0,4.1-1.2,7.2-3.6l1.8,2.4
		C49.9,71.8,41.7,74.8,38.5,74.8z"/>
</g>
</svg>
