<?xml version="1.0" encoding="utf-8"?>
<!-- Generator: Adobe Illustrator 18.1.0, SVG Export Plug-In . SVG Version: 6.00 Build 0)  -->
<!DOCTYPE svg PUBLIC "-//W3C//DTD SVG 1.1//EN" "http://www.w3.org/Graphics/SVG/1.1/DTD/svg11.dtd">
<svg version="1.1" id="Layer_1" xmlns="http://www.w3.org/2000/svg" xmlns:xlink="http://www.w3.org/1999/xlink" x="0px" y="0px"
	 viewBox="0 0 28.1 27.4" enable-background="new 0 0 28.1 27.4" xml:space="preserve">
<path fill-rule="evenodd" clip-rule="evenodd" fill="#FFFFFF" d="M23.2,27.4H4.9c-2.5,0-4.6-2.1-4.6-4.6V10.3h9.2
	c-0.7,1-1.2,2.1-1.2,3.4c0,3.2,2.6,5.7,5.7,5.7c3.2,0,5.7-2.6,5.7-5.7c0-1.3-0.4-2.5-1.2-3.4h9.2v12.6
	C27.8,25.4,25.7,27.4,23.2,27.4z M14,10.3c1.9,0,3.4,1.5,3.4,3.4c0,1.9-1.5,3.4-3.4,3.4c-1.9,0-3.4-1.5-3.4-3.4
	C10.6,11.8,12.1,10.3,14,10.3z M14,12.5c0.6,0,1.1-0.3,1.1-0.6c0-0.3-0.5-0.6-1.1-0.6c-0.6,0-1.1,0.3-1.1,0.6
	C12.9,12.3,13.4,12.5,14,12.5z M14,8c-1.3,0-2.5,0.4-3.4,1.1H0.3V4.5c0-2.1,1.5-3.9,3.4-4.4v6.7C3.7,7.4,4.2,8,4.9,8h3.4
	c0.6,0,1.1-0.5,1.1-1.1v-6.9h13.7c2.5,0,4.6,2.1,4.6,4.6v4.6H17.4C16.5,8.4,15.3,8,14,8z M19.8,6.8c0,0.6,0.5,1.1,1.1,1.1h1.1
	c0.6,0,1.1-0.5,1.1-1.1V5.7c0-0.6-0.5-1.1-1.1-1.1h-1.1c-0.6,0-1.1,0.5-1.1,1.1V6.8z M7.2-0.1h1.1v6.9H7.2V-0.1z M4.9-0.1H6v6.9H4.9
	V-0.1z"/>
</svg>
