<?xml version="1.0" encoding="utf-8"?>
<!-- Generator: Adobe Illustrator 18.1.0, SVG Export Plug-In . SVG Version: 6.00 Build 0)  -->
<!DOCTYPE svg PUBLIC "-//W3C//DTD SVG 1.1//EN" "http://www.w3.org/Graphics/SVG/1.1/DTD/svg11.dtd">
<svg version="1.1" id="Layer_1" xmlns="http://www.w3.org/2000/svg" xmlns:xlink="http://www.w3.org/1999/xlink" x="0px" y="0px"
	 viewBox="0 0 70 50" enable-background="new 0 0 70 50" xml:space="preserve">
<path fill="#FFFEFE" d="M10,40H5c-2.8,0-5,2.2-5,5c0,2.8,2.2,5,5,5h5c2.8,0,5-2.2,5-5C15,42.2,12.8,40,10,40z M10,20H5
	c-2.8,0-5,2.2-5,5c0,2.8,2.2,5,5,5h5c2.8,0,5-2.2,5-5C15,22.2,12.8,20,10,20z M10,0H5C2.2,0,0,2.2,0,5c0,2.8,2.2,5,5,5h5
	c2.8,0,5-2.2,5-5C15,2.2,12.8,0,10,0z M30,10h35c2.8,0,5-2.2,5-5c0-2.8-2.2-5-5-5H30c-2.8,0-5,2.2-5,5C25,7.8,27.2,10,30,10z M65,20
	H30c-2.8,0-5,2.2-5,5c0,2.8,2.2,5,5,5h35c2.8,0,5-2.2,5-5C70,22.2,67.8,20,65,20z M65,40H30c-2.8,0-5,2.2-5,5c0,2.8,2.2,5,5,5h35
	c2.8,0,5-2.2,5-5C70,42.2,67.8,40,65,40z"/>
</svg>
