<?xml version="1.0" encoding="utf-8"?>
<!-- Generator: Adobe Illustrator 18.1.0, SVG Export Plug-In . SVG Version: 6.00 Build 0)  -->
<!DOCTYPE svg PUBLIC "-//W3C//DTD SVG 1.1//EN" "http://www.w3.org/Graphics/SVG/1.1/DTD/svg11.dtd">
<svg version="1.1" id="Layer_1" xmlns="http://www.w3.org/2000/svg" xmlns:xlink="http://www.w3.org/1999/xlink" x="0px" y="0px"
	 viewBox="0 0 28.5 23" enable-background="new 0 0 28.5 23" xml:space="preserve">
<path fill-rule="evenodd" clip-rule="evenodd" fill="#FFFFFF" d="M28.3,2.8c-1,0.5-2.1,0.8-3.3,0.9c1.2-0.7,2.1-1.8,2.5-3.2
	c-1.1,0.7-2.3,1.1-3.6,1.4c-1-1.1-2.5-1.8-4.2-1.8c-3.2,0-5.7,2.6-5.7,5.7c0,0.5,0.1,0.9,0.1,1.3c-4.8-0.2-9-2.5-11.8-6
	C1.7,2,1.4,3,1.4,4.1c0,2,1,3.8,2.5,4.8C3,8.8,2.3,8.5,1.3,8.1c0,0,0,0,0,0.1c0,2.8,2,5.1,4.7,5.6C5.4,14,5,14,4.4,14
	c-0.4,0-0.7,0-1.1-0.1c0.7,2.3,2.9,3.9,5.4,4c-2,1.5-4.4,2.5-7.1,2.5c-0.5,0-0.9,0-1.4-0.1c2.5,1.6,5.6,2.6,8.8,2.6
	c10.6,0,16.3-8.8,16.3-16.3c0-0.2,0-0.5,0-0.7C26.5,5,27.5,4,28.3,2.8z"/>
</svg>
