<?xml version="1.0" encoding="utf-8"?>
<!-- Generator: Adobe Illustrator 18.1.0, SVG Export Plug-In . SVG Version: 6.00 Build 0)  -->
<!DOCTYPE svg PUBLIC "-//W3C//DTD SVG 1.1//EN" "http://www.w3.org/Graphics/SVG/1.1/DTD/svg11.dtd">
<svg version="1.1" id="Layer_1" xmlns="http://www.w3.org/2000/svg" xmlns:xlink="http://www.w3.org/1999/xlink" x="0px" y="0px"
	 viewBox="0 0 20 20" enable-background="new 0 0 20 20" xml:space="preserve">
<g>
	<path d="M10,5.1c-6.4,0-9.8,4.7-9.8,5.5c0,0.8,3.4,5.5,9.8,5.5c6.4,0,9.8-4.7,9.8-5.5C19.8,9.9,16.4,5.1,10,5.1z M10,14.8
		c-2.4,0-4.4-1.9-4.4-4.2s2-4.2,4.4-4.2s4.4,1.9,4.4,4.2S12.4,14.8,10,14.8z M10,10.6c-0.4-0.4,0.7-2.1,0-2.1
		c-1.2,0-2.2,0.9-2.2,2.1c0,1.2,1,2.1,2.2,2.1c1.2,0,2.2-0.9,2.2-2.1C12.2,10.1,10.3,11,10,10.6z"/>
</g>
</svg>
