<?xml version="1.0" encoding="utf-8"?>
<!-- Generator: Adobe Illustrator 18.1.0, SVG Export Plug-In . SVG Version: 6.00 Build 0)  -->
<!DOCTYPE svg PUBLIC "-//W3C//DTD SVG 1.1//EN" "http://www.w3.org/Graphics/SVG/1.1/DTD/svg11.dtd">
<svg version="1.1" id="Layer_1" xmlns="http://www.w3.org/2000/svg" xmlns:xlink="http://www.w3.org/1999/xlink" x="0px" y="0px"
	 viewBox="0 0 28.5 27.4" enable-background="new 0 0 28.5 27.4" xml:space="preserve">
<path fill-rule="evenodd" clip-rule="evenodd" fill="#FFFFFF" d="M23.4,27.4H5.1c-2.5,0-4.6-2-4.6-4.6V4.6C0.6,2,2.6,0,5.1,0h18.2
	c2.5,0,4.6,2,4.6,4.6v18.2C27.9,25.3,25.9,27.4,23.4,27.4z M19,5.7c-4.3,0-4.7,3.4-4.7,3.4v3.4H12V16h2.3v9.1h3.4V16h3.2l0.5-3.4
	h-3.7v-2.3c0-1.1,1.1-1.1,1.1-1.1h2.4l0.4-3C20.5,5.7,19,5.7,19,5.7z"/>
</svg>
