<?xml version="1.0" encoding="utf-8"?>
<!-- Generator: Adobe Illustrator 18.1.0, SVG Export Plug-In . SVG Version: 6.00 Build 0)  -->
<!DOCTYPE svg PUBLIC "-//W3C//DTD SVG 1.1//EN" "http://www.w3.org/Graphics/SVG/1.1/DTD/svg11.dtd">
<svg version="1.1" id="Layer_1" xmlns="http://www.w3.org/2000/svg" xmlns:xlink="http://www.w3.org/1999/xlink" x="0px" y="0px"
	 viewBox="0 0 700 700" enable-background="new 0 0 700 700" xml:space="preserve">
<g>
	<path d="M683.2,593.6L532,442.4c28-44.8,44.8-98,44.8-154C576.8,128.8,448,0,288.4,0S0,128.8,0,288.4s128.8,288.4,288.4,288.4
		c56,0,109.2-16.8,154-44.8l151.2,151.2c11.2,11.2,28,16.8,44.8,16.8c16.8,0,30.8-5.6,44.8-16.8C705.6,658,705.6,618.8,683.2,593.6z
		 M288.4,492.8c-114.8,0-207.2-92.4-207.2-207.2S173.6,78.4,288.4,78.4s207.2,92.4,207.2,207.2C492.8,400.4,400.4,492.8,288.4,492.8
		z"/>
</g>
</svg>
