<?xml version="1.0" encoding="utf-8"?>
<!-- Generator: Adobe Illustrator 18.0.0, SVG Export Plug-In . SVG Version: 6.00 Build 0)  -->
<!DOCTYPE svg PUBLIC "-//W3C//DTD SVG 1.1//EN" "http://www.w3.org/Graphics/SVG/1.1/DTD/svg11.dtd">
<svg version="1.1" id="Layer_1" xmlns="http://www.w3.org/2000/svg" xmlns:xlink="http://www.w3.org/1999/xlink" x="0px" y="0px"
	 viewBox="0 0 25 25" enable-background="new 0 0 25 25" xml:space="preserve">
<g>
	<path fill="#FFFFFF" d="M24.4,21.2L19,15.8c1-1.6,1.6-3.5,1.6-5.5C20.6,4.6,16,0,10.3,0C4.6,0,0,4.6,0,10.3
		C0,16,4.6,20.6,10.3,20.6c2,0,3.9-0.6,5.5-1.6l5.4,5.4c0.4,0.4,1,0.6,1.6,0.6c0.6,0,1.1-0.2,1.6-0.6C25.2,23.5,25.2,22.1,24.4,21.2
		z M10.3,17.6c-4.1,0-7.4-3.3-7.4-7.4c0-4.1,3.3-7.4,7.4-7.4c4.1,0,7.4,3.3,7.4,7.4C17.6,14.3,14.3,17.6,10.3,17.6z"/>
</g>
</svg>
