<?xml version="1.0" encoding="utf-8"?>
<!-- Generator: Adobe Illustrator 18.1.0, SVG Export Plug-In . SVG Version: 6.00 Build 0)  -->
<!DOCTYPE svg PUBLIC "-//W3C//DTD SVG 1.1//EN" "http://www.w3.org/Graphics/SVG/1.1/DTD/svg11.dtd">
<svg version="1.1" id="Layer_1" xmlns="http://www.w3.org/2000/svg" xmlns:xlink="http://www.w3.org/1999/xlink" x="0px" y="0px"
	 viewBox="0 248 700.4 203.6" enable-background="new 0 248 700.4 203.6" xml:space="preserve">
<g>
	<g>
		<path d="M675.1,450h-2.4v-16.1h-4.8v-2h12.9v1.6h-5.2V450H675.1z"/>
		<path d="M700.4,450H698v-16.1l-6,16.1h-1.6l-6-16.1V450h-2v-18.1h3.2l5.6,14.5l5.2-14.5h3.2V450H700.4z"/>
	</g>
	<g>
		<path d="M72.8,406.1H34.6v43.4H0V333.7h84.1v27.4H34.6V380h38.2V406.1z"/>
		<path d="M150.5,449.6l-6.4-22.9h-31.4l-6.8,22.9h-29l35.8-116.3h37.8l36.2,116.3H150.5z M119.1,401.7h18.5l-9.3-33.8L119.1,401.7z
			"/>
		<path d="M253,405.3l32.6,2c-1.6,14.1-6.8,24.9-15.7,32.6c-8.9,7.6-20.1,11.3-33,11.3c-15.7,0-28.6-5.2-38.2-15.7
			s-14.5-24.9-14.5-43c0-18.1,4.4-33,13.7-43.9c9.3-11.3,22.1-16.9,38.6-16.9c15.3,0,27.4,4.4,35.4,12.9
			c8.4,8.4,12.9,19.7,14.1,33.8l-33.4,1.6c0-7.6-1.6-13.3-4.4-16.9c-2.8-3.6-6.4-5.2-10.5-5.2c-11.3,0-16.9,11.3-16.9,33.8
			c0,12.5,1.6,21.3,4.4,25.7c2.8,4.4,7.2,6.8,12.5,6.8C246.6,424.6,251.8,418.2,253,405.3z"/>
		<path d="M344.4,361.5V450h-33.8v-88.5h-24.1v-27.8h82.1v27.8C368.5,361.5,344.4,361.5,344.4,361.5z"/>
		<path d="M424,451.6c-16.5,0-29.8-5.2-39.8-16.1c-10.5-10.9-15.3-25.3-15.3-43.4c0-17.3,4.8-31.8,14.9-43
			c9.7-11.3,23.3-16.9,41-16.9c16.1,0,29.4,5.2,39.4,16.1c10.1,10.5,15.3,24.9,15.3,42.6c0,18.5-5.2,33-15.3,44.3
			C453.8,445.9,440.5,451.6,424,451.6z M424,425c6,0,10.5-2.4,12.9-7.6c2.8-5.2,4-14.9,4-28.6c0-20.1-5.2-30.2-16.1-30.2
			c-11.7,0-17.3,11.7-17.3,34.6C407.1,414.2,412.8,425,424,425z"/>
		<path d="M589,449.6h-39.4l-17.3-44.3H521v44.3h-35.4V333.7h60.7c13.3,0,23.7,3.2,31,9.3c7.2,6.4,11.3,14.5,11.3,24.9
			c0,6.8-1.2,12.5-4,17.7c-2.8,5.2-8,9.7-16.5,13.7L589,449.6z M521,380.4h15.3c4.4,0,8-0.8,10.9-2.8c2.8-2,4-4.8,4-8.4
			c0-7.2-4.4-11.3-13.7-11.3H521V380.4z"/>
		<path d="M693.6,333.7l-36.2,66.8v49.1h-34.6v-49.1l-39.4-66.8h39l20.5,37.8l19.3-37.8H693.6z"/>
	</g>
	<g>
		<path d="M0.8,314.8v-65.2h25.7c6.4,0,11.3,1.6,14.5,4.8c3.2,3.2,4.8,6.8,4.8,11.3c0,7.2-4,12.5-11.7,14.9c4.4,1.2,8,3.2,10.1,6.4
			c2.4,2.8,3.2,6.4,3.2,10.1c0,5.2-1.6,9.3-5.2,12.9s-8.9,5.2-16.1,5.2H0.8V314.8z M8.9,277.8h14.1c6,0,9.7-1.2,11.7-3.2
			c2-2.4,2.8-4.8,2.8-8c0-2.8-1.2-5.2-3.2-7.2c-2-2-4.8-2.8-9.3-2.8H8.9C8.9,256.5,8.9,277.8,8.9,277.8z M8.9,308h17.7
			c4.4,0,7.6-1.2,10.1-3.2s3.6-4.8,3.6-8c0-2.4-0.4-4.4-1.6-6.4c-1.6-2-2.8-3.2-4.8-4.4c-2-1.2-4.8-1.6-8.9-1.6H8.9V308z"/>
		<path d="M142.8,314.8h-8.4l-6.4-18.9h-24.1l-6,18.9h-6.8l21.7-65.2h9.3L142.8,314.8z M126.3,289.9l-10.1-31.4l-10.1,31.4H126.3z"
			/>
		<path d="M183,297.9l7.2-1.6c2.8,8.9,9.3,13.3,19.3,13.3c5.2,0,8.9-1.2,11.7-3.2c2.4-2,4-5.2,4-8.9c0-2.8-0.8-4.8-2.8-6.8
			c-2-1.6-4.4-2.8-6.8-3.6l-12.9-3.2c-3.2-0.8-6-2-8.4-3.2c-2-1.2-4-3.2-5.6-5.6c-1.6-2.4-2.4-5.6-2.4-8.9c0-5.6,2-9.7,6-13.3
			c4-3.2,9.3-4.8,15.7-4.8c12.1,0,19.7,5.2,23.3,16.1l-7.6,2c-0.8-3.6-2.8-6.8-6-8.9c-3.2-2-6.4-2.8-10.1-2.8s-6.8,0.8-9.7,2.8
			c-2.8,2-4,4.4-4,8c0,4.8,3.6,8,10.5,9.7l12.1,2.8c11.3,2.8,16.9,8.9,16.9,18.1c0,5.6-2,10.5-6.4,14.1c-4,3.6-10.1,5.6-17.7,5.6
			C196.3,316.4,187.5,310,183,297.9z"/>
		<path d="M327.5,308v6.8h-42.2v-65.2h41.4v6.8h-33v21.3h26.1v6.4h-26.1V308C293.7,308,327.5,308,327.5,308z"/>
		<path d="M377.8,314.8v-65.2h25.7c6.4,0,11.3,1.6,14.5,4.8c3.2,3.2,4.8,6.8,4.8,11.3c0,7.2-4,12.5-11.7,14.9
			c4.4,1.2,8,3.2,10.1,6.4c2.4,2.8,3.2,6.4,3.2,10.1c0,5.2-1.6,9.3-5.2,12.9s-8.9,5.2-16.1,5.2h-25.3V314.8z M385.4,277.8h14.1
			c6,0,9.7-1.2,11.7-3.2c2-2.4,2.8-4.8,2.8-8c0-2.8-1.2-5.2-3.2-7.2c-2-2-5.2-2.8-9.7-2.8H385v21.3H385.4z M385.4,308h17.7
			c4.4,0,7.6-1.2,10.1-3.2s3.6-4.8,3.6-8c0-2.4-0.4-4.4-1.6-6.4c-1.2-2-2.4-3.6-4.4-4.4c-2-1.2-4.8-1.6-8.4-1.6h-16.5V308H385.4z"/>
		<path d="M519.8,314.8h-8.4l-6.4-18.9h-24.1l-6,18.9h-6.8l21.3-65.2h9.3L519.8,314.8z M502.9,289.9l-10.1-31.4l-10.1,31.4H502.9z"
			/>
		<path d="M605.5,308v6.8h-38.2v-65.2h8V308H605.5z"/>
		<path d="M692.4,308v6.8h-38.2v-65.2h8V308H692.4z"/>
	</g>
</g>
</svg>
