<?xml version="1.0" encoding="utf-8"?>
<!-- Generator: Adobe Illustrator 18.0.0, SVG Export Plug-In . SVG Version: 6.00 Build 0)  -->
<!DOCTYPE svg PUBLIC "-//W3C//DTD SVG 1.1//EN" "http://www.w3.org/Graphics/SVG/1.1/DTD/svg11.dtd">
<svg version="1.1" id="Layer_1" xmlns="http://www.w3.org/2000/svg" xmlns:xlink="http://www.w3.org/1999/xlink" x="0px" y="0px"
	 viewBox="0 0 174 50.5" enable-background="new 0 0 174 50.5" xml:space="preserve">
<g>
	<g>
		<path fill="#FFFFFF" d="M167.8,50.1h-0.6v-4H166v-0.5h3.2V46h-1.3V50.1z"/>
		<path fill="#FFFFFF" d="M174.1,50.1h-0.6v-4l-1.5,4h-0.4l-1.5-4v4h-0.5v-4.5h0.8l1.4,3.6l1.3-3.6h0.8V50.1z"/>
	</g>
	<g>
		<path fill="#FFFFFF" d="M18.1,39.2H8.6V50H0V21.2h20.9V28H8.6v4.7h9.5V39.2z"/>
		<path fill="#FFFFFF" d="M37.4,50l-1.6-5.7H28L26.3,50h-7.2l8.9-28.9h9.4l9,28.9H37.4z M29.6,38.1h4.6l-2.3-8.4L29.6,38.1z"/>
		<path fill="#FFFFFF" d="M62.9,39l8.1,0.5c-0.4,3.5-1.7,6.2-3.9,8.1c-2.2,1.9-5,2.8-8.2,2.8c-3.9,0-7.1-1.3-9.5-3.9
			c-2.4-2.6-3.6-6.2-3.6-10.7c0-4.5,1.1-8.2,3.4-10.9c2.3-2.8,5.5-4.2,9.6-4.2c3.8,0,6.8,1.1,8.8,3.2c2.1,2.1,3.2,4.9,3.5,8.4
			l-8.3,0.4c0-1.9-0.4-3.3-1.1-4.2c-0.7-0.9-1.6-1.3-2.6-1.3c-2.8,0-4.2,2.8-4.2,8.4c0,3.1,0.4,5.3,1.1,6.4c0.7,1.1,1.8,1.7,3.1,1.7
			C61.3,43.8,62.6,42.2,62.9,39z"/>
		<path fill="#FFFFFF" d="M85.6,28.1v22h-8.4v-22h-6v-6.9h20.4v6.9H85.6z"/>
		<path fill="#FFFFFF" d="M105.4,50.5c-4.1,0-7.4-1.3-9.9-4c-2.6-2.7-3.8-6.3-3.8-10.8c0-4.3,1.2-7.9,3.7-10.7
			c2.4-2.8,5.8-4.2,10.2-4.2c4,0,7.3,1.3,9.8,4c2.5,2.6,3.8,6.2,3.8,10.6c0,4.6-1.3,8.2-3.8,11C112.8,49.1,109.5,50.5,105.4,50.5z
			 M105.4,43.9c1.5,0,2.6-0.6,3.2-1.9c0.7-1.3,1-3.7,1-7.1c0-5-1.3-7.5-4-7.5c-2.9,0-4.3,2.9-4.3,8.6
			C101.2,41.2,102.6,43.9,105.4,43.9z"/>
		<path fill="#FFFFFF" d="M146.4,50h-9.8L132.3,39h-2.8V50h-8.8V21.2h15.1c3.3,0,5.9,0.8,7.7,2.3c1.8,1.6,2.8,3.6,2.8,6.2
			c0,1.7-0.3,3.1-1,4.4c-0.7,1.3-2,2.4-4.1,3.4L146.4,50z M129.5,32.8h3.8c1.1,0,2-0.2,2.7-0.7c0.7-0.5,1-1.2,1-2.1
			c0-1.8-1.1-2.8-3.4-2.8h-4.1V32.8z"/>
		<path fill="#FFFFFF" d="M172.4,21.2l-9,16.6V50h-8.6V37.8L145,21.2h9.7l5.1,9.4l4.8-9.4H172.4z"/>
	</g>
	<g>
		<path fill="#FFFFFF" d="M0.2,16.5V0.3h6.4c1.6,0,2.8,0.4,3.6,1.2c0.8,0.8,1.2,1.7,1.2,2.8c0,1.8-1,3.1-2.9,3.7
			c1.1,0.3,2,0.8,2.5,1.6c0.6,0.7,0.8,1.6,0.8,2.5c0,1.3-0.4,2.3-1.3,3.2c-0.9,0.9-2.2,1.3-4,1.3H0.2z M2.2,7.3h3.5
			c1.5,0,2.4-0.3,2.9-0.8c0.5-0.6,0.7-1.2,0.7-2c0-0.7-0.3-1.3-0.8-1.8C8,2.2,7.3,2,6.2,2h-4V7.3z M2.2,14.8h4.4
			c1.1,0,1.9-0.3,2.5-0.8c0.6-0.5,0.9-1.2,0.9-2c0-0.6-0.1-1.1-0.4-1.6C9.2,9.9,8.9,9.6,8.4,9.3C7.9,9,7.2,8.9,6.2,8.9H2.2V14.8z"/>
		<path fill="#FFFFFF" d="M35.5,16.5h-2.1l-1.6-4.7h-6l-1.5,4.7h-1.7L28,0.3h2.3L35.5,16.5z M31.4,10.3l-2.5-7.8l-2.5,7.8H31.4z"/>
		<path fill="#FFFFFF" d="M45.5,12.3l1.8-0.4c0.7,2.2,2.3,3.3,4.8,3.3c1.3,0,2.2-0.3,2.9-0.8c0.6-0.5,1-1.3,1-2.2
			c0-0.7-0.2-1.2-0.7-1.7c-0.5-0.4-1.1-0.7-1.7-0.9l-3.2-0.8c-0.8-0.2-1.5-0.5-2.1-0.8c-0.5-0.3-1-0.8-1.4-1.4
			c-0.4-0.6-0.6-1.4-0.6-2.2c0-1.4,0.5-2.4,1.5-3.3c1-0.8,2.3-1.2,3.9-1.2c3,0,4.9,1.3,5.8,4l-1.9,0.5c-0.2-0.9-0.7-1.7-1.5-2.2
			c-0.8-0.5-1.6-0.7-2.5-0.7c-0.9,0-1.7,0.2-2.4,0.7c-0.7,0.5-1,1.1-1,2c0,1.2,0.9,2,2.6,2.4l3,0.7c2.8,0.7,4.2,2.2,4.2,4.5
			c0,1.4-0.5,2.6-1.6,3.5c-1,0.9-2.5,1.4-4.4,1.4C48.8,16.9,46.6,15.3,45.5,12.3z"/>
		<path fill="#FFFFFF" d="M81.4,14.8v1.7H70.9V0.3h10.3V2h-8.2v5.3h6.5v1.6h-6.5v5.9H81.4z"/>
		<path fill="#FFFFFF" d="M93.9,16.5V0.3h6.4c1.6,0,2.8,0.4,3.6,1.2c0.8,0.8,1.2,1.7,1.2,2.8c0,1.8-1,3.1-2.9,3.7
			c1.1,0.3,2,0.8,2.5,1.6c0.6,0.7,0.8,1.6,0.8,2.5c0,1.3-0.4,2.3-1.3,3.2c-0.9,0.9-2.2,1.3-4,1.3H93.9z M95.8,7.3h3.5
			c1.5,0,2.4-0.3,2.9-0.8c0.5-0.6,0.7-1.2,0.7-2c0-0.7-0.3-1.3-0.8-1.8c-0.5-0.5-1.3-0.7-2.4-0.7h-4V7.3z M95.8,14.8h4.4
			c1.1,0,1.9-0.3,2.5-0.8c0.6-0.5,0.9-1.2,0.9-2c0-0.6-0.1-1.1-0.4-1.6c-0.3-0.5-0.6-0.9-1.1-1.1c-0.5-0.3-1.2-0.4-2.1-0.4h-4.1
			V14.8z"/>
		<path fill="#FFFFFF" d="M129.2,16.5h-2.1l-1.6-4.7h-6l-1.5,4.7h-1.7l5.3-16.2h2.3L129.2,16.5z M125,10.3l-2.5-7.8l-2.5,7.8H125z"
			/>
		<path fill="#FFFFFF" d="M150.5,14.8v1.7H141V0.3h2v14.5H150.5z"/>
		<path fill="#FFFFFF" d="M172.1,14.8v1.7h-9.5V0.3h2v14.5H172.1z"/>
	</g>
</g>
</svg>
