<svg class="clock-svg" version="1.1" xmlns="http://www.w3.org/2000/svg" xmlns:xlink="http://www.w3.org/1999/xlink" x="0px" y="0px" viewBox="0 0 506 504" enable-background="new 0 0 506 504" xml:space="preserve">
	<g id="dial">
		<path fill="none" d="M412.7,91.3C369.9,48.6,313,25,252.5,25S135.1,48.6,92.3,91.3S26,191,26,251.5c0,60.5,23.6,117.4,66.3,160.2
			S192,478,252.5,478s117.4-23.6,160.2-66.3S479,312,479,251.5C479,191,455.4,134.1,412.7,91.3z M68.8,140.4l45.5,25.2l-7.3,13.1
			l-45.5-25.2L68.8,140.4z M38.5,242l52,0.1l0,15l-52-0.1L38.5,242z M75.5,370l-8-12.7l43.9-27.8l8,12.7L75.5,370z M150.5,62.6
			l26.2,44.9l-13,7.6l-26.2-44.9L150.5,62.6z M153.5,440.7l-12.9-7.6l26.3-44.9l12.9,7.6L153.5,440.7z M258.5,462.5h-15v-52h15
			V462.5z M258.5,89.5h-15v-52h15V89.5z M351.5,437.4l-26.2-44.9l13-7.6l26.2,44.9L351.5,437.4z M338.6,115.3l-12.9-7.6l26.3-44.9
			l12.9,7.6L338.6,115.3z M426.5,130l8,12.7l-43.9,27.8l-8-12.7L426.5,130z M433.2,359.6l-45.5-25.2l7.3-13.1l45.5,25.2L433.2,359.6
			z M411.5,257.8l0-15l52,0.1l0,15L411.5,257.8z"/>
		<path class="fill-me" fill="#231F20" d="M428.9,75.1C381.8,28,319.1,2,252.5,2S123.2,28,76.1,75.1C29,122.2,3,184.9,3,251.5
			c0,66.6,26,129.3,73.1,176.4C123.2,475,185.9,501,252.5,501s129.3-26,176.4-73.1C476,380.8,502,318.1,502,251.5
			C502,184.9,476,122.2,428.9,75.1z M412.7,411.7C369.9,454.4,313,478,252.5,478s-117.4-23.6-160.2-66.3S26,312,26,251.5
			C26,191,49.6,134.1,92.3,91.3S192,25,252.5,25s117.4,23.6,160.2,66.3S479,191,479,251.5C479,312,455.4,368.9,412.7,411.7z"/>
		<rect class="fill-me"  x="243.5" y="37.5" fill="#231F20" width="15" height="52"/>
		<rect class="fill-me"  x="243.5" y="410.5" fill="#231F20" width="15" height="52"/>
		<rect class="fill-me"  x="131.1" y="81.4" transform="matrix(0.5034 0.8641 -0.8641 0.5034 154.7989 -91.6323)" fill="#231F20" width="52" height="15"/>
		<rect class="fill-me"  x="318.9" y="403.6" transform="matrix(-0.5034 -0.8641 0.8641 -0.5034 163.2438 916.1142)" fill="#231F20" width="52" height="15"/>
		<rect class="fill-me"  x="61.9" y="152.1" transform="matrix(0.8746 0.4848 -0.4848 0.8746 88.3815 -22.5955)" fill="#231F20" width="52" height="15"/>
		<rect class="fill-me"  x="388.1" y="332.9" transform="matrix(-0.8746 -0.4848 0.4848 -0.8746 611.3049 838.9008)" fill="#231F20" width="52" height="15"/>
		<rect class="fill-me"  x="38.5" y="242.1" transform="matrix(1 2.149142e-03 -2.149142e-03 1 0.5366 -0.138)" fill="#231F20" width="52" height="15"/>
		<rect class="fill-me"  x="430" y="224.4" transform="matrix(2.148464e-03 -1 1 2.148464e-03 186.1596 687.3611)" fill="#231F20" width="15" height="52"/>
		<rect class="fill-me"  x="85.9" y="323.8" transform="matrix(-0.535 -0.8448 0.8448 -0.535 -152.0828 615.8552)" fill="#231F20" width="15" height="52"/>
		<rect class="fill-me"  x="401.1" y="124.2" transform="matrix(0.535 0.8448 -0.8448 0.535 316.8918 -275.3224)" fill="#231F20" width="15" height="52"/>
		<rect class="fill-me"  x="152.7" y="388.5" transform="matrix(-0.8628 -0.5055 0.5055 -0.8628 88.8806 853.0391)" fill="#231F20" width="15" height="52"/>
		<rect class="fill-me"  x="337.8" y="63.1" transform="matrix(-0.8628 -0.5055 0.5055 -0.8628 598.1583 340.4598)" fill="#231F20" width="15" height="52"/>
	</g>
	<g id="time-1100" class="hands">
		<g id="_x39_00_14_">
			<polygon  class="fill-me" fill="#231F20" points="244.9,322.5 272.1,321.8 264.9,61.4 246.6,62.3"/>
		</g>
		<g id="_x39_00_13_">
			<polygon  class="fill-me" fill="#231F20" points="279.7,301.7 172.7,141.6 187.5,130 302.3,286.8"/>
		</g>
	</g>
	<g id="time-1000" class="hands">
		<g id="_x39_00_12_">
			<polygon class="fill-me" fill="#231F20" points="244.9,322.5 272.1,321.8 264.9,61.4 246.6,62.3"/>
		</g>
		<g id="_x39_00_11_">
			<polygon class="fill-me"  fill="#231F20" points="293,287.1 126,191.3 134.1,174.3 306.6,263.7"/>
		</g>
	</g>
	<g id="time-955" class="hands">
		<g id="_x39_00_10_">
			<polygon class="fill-me"  fill="#231F20" points="269.5,309.9 293.2,296.5 164.3,70.2 148.6,79.7"/>
		</g>
		<g id="_x39_00_9_">
			<polygon class="fill-me"  fill="#231F20" points="293.8,286.3 122.1,199.4 129.3,182 306.2,262.3"/>
		</g>
	</g>
	<g id="time-945" class="hands">
		<g id="_x39_00_8_">
			<polygon class="fill-me"  fill="#231F20" points="318.8,271.5 319.9,244.3 59.6,235.1 59.3,253.4"/>
		</g>
		<g id="_x39_00_7_">
			<polygon class="fill-me"  fill="#231F20" points="295.3,282.6 117.9,207.9 123.8,190.1 306,257.8"/>
		</g>
	</g>
	<g id="time-930" class="hands">
		<g id="_x39_00_6_">
			<polygon class="fill-me"  fill="#231F20" points="269.8,173 242.6,173.6 249.8,434 268.1,433.1"/>
		</g>
		<g id="_x39_00_5_">
			<polygon class="fill-me"  fill="#231F20" points="305.1,273.4 118.9,224.6 122.3,206.1 312.2,247.3"/>
		</g>
	</g>
	<g id="time-920" class="hands">
		<g id="_x39_00_16_">
			<polygon class="fill-me"  fill="#231F20" points="189.7,199.5 176.7,223.4 405.7,347.4 414.1,331.1"/>
		</g>
		<g id="_x39_00_15_">
			<polygon class="fill-me"  fill="#231F20" points="306.6,263.5 115.9,237.5 117,218.7 310.5,236.7"/>
		</g>
	</g>	
	<g id="time-900" class="hands">
		<g id="_x39_00_2_">
			<polygon class="fill-me"  fill="#231F20" points="244.9,322.5 272.1,321.8 264.9,61.4 246.6,62.3"/>
		</g>
		<g id="_x39_00_1_">
			<polygon class="fill-me"  fill="#231F20" points="310.2,267.2 118,256.2 117.6,237.4 312,240.2"/>
		</g>
	</g>
	<g id="time-800" class="hands">
		<g id="_x39_00_4_">
			<polygon class="fill-me" fill="#231F20" points="244.9,322.5 272.1,321.8 264.9,61.4 246.6,62.3"/>
		</g>
		<g id="_x39_00_3_">
			<polygon class="fill-me"  fill="#231F20" points="308.8,232.7 142.4,329.5 131.7,314.1 295.4,209.2"/>
		</g>
	</g>
</svg>
