<?xml version="1.0" encoding="utf-8"?>
<!-- Generator: Adobe Illustrator 18.1.0, SVG Export Plug-In . SVG Version: 6.00 Build 0)  -->
<!DOCTYPE svg PUBLIC "-//W3C//DTD SVG 1.1//EN" "http://www.w3.org/Graphics/SVG/1.1/DTD/svg11.dtd">
<svg version="1.1" id="Layer_1" xmlns="http://www.w3.org/2000/svg" xmlns:xlink="http://www.w3.org/1999/xlink" x="0px" y="0px"
	 viewBox="300 0 200 200" enable-background="new 300 0 200 200" xml:space="preserve">
<g>
	<path fill="none" d="M464.2,35.8C447.1,18.6,424.3,9.2,400,9.2c-24.2,0-47.1,9.4-64.2,26.6c-17.1,17.2-26.6,40-26.6,64.2
		s9.4,47.1,26.6,64.2c17.2,17.2,39.9,26.6,64.2,26.6c24.2,0,47.1-9.4,64.2-26.6c17.2-17.2,26.6-39.9,26.6-64.2
		C490.8,75.8,481.3,52.9,464.2,35.8z M485.6,89.7l-6.5,0.7l-0.3-2.7l6.5-0.7L485.6,89.7z M484.6,96.6v6l-20.8-0.1v-6L484.6,96.6z
		 M484,80.4l-6.3,1.3l-0.5-2.7l6.3-1.3L484,80.4z M481.6,71.7l-6.2,2l-0.9-2.6l6.2-2L481.6,71.7z M478.4,63.6l-5.9,2.6l-1.1-2.5
		l5.9-2.6L478.4,63.6z M473,56.3l-17.6,11.1l-3.2-5.1l17.6-11.1L473,56.3z M468.1,46.6l1.5,2.2l-5.3,3.7l-1.5-2.2L468.1,46.6z
		 M463.8,41.6l-4.9,4.3l-1.8-2l4.9-4.3L463.8,41.6z M455.3,33.4l2,1.8l-4.4,4.8l-2-1.8L455.3,33.4z M433.8,20.3l2.5,1.1l-2.8,5.9
		l-2.5-1.1L433.8,20.3z M439.9,24.4l5.2,3.1l-10.5,18l-5.2-3.1L439.9,24.4z M416.2,15l2.6,0.6l-1.5,6.3l-2.6-0.6L416.2,15z
		 M407.5,13.9l2.7,0.3l-0.8,6.5l-2.7-0.3L407.5,13.9z M391.6,14.2l0.6,6.5l-2.7,0.3l-0.6-6.5L391.6,14.2z M382.4,15.6l1.3,6.4
		l-2.7,0.5l-1.3-6.4L382.4,15.6z M373.6,18l1.9,6.2L373,25l-1.9-6.2L373.6,18z M365.5,21.2l2.6,6l-2.5,1.1l-2.6-6L365.5,21.2z
		 M359.1,24.3l10.5,18l-5.2,3l-10.5-18L359.1,24.3z M350.3,29.8l3.7,5.3l-2.2,1.5l-3.7-5.3L350.3,29.8z M343.1,35.7l4.3,4.9l-2,1.8
		l-4.3-4.9L343.1,35.7z M336.6,42.2l4.8,4.4l-1.8,2l-4.8-4.4L336.6,42.2z M331.2,48.9l5.2,3.9l-1.6,2.1l-5.2-3.9L331.2,48.9z
		 M326.4,55.5l18.2,10.1l-2.9,5.3l-18.2-10.1L326.4,55.5z M322,65.1l5.9,2.7l-1.1,2.5l-5.9-2.7L322,65.1z M318.7,73.8l6.2,2
		l-0.9,2.6l-6.2-2L318.7,73.8z M316.5,82.6l6.3,1.3l-0.5,2.7l-6.3-1.3L316.5,82.6z M315.2,91.3l6.5,0.7l-0.3,2.7l-6.5-0.7
		L315.2,91.3z M314.2,96.2l20.8,0.1v6l-20.8-0.1V96.2z M315.4,109l6.5-0.7l0.3,2.7l-6.5,0.7L315.4,109z M316.9,118.2l6.3-1.3
		l0.5,2.7l-6.3,1.3L316.9,118.2z M319.4,127l6.2-2l0.9,2.6l-6.2,2L319.4,127z M322.6,135l5.9-2.6l1.1,2.5l-5.9,2.6L322.6,135z
		 M325.8,142.4l17.6-11.1l3.2,5.1L329,147.5L325.8,142.4z M332.9,152.1l-1.5-2.2l5.3-3.7l1.5,2.2L332.9,152.1z M337.2,157.1l4.9-4.3
		l1.8,2l-4.9,4.3L337.2,157.1z M345.7,165.3l-2-1.8l4.4-4.8l2,1.8L345.7,165.3z M350.5,169l3.9-5.2l2.2,1.6l-3.9,5.2L350.5,169z
		 M367.2,178.4l-2.5-1.1l2.8-5.9l2.5,1.1L367.2,178.4z M360.3,175.8l-5.2-3.1l10.5-18l5.2,3.1L360.3,175.8z M376,181.5l-2.5-0.9
		l2.1-6.1l2.5,0.9L376,181.5z M384.8,183.6l-2.6-0.6l1.5-6.3l2.6,0.6L384.8,183.6z M393.5,184.8l-2.7-0.3l0.8-6.5l2.7,0.3
		L393.5,184.8z M402.2,184.3h-6v-20.7h6V184.3z M409.4,184.6l-0.6-6.5l2.7-0.3l0.6,6.5L409.4,184.6z M418.6,183.1l-1.3-6.4l2.7-0.5
		l1.3,6.4L418.6,183.1z M423.1,106.3l-15.9-0.9l0.6,22.8l-10.9,0.3l0.1-23.6l-51-2.9l-0.1-7.5l51.2,0.6l0.4-60.1h-1.4V14.1h6V24
		l2.7-0.1l2,71.4l16.9,0.3L423.1,106.3z M422.8,23.3l2.1-6.1l2.5,0.9l-2.1,6.1L422.8,23.3z M427.4,180.7l-1.9-6.2l2.6-0.8l1.9,6.2
		L427.4,180.7z M435.5,177.6l-2.6-6l2.5-1.1l2.6,6L435.5,177.6z M439.7,174.5l-10.5-18l5.2-3l10.5,18L439.7,174.5z M444.5,33.4
		l3.9-5.2l2.2,1.6l-3.9,5.2L444.5,33.4z M450.7,168.8l-3.7-5.3l2.2-1.5l3.7,5.3L450.7,168.8z M457.9,163l-4.3-4.9l2-1.8l4.3,4.9
		L457.9,163z M464.3,156.5l-4.8-4.4l1.8-2l4.8,4.4L464.3,156.5z M469.8,149.7l-5.2-3.9l1.6-2.1l5.2,3.9L469.8,149.7z M472.4,143.3
		l-18.2-10.1l2.9-5.3l18.2,10.1L472.4,143.3z M479,133.6l-5.9-2.7l1.1-2.5l5.9,2.7L479,133.6z M482.3,124.8l-6.2-2l0.9-2.6l6.2,2
		L482.3,124.8z M484.5,116.1l-6.3-1.3l0.5-2.7l6.3,1.3L484.5,116.1z M479.3,106.7l0.3-2.7l6.5,0.7l-0.3,2.7L479.3,106.7z"/>
	<path fill="#FFFFFF" d="M470.7,29.3C451.8,10.4,426.7,0,400,0s-51.8,10.4-70.7,29.3C310.4,48.2,300,73.3,300,100
		s10.4,51.8,29.3,70.7c18.9,18.9,44,29.3,70.7,29.3s51.8-10.4,70.7-29.3s29.3-44,29.3-70.7S489.6,48.2,470.7,29.3z M464.2,164.2
		c-17.2,17.2-39.9,26.6-64.2,26.6c-24.2,0-47.1-9.4-64.2-26.6c-17.2-17.2-26.6-39.9-26.6-64.2c0-24.2,9.4-47.1,26.6-64.2
		C352.9,18.6,375.7,9.2,400,9.2c24.2,0,47.1,9.4,64.2,26.6c17.2,17.2,26.6,39.9,26.6,64.2C490.8,124.2,481.3,147.1,464.2,164.2z"/>
	<rect x="396.2" y="163.6" fill="#FFFFFF" width="6" height="20.7"/>
	
		<rect x="351.4" y="31.8" transform="matrix(-0.5034 -0.8641 0.8641 -0.5034 513.8445 364.8934)" fill="#FFFFFF" width="20.8" height="6"/>
	
		<rect x="426.6" y="161" transform="matrix(0.5034 0.8641 -0.8641 0.5034 358.6976 -296.1601)" fill="#FFFFFF" width="20.8" height="6"/>
	
		<rect x="323.6" y="60.2" transform="matrix(-0.8746 -0.4848 0.4848 -0.8746 595.5822 280.355)" fill="#FFFFFF" width="20.8" height="6"/>
	
		<rect x="454.4" y="132.6" transform="matrix(0.8746 0.4848 -0.4848 0.8746 124.0317 -208.3387)" fill="#FFFFFF" width="20.8" height="6"/>
	
		<rect x="314.2" y="96.3" transform="matrix(-1 -2.148539e-03 2.148539e-03 -1 649.0516 199.229)" fill="#FFFFFF" width="20.8" height="6"/>
	
		<rect x="463.7" y="96.6" transform="matrix(1 2.148534e-03 -2.148534e-03 1 0.215 -1.0184)" fill="#FFFFFF" width="20.8" height="6"/>
	
		<rect x="325.8" y="136.4" transform="matrix(-0.8448 0.535 -0.535 -0.8448 694.8875 77.2322)" fill="#FFFFFF" width="20.8" height="6"/>
	<rect x="452.1" y="56.4" transform="matrix(0.8448 -0.535 0.535 0.8448 39.9884 256.69)" fill="#FFFFFF" width="20.8" height="6"/>
	
		<rect x="360" y="154.9" transform="matrix(0.8628 0.5055 -0.5055 0.8628 133.3652 -160.8062)" fill="#FFFFFF" width="6" height="20.8"/>
	
		<rect x="434.2" y="24.5" transform="matrix(-0.8628 -0.5055 0.5055 -0.8628 796.7137 286.0381)" fill="#FFFFFF" width="6" height="20.8"/>
	<polygon fill="#FFFFFF" points="404.9,23.8 402.2,24 402.2,14.1 396.2,14.1 396.2,34.8 397.6,34.8 397.2,94.9 345.9,94.3 
		346.1,101.9 397.1,104.8 396.9,128.4 407.9,128.2 407.2,105.3 423.1,106.3 423.8,95.5 406.9,95.2 	"/>
	
		<rect x="387.2" y="16.1" transform="matrix(-9.028834e-02 -0.9959 0.9959 -9.028834e-02 408.3382 407.9514)" fill="#FFFFFF" width="6.5" height="2.7"/>
	
		<rect x="407.2" y="179.8" transform="matrix(9.029455e-02 0.9959 -0.9959 9.029455e-02 553.8561 -243.9708)" fill="#FFFFFF" width="6.5" height="2.7"/>
	
		<rect x="378.4" y="17.7" transform="matrix(-0.1981 -0.9802 0.9802 -0.1981 438.5993 396.9843)" fill="#FFFFFF" width="6.5" height="2.7"/>
	
		<rect x="416.1" y="178.3" transform="matrix(0.1981 0.9802 -0.9802 0.1981 512.351 -266.9985)" fill="#FFFFFF" width="6.5" height="2.7"/>
	
		<rect x="370" y="20.1" transform="matrix(-0.3006 -0.9538 0.9538 -0.3006 464.9651 383.9713)" fill="#FFFFFF" width="6.5" height="2.7"/>
	
		<rect x="424.4" y="175.8" transform="matrix(0.3005 0.9538 -0.9538 0.3005 468.176 -284.0059)" fill="#FFFFFF" width="6.5" height="2.7"/>
	
		<rect x="362.3" y="23.3" transform="matrix(-0.396 -0.9182 0.9182 -0.396 487.6189 370.1122)" fill="#FFFFFF" width="6.5" height="2.7"/>
	
		<rect x="432.2" y="172.6" transform="matrix(0.396 0.9182 -0.9182 0.396 422.7813 -294.8142)" fill="#FFFFFF" width="6.5" height="2.7"/>
	
		<rect x="347.8" y="32" transform="matrix(-0.5741 -0.8188 0.8188 -0.5741 525.3337 339.9859)" fill="#FFFFFF" width="6.5" height="2.7"/>
	
		<rect x="446.6" y="164" transform="matrix(0.5741 0.8188 -0.8188 0.5741 326.9869 -297.9623)" fill="#FFFFFF" width="6.5" height="2.7"/>
	
		<rect x="340.9" y="37.7" transform="matrix(-0.6598 -0.7515 0.7515 -0.6598 541.9208 323.4999)" fill="#FFFFFF" width="6.5" height="2.7"/>
	
		<rect x="453.5" y="158.2" transform="matrix(0.6598 0.7515 -0.7515 0.6598 275.3133 -288.987)" fill="#FFFFFF" width="6.5" height="2.7"/>
	
		<rect x="334.9" y="44" transform="matrix(-0.7355 -0.6775 0.6775 -0.7355 556.1724 307.8785)" fill="#FFFFFF" width="6.5" height="2.7"/>
	
		<rect x="459.5" y="151.9" transform="matrix(0.7355 0.6775 -0.6775 0.7355 226.2672 -273.0018)" fill="#FFFFFF" width="6.5" height="2.7"/>
	
		<rect x="329.7" y="50.7" transform="matrix(-0.8006 -0.5992 0.5992 -0.8006 568.3358 293.1701)" fill="#FFFFFF" width="6.5" height="2.7"/>
	
		<rect x="464.7" y="145.3" transform="matrix(0.8006 0.5992 -0.5992 0.8006 181.2121 -251.1804)" fill="#FFFFFF" width="6.5" height="2.7"/>
	
		<rect x="321.1" y="66.3" transform="matrix(-0.911 -0.4125 0.4125 -0.911 591.9421 263.0897)" fill="#FFFFFF" width="6.5" height="2.7"/>
	
		<rect x="473.4" y="129.6" transform="matrix(0.911 0.4125 -0.4125 0.911 96.4623 -184.9446)" fill="#FFFFFF" width="6.5" height="2.7"/>
	
		<rect x="318.1" y="74.8" transform="matrix(-0.9504 -0.311 0.311 -0.9504 603.0996 248.4275)" fill="#FFFFFF" width="6.5" height="2.7"/>
	
		<rect x="476.4" y="121.1" transform="matrix(0.9504 0.311 -0.311 0.9504 61.8884 -143.0897)" fill="#FFFFFF" width="6.5" height="2.7"/>
	
		<rect x="316.1" y="83.2" transform="matrix(-0.978 -0.2088 0.2088 -0.978 614.0113 234.0463)" fill="#FFFFFF" width="6.5" height="2.7"/>
	
		<rect x="478.3" y="112.7" transform="matrix(0.978 0.2088 -0.2088 0.978 34.4319 -98.044)" fill="#FFFFFF" width="6.5" height="2.7"/>
	
		<rect x="315" y="91.6" transform="matrix(-0.9941 -0.1082 0.1082 -0.9941 624.6483 219.8047)" fill="#FFFFFF" width="6.5" height="2.7"/>
	
		<rect x="481.4" y="102.4" transform="matrix(-0.1082 0.9941 -0.9941 -0.1082 640.0441 -362.7384)" fill="#FFFFFF" width="2.7" height="6.5"/>
	
		<rect x="315.5" y="108.7" transform="matrix(-0.9951 9.933504e-02 -9.933504e-02 -0.9951 646.8718 187.891)" fill="#FFFFFF" width="6.5" height="2.7"/>
	
		<rect x="479" y="87.3" transform="matrix(0.9951 -9.933496e-02 9.933496e-02 0.9951 -6.4189 48.3447)" fill="#FFFFFF" width="6.5" height="2.7"/>
	
		<rect x="317.2" y="117.5" transform="matrix(-0.9783 0.207 -0.207 -0.9783 658.5514 168.9088)" fill="#FFFFFF" width="6.5" height="2.7"/>
	
		<rect x="477.3" y="78.4" transform="matrix(0.9783 -0.207 0.207 0.9783 -6.1115 101.2141)" fill="#FFFFFF" width="6.5" height="2.7"/>
	
		<rect x="319.6" y="125.9" transform="matrix(-0.951 0.3092 -0.3092 -0.951 669.3387 148.4614)" fill="#FFFFFF" width="6.5" height="2.7"/>
	
		<rect x="474.8" y="70.1" transform="matrix(0.951 -0.3092 0.3092 0.951 1.3435 151.3227)" fill="#FFFFFF" width="6.5" height="2.7"/>
	
		<rect x="322.9" y="133.6" transform="matrix(-0.9146 0.4044 -0.4044 -0.9146 679.0896 126.5656)" fill="#FFFFFF" width="6.5" height="2.7"/>
	
		<rect x="471.5" y="62.3" transform="matrix(0.9146 -0.4044 0.4044 0.9146 14.8003 197.4457)" fill="#FFFFFF" width="6.5" height="2.7"/>
	
		<rect x="331.5" y="147.8" transform="matrix(-0.8155 0.5788 -0.5788 -0.8155 694.1494 77.0018)" fill="#FFFFFF" width="6.5" height="2.7"/>
	
		<rect x="462.9" y="48.2" transform="matrix(0.8155 -0.5788 0.5788 0.8155 57.3242 278.9754)" fill="#FFFFFF" width="6.5" height="2.7"/>
	
		<rect x="337.3" y="154.6" transform="matrix(-0.7477 0.6641 -0.6641 -0.7477 698.8003 46.3899)" fill="#FFFFFF" width="6.5" height="2.7"/>
	
		<rect x="457.1" y="41.3" transform="matrix(0.7477 -0.6641 0.6641 0.7477 87.8057 316.493)" fill="#FFFFFF" width="6.5" height="2.7"/>
	
		<rect x="345.5" y="158.7" transform="matrix(0.7394 0.6733 -0.6733 0.7394 199.4477 -191.3423)" fill="#FFFFFF" width="2.7" height="6.5"/>
	
		<rect x="452.7" y="33.4" transform="matrix(-0.7394 -0.6733 0.6733 -0.7394 765.1324 369.578)" fill="#FFFFFF" width="2.7" height="6.5"/>
	
		<rect x="350.3" y="165.8" transform="matrix(-0.5946 0.804 -0.804 -0.5946 698.1273 -17.7814)" fill="#FFFFFF" width="6.5" height="2.7"/>
	
		<rect x="444.2" y="30.2" transform="matrix(-0.5946 0.804 -0.804 -0.5946 738.9756 -309.459)" fill="#FFFFFF" width="6.5" height="2.7"/>
	
		<rect x="366" y="171.6" transform="matrix(0.903 0.4296 -0.4296 0.903 110.7391 -140.8813)" fill="#FFFFFF" width="2.7" height="6.5"/>
	
		<rect x="432.2" y="20.6" transform="matrix(-0.903 -0.4296 0.4296 -0.903 814.917 231.6292)" fill="#FFFFFF" width="2.7" height="6.5"/>
	
		<rect x="374.4" y="174.7" transform="matrix(0.9444 0.3288 -0.3288 0.9444 79.4171 -113.6608)" fill="#FFFFFF" width="2.7" height="6.5"/>
	
		<rect x="421.9" y="19.3" transform="matrix(-0.3288 0.9444 -0.9444 -0.3288 584.4983 -374.1413)" fill="#FFFFFF" width="6.5" height="2.7"/>
	
		<rect x="382.8" y="176.9" transform="matrix(0.9739 0.2272 -0.2272 0.9739 50.9815 -82.5767)" fill="#FFFFFF" width="2.7" height="6.5"/>
	
		<rect x="415.4" y="15.2" transform="matrix(-0.9739 -0.2272 0.2272 -0.9739 818.4858 131.2149)" fill="#FFFFFF" width="2.7" height="6.5"/>
	
		<rect x="391.2" y="178.1" transform="matrix(0.9919 0.1269 -0.1269 0.9919 26.1939 -48.35)" fill="#FFFFFF" width="2.7" height="6.5"/>
	
		<rect x="407.1" y="14" transform="matrix(-0.9919 -0.1269 0.1269 -0.9919 811.3829 86.2714)" fill="#FFFFFF" width="2.7" height="6.5"/>
</g>
</svg>
