<?xml version="1.0" encoding="utf-8"?>
<!-- Generator: Adobe Illustrator 18.1.0, SVG Export Plug-In . SVG Version: 6.00 Build 0)  -->
<!DOCTYPE svg PUBLIC "-//W3C//DTD SVG 1.1//EN" "http://www.w3.org/Graphics/SVG/1.1/DTD/svg11.dtd">
<svg version="1.1" id="Layer_1" xmlns="http://www.w3.org/2000/svg" xmlns:xlink="http://www.w3.org/1999/xlink" x="0px" y="0px"
	 viewBox="0 0 299.6 299.6" enable-background="new 0 0 299.6 299.6" xml:space="preserve">
<g>
	<path fill="none" d="M246,53.6c-25.7-25.7-59.8-39.8-96.2-39.8c-36.3,0-70.5,14.1-96.2,39.8C28,79.3,13.8,113.5,13.8,149.8
		c0,36.3,14.1,70.5,39.8,96.2c25.7,25.7,59.8,39.8,96.2,39.8c36.3,0,70.5-14.1,96.2-39.8c25.7-25.7,39.8-59.8,39.8-96.2
		C285.8,113.5,271.6,79.3,246,53.6z M278.1,134.3l-9.7,1l-0.4-4l9.7-1L278.1,134.3z M276.5,144.7l0,9l-31.2-0.1l0-9L276.5,144.7z
		 M275.7,120.5l-9.5,2l-0.8-4l9.5-2L275.7,120.5z M272.1,107.4l-9.3,3l-1.3-3.9l9.3-3L272.1,107.4z M267.2,95.3l-8.9,3.9l-1.6-3.7
		l8.9-3.9L267.2,95.3z M259.1,84.4l-26.4,16.7l-4.8-7.6l26.4-16.7L259.1,84.4z M251.8,69.8l2.3,3.3l-8,5.6l-2.3-3.3L251.8,69.8z
		 M245.3,62.3l-7.3,6.5l-2.7-3l7.3-6.5L245.3,62.3z M232.7,50l3,2.7l-6.6,7.2l-3-2.7L232.7,50z M200.4,30.4l3.7,1.7l-4.2,8.8
		l-3.7-1.7L200.4,30.4z M209.5,36.5l7.8,4.6L201.5,68l-7.8-4.6L209.5,36.5z M174,22.5l3.9,0.9l-2.2,9.5l-3.9-0.9L174,22.5z
		 M161.1,20.8l4,0.5l-1.2,9.7l-4-0.5L161.1,20.8z M137.2,21.2l0.9,9.7l-4,0.4l-0.9-9.7L137.2,21.2z M123.4,23.4l1.9,9.6l-4,0.8
		l-1.9-9.6L123.4,23.4z M110.3,26.9l2.9,9.3l-3.9,1.2l-2.9-9.3L110.3,26.9z M98.1,31.7l3.9,9l-3.7,1.6l-3.9-9L98.1,31.7z M88.6,36.4
		l15.7,27l-7.8,4.5l-15.7-27L88.6,36.4z M75.4,44.7l5.6,8l-3.3,2.3l-5.6-8L75.4,44.7z M64.5,53.5l6.4,7.3l-3,2.7l-6.4-7.3L64.5,53.5
		z M54.9,63.2l7.2,6.6l-2.7,3l-7.2-6.6L54.9,63.2z M46.7,73.3l7.8,5.8l-2.4,3.2l-7.8-5.8L46.7,73.3z M39.5,83.1l27.3,15.1l-4.4,7.9
		L35.1,91L39.5,83.1z M32.9,97.5l8.9,4l-1.7,3.7l-8.9-4L32.9,97.5z M28,110.6l9.3,3l-1.3,3.9l-9.3-3L28,110.6z M24.7,123.8l9.5,2
		l-0.8,4l-9.5-2L24.7,123.8z M22.8,136.7l9.7,1.1l-0.4,4l-9.7-1.1L22.8,136.7z M21.3,144.1l31.2,0.1l0,9l-31.2-0.1L21.3,144.1z
		 M23,163.3l9.7-1l0.4,4l-9.7,1L23,163.3z M25.3,177.1l9.5-2l0.8,4l-9.5,2L25.3,177.1z M29,190.2l9.3-3l1.3,3.9l-9.3,3L29,190.2z
		 M33.9,202.3l8.9-3.9l1.6,3.7l-8.9,3.9L33.9,202.3z M38.7,213.3l26.4-16.7l4.8,7.6L43.5,221L38.7,213.3z M49.3,227.9l-2.3-3.3
		l8-5.6l2.3,3.3L49.3,227.9z M55.8,235.4l7.3-6.5l2.7,3l-7.3,6.5L55.8,235.4z M68.4,247.6l-3-2.7l6.6-7.2l3,2.7L68.4,247.6z
		 M75.7,253.1l5.8-7.8l3.3,2.4l-5.8,7.8L75.7,253.1z M100.7,267.2l-3.7-1.7l4.2-8.8l3.7,1.7L100.7,267.2z M90.4,263.4l-7.8-4.6
		l15.8-26.9l7.8,4.6L90.4,263.4z M113.8,271.9l-3.8-1.3l3.2-9.2l3.8,1.3L113.8,271.9z M127.1,275.1l-3.9-0.9l2.2-9.5l3.9,0.9
		L127.1,275.1z M140,276.9l-4-0.5l1.2-9.7l4,0.5L140,276.9z M153.1,276.1h-9v-31h9V276.1z M163.9,276.5l-0.9-9.7l4-0.4l0.9,9.7
		L163.9,276.5z M177.7,274.3l-1.9-9.6l4-0.8l1.9,9.6L177.7,274.3z M184.4,159.2l-23.8-1.4l0.9,34.1l-16.3,0.4l0.2-35.4l-76.4-4.3
		l-0.2-11.3l76.7,0.9l0.6-90.1h-2.1v-31h9v14.8l4-0.2l3,107l25.3,0.4L184.4,159.2z M184,34.9l3.2-9.2l3.8,1.3l-3.2,9.2L184,34.9z
		 M190.8,270.7l-2.9-9.3l3.9-1.2l2.9,9.3L190.8,270.7z M203,266l-3.9-9l3.7-1.6l3.9,9L203,266z M209.2,261.4l-15.7-27l7.8-4.5
		l15.7,27L209.2,261.4z M216.4,50l5.8-7.8l3.3,2.4l-5.8,7.8L216.4,50z M225.7,252.9l-5.6-8l3.3-2.3l5.6,8L225.7,252.9z M236.6,244.1
		l-6.4-7.3l3-2.7l6.4,7.3L236.6,244.1z M246.1,234.5l-7.2-6.6l2.7-3l7.2,6.6L246.1,234.5z M254.4,224.3l-7.8-5.8l2.4-3.2l7.8,5.8
		L254.4,224.3z M258.3,214.7L231,199.5l4.4-7.9l27.3,15.1L258.3,214.7z M268.2,200.1l-8.9-4l1.7-3.7l8.9,4L268.2,200.1z M273.1,187
		l-9.3-3l1.3-3.9l9.3,3L273.1,187z M276.4,173.9l-9.5-2l0.8-4l9.5,2L276.4,173.9z M268.6,159.9l0.4-4l9.7,1.1l-0.4,4L268.6,159.9z"
		/>
	<path fill="#231F20" d="M255.7,43.9C227.4,15.6,189.8,0,149.8,0c-40,0-77.6,15.6-105.9,43.9C15.6,72.2,0,109.8,0,149.8
		c0,40,15.6,77.6,43.9,105.9c28.3,28.3,65.9,43.9,105.9,43.9c40,0,77.6-15.6,105.9-43.9c28.3-28.3,43.9-65.9,43.9-105.9
		C299.6,109.8,284,72.2,255.7,43.9z M246,246c-25.7,25.7-59.8,39.8-96.2,39.8c-36.3,0-70.5-14.1-96.2-39.8
		c-25.7-25.7-39.8-59.8-39.8-96.2c0-36.3,14.1-70.5,39.8-96.2c25.7-25.7,59.8-39.8,96.2-39.8c36.3,0,70.5,14.1,96.2,39.8
		c25.7,25.7,39.8,59.8,39.8,96.2C285.8,186.1,271.6,220.3,246,246z"/>
	<rect x="144.1" y="245.1" fill="#231F20" width="9" height="31"/>
	
		<rect x="76.9" y="47.6" transform="matrix(0.5034 0.8641 -0.8641 0.5034 91.0064 -54.0544)" fill="#231F20" width="31.2" height="9"/>
	
		<rect x="189.7" y="241.1" transform="matrix(-0.5034 -0.8641 0.8641 -0.5034 96.3391 546.658)" fill="#231F20" width="31.2" height="9"/>
	
		<rect x="35.4" y="90.1" transform="matrix(0.8746 0.4848 -0.4848 0.8746 52.2547 -12.8433)" fill="#231F20" width="31.2" height="9"/>
	
		<rect x="231.2" y="198.7" transform="matrix(-0.8746 -0.4848 0.4848 -0.8746 364.2222 500.5376)" fill="#231F20" width="31.2" height="9"/>
	
		<rect x="21.3" y="144.2" transform="matrix(1 2.148553e-03 -2.148553e-03 1 0.3195 -7.898960e-02)" fill="#231F20" width="31.2" height="9"/>
	
		<rect x="245.3" y="144.6" transform="matrix(-1 -2.148539e-03 2.148539e-03 -1 521.411 298.8313)" fill="#231F20" width="31.2" height="9"/>
	
		<rect x="38.7" y="204.3" transform="matrix(0.8448 -0.535 0.535 0.8448 -103.2862 61.4455)" fill="#231F20" width="31.2" height="9"/>
	
		<rect x="227.9" y="84.5" transform="matrix(-0.8448 0.535 -0.535 -0.8448 496.8177 33.8991)" fill="#231F20" width="31.2" height="9"/>
	
		<rect x="89.9" y="232" transform="matrix(-0.8628 -0.5055 0.5055 -0.8628 50.615 509.003)" fill="#231F20" width="9" height="31.2"/>
	
		<rect x="201" y="36.7" transform="matrix(0.8628 0.5055 -0.5055 0.8628 54.6096 -96.6985)" fill="#231F20" width="9" height="31.2"/>
	<polygon fill="#231F20" points="157.1,35.7 153.1,35.9 153.1,21.1 144.1,21.1 144.1,52.1 146.2,52.1 145.6,142.2 68.8,141.2 
		69.1,152.6 145.5,157 145.2,192.4 161.6,192 160.6,157.8 184.4,159.2 185.5,143 160.1,142.6 	"/>
	
		<rect x="130.7" y="24.2" transform="matrix(9.028696e-02 0.9959 -0.9959 9.028696e-02 149.4522 -111.2306)" fill="#231F20" width="9.8" height="4.1"/>
	
		<rect x="160.6" y="269.4" transform="matrix(-9.029321e-02 -0.9959 0.9959 -9.029321e-02 -89.9041 460.7484)" fill="#231F20" width="9.8" height="4.1"/>
	
		<rect x="117.5" y="26.5" transform="matrix(0.1981 0.9802 -0.9802 0.1981 126.108 -97.0512)" fill="#231F20" width="9.8" height="4.1"/>
	
		<rect x="173.8" y="267.1" transform="matrix(-0.1981 -0.9802 0.9802 -0.1981 -49.6277 497.5648)" fill="#231F20" width="9.8" height="4.1"/>
	
		<rect x="104.9" y="30.2" transform="matrix(0.3006 0.9538 -0.9538 0.3006 107.5139 -82.2148)" fill="#231F20" width="9.8" height="4.1"/>
	
		<rect x="186.4" y="263.4" transform="matrix(-0.3005 -0.9538 0.9538 -0.3005 -4.39 527.6434)" fill="#231F20" width="9.8" height="4.1"/>
	
		<rect x="93.3" y="34.9" transform="matrix(0.396 0.9182 -0.9182 0.396 93.2066 -67.8162)" fill="#231F20" width="9.8" height="4.1"/>
	
		<rect x="198.1" y="258.7" transform="matrix(-0.396 -0.9182 0.9182 -0.396 43.9402 550.2637)" fill="#231F20" width="9.8" height="4.1"/>
	
		<rect x="71.7" y="47.9" transform="matrix(0.5741 0.8188 -0.8188 0.5741 73.4579 -41.4193)" fill="#231F20" width="9.8" height="4.1"/>
	
		<rect x="219.7" y="245.7" transform="matrix(-0.5741 -0.8188 0.8188 -0.5741 150.6415 573.7984)" fill="#231F20" width="9.8" height="4.1"/>
	
		<rect x="61.3" y="56.5" transform="matrix(0.6598 0.7515 -0.7515 0.6598 66.5231 -29.8512)" fill="#231F20" width="9.8" height="4.1"/>
	
		<rect x="230" y="237.1" transform="matrix(-0.6598 -0.7515 0.7515 -0.6598 210.1532 573.3242)" fill="#231F20" width="9.8" height="4.1"/>
	
		<rect x="52.3" y="65.9" transform="matrix(0.7355 0.6775 -0.6775 0.7355 61.161 -20.7515)" fill="#231F20" width="9.8" height="4.1"/>
	
		<rect x="239.1" y="227.6" transform="matrix(-0.7355 -0.6775 0.6775 -0.7355 267.7398 563.864)" fill="#231F20" width="9.8" height="4.1"/>
	
		<rect x="44.5" y="75.9" transform="matrix(0.8006 0.5992 -0.5992 0.8006 56.5143 -14.0809)" fill="#231F20" width="9.8" height="4.1"/>
	
		<rect x="246.8" y="217.7" transform="matrix(-0.8006 -0.5992 0.5992 -0.8006 321.5091 546.4797)" fill="#231F20" width="9.8" height="4.1"/>
	
		<rect x="31.6" y="99.3" transform="matrix(0.911 0.4125 -0.4125 0.911 45.0544 -6.0327)" fill="#231F20" width="9.8" height="4.1"/>
	
		<rect x="259.7" y="194.3" transform="matrix(-0.911 -0.4125 0.4125 -0.911 424.6611 484.2215)" fill="#231F20" width="9.8" height="4.1"/>
	<rect x="27.1" y="112" transform="matrix(0.9504 0.311 -0.311 0.9504 37.0485 -4.3023)" fill="#231F20" width="9.8" height="4.1"/>
	
		<rect x="264.2" y="181.6" transform="matrix(-0.9504 -0.311 0.311 -0.9504 467.7191 441.7617)" fill="#231F20" width="9.8" height="4.1"/>
	
		<rect x="24.1" y="124.7" transform="matrix(0.978 0.2088 -0.2088 0.978 27.1024 -3.262)" fill="#231F20" width="9.8" height="4.1"/>
	
		<rect x="267.2" y="168.8" transform="matrix(-0.978 -0.2088 0.2088 -0.978 502.5069 394.7842)" fill="#231F20" width="9.8" height="4.1"/>
	
		<rect x="22.5" y="137.2" transform="matrix(0.9941 0.1082 -0.1082 0.9941 15.2232 -2.1459)" fill="#231F20" width="9.8" height="4.1"/>
	
		<rect x="271.7" y="153.5" transform="matrix(0.1082 -0.9941 0.9941 0.1082 86.6321 413.351)" fill="#231F20" width="4.1" height="9.8"/>
	
		<rect x="23.2" y="162.8" transform="matrix(0.9951 -9.933957e-02 9.933957e-02 0.9951 -16.2385 3.6035)" fill="#231F20" width="9.8" height="4.1"/>
	
		<rect x="268.1" y="130.7" transform="matrix(-0.9951 9.933955e-02 -9.933955e-02 -0.9951 557.8918 237.7501)" fill="#231F20" width="9.8" height="4.1"/>
	
		<rect x="25.7" y="176.1" transform="matrix(0.9783 -0.207 0.207 0.9783 -36.196 10.1757)" fill="#231F20" width="9.8" height="4.1"/>
	
		<rect x="265.7" y="117.5" transform="matrix(-0.9783 0.207 -0.207 -0.9783 559.9927 180.4974)" fill="#231F20" width="9.8" height="4.1"/>
	
		<rect x="29.4" y="188.6" transform="matrix(0.951 -0.3092 0.3092 0.951 -57.2565 19.9478)" fill="#231F20" width="9.8" height="4.1"/>
	
		<rect x="261.9" y="105" transform="matrix(-0.951 0.3092 -0.3092 -0.951 553.5948 126.301)" fill="#231F20" width="9.8" height="4.1"/>
	
		<rect x="34.3" y="200.2" transform="matrix(0.9146 -0.4044 0.4044 0.9146 -78.427 33.1054)" fill="#231F20" width="9.8" height="4.1"/>
	
		<rect x="257.1" y="93.4" transform="matrix(-0.9146 0.4044 -0.4044 -0.9146 540.0753 76.7491)" fill="#231F20" width="9.8" height="4.1"/>
	
		<rect x="47.2" y="221.4" transform="matrix(0.8155 -0.5788 0.5788 0.8155 -119.6894 71.3592)" fill="#231F20" width="9.8" height="4.1"/>
	
		<rect x="244.2" y="72.2" transform="matrix(-0.8155 0.5788 -0.5788 -0.8155 495.0754 -9.3526)" fill="#231F20" width="9.8" height="4.1"/>
	
		<rect x="55.9" y="231.6" transform="matrix(0.7477 -0.6641 0.6641 0.7477 -139.8284 99.3032)" fill="#231F20" width="9.8" height="4.1"/>
	
		<rect x="235.5" y="62" transform="matrix(-0.7477 0.6641 -0.6641 -0.7477 462.513 -47.7867)" fill="#231F20" width="9.8" height="4.1"/>
	
		<rect x="68.2" y="237.8" transform="matrix(-0.7394 -0.6733 0.6733 -0.7394 -41.2356 469.3653)" fill="#231F20" width="4.1" height="9.8"/>
	
		<rect x="228.8" y="50.1" transform="matrix(0.7394 0.6733 -0.6733 0.7394 97.175 -141.1152)" fill="#231F20" width="4.1" height="9.8"/>
	
		<rect x="75.3" y="248.3" transform="matrix(0.5946 -0.8041 0.8041 0.5946 -168.7803 165.9805)" fill="#231F20" width="9.8" height="4.1"/>
	
		<rect x="216" y="45.3" transform="matrix(0.5946 -0.8041 0.8041 0.5946 51.5477 196.7822)" fill="#231F20" width="9.8" height="4.1"/>
	
		<rect x="98.9" y="257.1" transform="matrix(-0.903 -0.4296 0.4296 -0.903 79.5645 541.8459)" fill="#231F20" width="4.1" height="9.8"/>
	
		<rect x="198.1" y="30.8" transform="matrix(0.903 0.4296 -0.4296 0.903 34.7397 -82.5235)" fill="#231F20" width="4.1" height="9.8"/>
	
		<rect x="111.5" y="261.8" transform="matrix(-0.9444 -0.3288 0.3288 -0.9444 133.0674 555.8376)" fill="#231F20" width="4.1" height="9.8"/>
	
		<rect x="182.7" y="28.9" transform="matrix(0.3288 -0.9444 0.9444 0.3288 96.6425 197.9051)" fill="#231F20" width="9.8" height="4.1"/>
	
		<rect x="124.2" y="265" transform="matrix(-0.9739 -0.2272 0.2272 -0.9739 187.7809 561.4487)" fill="#231F20" width="4.1" height="9.8"/>
	
		<rect x="172.9" y="22.8" transform="matrix(0.9739 0.2272 -0.2272 0.9739 10.8675 -39.0068)" fill="#231F20" width="4.1" height="9.8"/>
	
		<rect x="136.6" y="266.9" transform="matrix(-0.9919 -0.1269 0.1269 -0.9919 241.6894 558.9317)" fill="#231F20" width="4.1" height="9.8"/>
	
		<rect x="160.4" y="21" transform="matrix(0.9919 0.1269 -0.1269 0.9919 4.595 -20.4052)" fill="#231F20" width="4.1" height="9.8"/>
</g>
</svg>
